SplineFontDB: 3.2
FontName: FontAwesome5Free-Regular
FullName: Font Awesome 5 Free Regular
FamilyName: Font Awesome 5 Free Regular
Weight: Book
Copyright: Copyright (c) Font Awesome
Version: 331.008 (Font Awesome version: 5.13.0)
ItalicAngle: 0
UnderlinePosition: -49
UnderlineWidth: 25
Ascent: 448
Descent: 64
InvalidEm: 0
sfntRevision: 0x014b020c
LayerCount: 2
Layer: 0 1 "Back" 1
Layer: 1 1 "Fore" 0
XUID: [1021 906 634386165 1536431]
StyleMap: 0x0000
FSType: 0
OS2Version: 4
OS2_WeightWidthSlopeOnly: 0
OS2_UseTypoMetrics: 1
CreationTime: 1584978344
ModificationTime: 1584978351
PfmFamily: 17
TTFWeight: 400
TTFWidth: 5
LineGap: 0
VLineGap: 0
Panose: 2 0 5 3 0 0 0 0 0 0
OS2TypoAscent: 448
OS2TypoAOffset: 0
OS2TypoDescent: -64
OS2TypoDOffset: 0
OS2TypoLinegap: 46
OS2WinAscent: 460
OS2WinAOffset: 0
OS2WinDescent: 84
OS2WinDOffset: 0
HheadAscent: 448
HheadAOffset: 0
HheadDescent: -64
HheadDOffset: 0
OS2SubXSize: 332
OS2SubYSize: 358
OS2SubXOff: 0
OS2SubYOff: 71
OS2SupXSize: 332
OS2SupYSize: 358
OS2SupXOff: 0
OS2SupYOff: 245
OS2StrikeYSize: 25
OS2StrikeYPos: 132
OS2CapHeight: 421
OS2XHeight: 314
OS2Vendor: 'PfEd'
OS2CodePages: 00000001.00000000
OS2UnicodeRanges: 00000000.00000000.00000000.00000000
DEI: 91125
ShortTable: maxp 16
  1
  0
  154
  172
  14
  0
  0
  2
  0
  1
  1
  0
  64
  0
  0
  0
EndShort
LangName: 1033 "" "" "" "Font Awesome 5 Free Regular-5.13.0" "" "331.008 (Font Awesome version: 5.13.0)" "" "" "" "" "The web's most popular icon set and toolkit." "https://fontawesome.com" "" "" "" "" "Font Awesome 5 Free" "Regular" "Font Awesome 5 Free Regular" "" "" "Font Awesome 5 Free" "Regular"
GaspTable: 1 65535 2 0
Encoding: UnicodeBmp
UnicodeInterp: none
NameList: AGL For New Fonts
DisplaySize: -48
AntiAlias: 1
FitToEm: 0
WinInfo: 64 16 4
BeginChars: 65539 154

StartChar: heart
Encoding: 61444 61444 3
Width: 512
GlyphClass: 3
Flags: W
LayerCount: 2
Fore
SplineSet
458 384 m 0,0,1
 494 353 494 353 506 310.5 c 128,-1,2
 518 268 518 268 507 229 c 128,-1,3
 496 190 496 190 469 162 c 2,4,-1
 294 -16 l 2,5,6
 278 -32 278 -32 256 -32 c 128,-1,7
 234 -32 234 -32 218 -16 c 2,8,-1
 43 162 l 2,9,10
 16 190 16 190 5 229.5 c 128,-1,11
 -6 269 -6 269 6 311 c 128,-1,12
 18 353 18 353 54 384 c 0,13,14
 97 420 97 420 155.5 415.5 c 128,-1,15
 214 411 214 411 256 369 c 1,16,17
 298 411 298 411 356.5 415.5 c 128,-1,18
 415 420 415 420 458 384 c 0,0,1
435 196 m 2,19,20
 464 226 464 226 464 269.5 c 128,-1,21
 464 313 464 313 428 347 c 0,22,23
 398 371 398 371 358.5 368 c 128,-1,24
 319 365 319 365 291 336 c 2,25,-1
 256 301 l 1,26,-1
 221 336 l 2,27,28
 193 365 193 365 153.5 368 c 128,-1,29
 114 371 114 371 84 347 c 0,30,31
 48 313 48 313 48 269.5 c 128,-1,32
 48 226 48 226 77 196 c 2,33,-1
 253 18 l 2,34,35
 256 14 256 14 259 18 c 2,36,-1
 435 196 l 2,19,20
EndSplineSet
EndChar

StartChar: star
Encoding: 61445 61445 4
Width: 576
GlyphClass: 3
Flags: W
LayerCount: 2
Fore
SplineSet
528 276 m 2,0,1
 548 274 548 274 554 255 c 128,-1,2
 560 236 560 236 546 222 c 2,3,-1
 440 119 l 1,4,-1
 465 -27 l 2,5,6
 468 -46 468 -46 452 -57.5 c 128,-1,7
 436 -69 436 -69 419 -60 c 2,8,-1
 288 8 l 1,9,-1
 157 -60 l 2,10,11
 140 -70 140 -70 124 -58 c 128,-1,12
 108 -46 108 -46 111 -27 c 2,13,-1
 136 119 l 1,14,-1
 30 222 l 2,15,16
 16 236 16 236 22 255 c 128,-1,17
 28 274 28 274 48 276 c 2,18,-1
 194 298 l 1,19,-1
 259 430 l 2,20,21
 268 448 268 448 288 448 c 128,-1,22
 308 448 308 448 317 430 c 2,23,-1
 382 298 l 1,24,-1
 528 276 l 2,0,1
389 136 m 1,25,-1
 489 234 l 1,26,-1
 350 254 l 1,27,-1
 288 380 l 1,28,-1
 226 254 l 1,29,-1
 87 234 l 1,30,-1
 187 136 l 1,31,-1
 164 -3 l 1,32,-1
 288 63 l 1,33,-1
 412 -3 l 1,34,-1
 389 136 l 1,25,-1
EndSplineSet
EndChar

StartChar: user
Encoding: 61447 61447 5
Width: 448
GlyphClass: 3
Flags: W
LayerCount: 2
Fore
SplineSet
314 144 m 0,0,1
 369 144 369 144 408.5 104.5 c 128,-1,2
 448 65 448 65 448 10 c 2,3,-1
 448 -16 l 2,4,5
 448 -36 448 -36 434 -50 c 128,-1,6
 420 -64 420 -64 400 -64 c 2,7,-1
 48 -64 l 2,8,9
 28 -64 28 -64 14 -50 c 128,-1,10
 0 -36 0 -36 0 -16 c 2,11,-1
 0 10 l 2,12,13
 0 65 0 65 39.5 104.5 c 128,-1,14
 79 144 79 144 134 144 c 0,15,16
 147 144 147 144 172.5 136 c 128,-1,17
 198 128 198 128 224 128 c 128,-1,18
 250 128 250 128 276 136 c 128,-1,19
 302 144 302 144 314 144 c 0,0,1
400 -16 m 1,20,-1
 400 10 l 2,21,22
 400 45 400 45 374.5 70.5 c 128,-1,23
 349 96 349 96 314 96 c 0,24,25
 311 96 311 96 282.5 88 c 128,-1,26
 254 80 254 80 224 80 c 256,27,28
 194 80 194 80 165.5 88 c 128,-1,29
 137 96 137 96 134 96 c 0,30,31
 99 96 99 96 73.5 70.5 c 128,-1,32
 48 45 48 45 48 10 c 2,33,-1
 48 -16 l 1,34,-1
 400 -16 l 1,20,-1
224 160 m 128,-1,36
 164 160 164 160 122 202 c 128,-1,37
 80 244 80 244 80 304 c 128,-1,38
 80 364 80 364 122 406 c 128,-1,39
 164 448 164 448 224 448 c 128,-1,40
 284 448 284 448 326 406 c 128,-1,41
 368 364 368 364 368 304 c 128,-1,42
 368 244 368 244 326 202 c 128,-1,35
 284 160 284 160 224 160 c 128,-1,36
224 400 m 128,-1,44
 184 400 184 400 156 372 c 128,-1,45
 128 344 128 344 128 304 c 128,-1,46
 128 264 128 264 156 236 c 128,-1,47
 184 208 184 208 224 208 c 128,-1,48
 264 208 264 208 292 236 c 128,-1,49
 320 264 320 264 320 304 c 128,-1,50
 320 344 320 344 292 372 c 128,-1,43
 264 400 264 400 224 400 c 128,-1,44
EndSplineSet
EndChar

StartChar: clock
Encoding: 61463 61463 6
Width: 512
GlyphClass: 3
Flags: W
LayerCount: 2
Fore
SplineSet
256 440 m 128,-1,1
 359 440 359 440 431.5 367.5 c 128,-1,2
 504 295 504 295 504 192 c 128,-1,3
 504 89 504 89 431.5 16.5 c 128,-1,4
 359 -56 359 -56 256 -56 c 128,-1,5
 153 -56 153 -56 80.5 16.5 c 128,-1,6
 8 89 8 89 8 192 c 128,-1,7
 8 295 8 295 80.5 367.5 c 128,-1,0
 153 440 153 440 256 440 c 128,-1,1
256 -8 m 128,-1,9
 339 -8 339 -8 397.5 50.5 c 128,-1,10
 456 109 456 109 456 192 c 128,-1,11
 456 275 456 275 397.5 333.5 c 128,-1,12
 339 392 339 392 256 392 c 128,-1,13
 173 392 173 392 114.5 333.5 c 128,-1,14
 56 275 56 275 56 192 c 128,-1,15
 56 109 56 109 114.5 50.5 c 128,-1,8
 173 -8 173 -8 256 -8 c 128,-1,9
318 96 m 2,16,-1
 233 158 l 2,17,18
 228 162 228 162 228 168 c 2,19,-1
 228 332 l 2,20,21
 228 344 228 344 240 344 c 2,22,-1
 272 344 l 2,23,24
 284 344 284 344 284 332 c 2,25,-1
 284 190 l 1,26,-1
 351 142 l 2,27,28
 360 135 360 135 353 125 c 2,29,-1
 335 99 l 2,30,31
 328 89 328 89 318 96 c 2,16,-1
EndSplineSet
EndChar

StartChar: list-alt
Encoding: 61474 61474 7
Width: 512
GlyphClass: 3
Flags: W
LayerCount: 2
Fore
SplineSet
464 416 m 2,0,1
 484 416 484 416 498 402 c 128,-1,2
 512 388 512 388 512 368 c 2,3,-1
 512 16 l 2,4,5
 512 -4 512 -4 498 -18 c 128,-1,6
 484 -32 484 -32 464 -32 c 2,7,-1
 48 -32 l 2,8,9
 28 -32 28 -32 14 -18 c 128,-1,10
 0 -4 0 -4 0 16 c 2,11,-1
 0 368 l 2,12,13
 0 388 0 388 14 402 c 128,-1,14
 28 416 28 416 48 416 c 2,15,-1
 464 416 l 2,0,1
458 16 m 2,16,17
 464 16 464 16 464 22 c 2,18,-1
 464 362 l 2,19,20
 464 368 464 368 458 368 c 2,21,-1
 54 368 l 2,22,23
 48 368 48 368 48 362 c 2,24,-1
 48 22 l 2,25,26
 48 16 48 16 54 16 c 2,27,-1
 458 16 l 2,16,17
416 108 m 2,28,-1
 416 84 l 2,29,30
 416 72 416 72 404 72 c 2,31,-1
 204 72 l 2,32,33
 192 72 192 72 192 84 c 2,34,-1
 192 108 l 2,35,36
 192 120 192 120 204 120 c 2,37,-1
 404 120 l 2,38,39
 416 120 416 120 416 108 c 2,28,-1
416 204 m 2,40,-1
 416 180 l 2,41,42
 416 168 416 168 404 168 c 2,43,-1
 204 168 l 2,44,45
 192 168 192 168 192 180 c 2,46,-1
 192 204 l 2,47,48
 192 216 192 216 204 216 c 2,49,-1
 404 216 l 2,50,51
 416 216 416 216 416 204 c 2,40,-1
416 300 m 2,52,-1
 416 276 l 2,53,54
 416 264 416 264 404 264 c 2,55,-1
 204 264 l 2,56,57
 192 264 192 264 192 276 c 2,58,-1
 192 300 l 2,59,60
 192 312 192 312 204 312 c 2,61,-1
 404 312 l 2,62,63
 416 312 416 312 416 300 c 2,52,-1
164 288 m 128,-1,65
 164 273 164 273 153.5 262.5 c 128,-1,66
 143 252 143 252 128 252 c 128,-1,67
 113 252 113 252 102.5 262.5 c 128,-1,68
 92 273 92 273 92 288 c 128,-1,69
 92 303 92 303 102.5 313.5 c 128,-1,70
 113 324 113 324 128 324 c 128,-1,71
 143 324 143 324 153.5 313.5 c 128,-1,64
 164 303 164 303 164 288 c 128,-1,65
164 192 m 128,-1,73
 164 177 164 177 153.5 166.5 c 128,-1,74
 143 156 143 156 128 156 c 128,-1,75
 113 156 113 156 102.5 166.5 c 128,-1,76
 92 177 92 177 92 192 c 128,-1,77
 92 207 92 207 102.5 217.5 c 128,-1,78
 113 228 113 228 128 228 c 128,-1,79
 143 228 143 228 153.5 217.5 c 128,-1,72
 164 207 164 207 164 192 c 128,-1,73
164 96 m 128,-1,81
 164 81 164 81 153.5 70.5 c 128,-1,82
 143 60 143 60 128 60 c 128,-1,83
 113 60 113 60 102.5 70.5 c 128,-1,84
 92 81 92 81 92 96 c 128,-1,85
 92 111 92 111 102.5 121.5 c 128,-1,86
 113 132 113 132 128 132 c 128,-1,87
 143 132 143 132 153.5 121.5 c 128,-1,80
 164 111 164 111 164 96 c 128,-1,81
EndSplineSet
EndChar

StartChar: flag
Encoding: 61476 61476 8
Width: 512
GlyphClass: 3
Flags: W
LayerCount: 2
Fore
SplineSet
336 368 m 0,0,1
 380 368 380 368 445 396 c 0,2,3
 469 406 469 406 490.5 392 c 128,-1,4
 512 378 512 378 512 352 c 2,5,-1
 512 112 l 2,6,7
 512 86 512 86 490 72 c 0,8,9
 429 32 429 32 362 32 c 0,10,11
 325 32 325 32 273.5 48 c 128,-1,12
 222 64 222 64 200 64 c 0,13,14
 135 64 135 64 72 35 c 1,15,-1
 72 -48 l 2,16,17
 72 -55 72 -55 67.5 -59.5 c 128,-1,18
 63 -64 63 -64 56 -64 c 2,19,-1
 40 -64 l 2,20,21
 33 -64 33 -64 28.5 -59.5 c 128,-1,22
 24 -55 24 -55 24 -48 c 2,23,-1
 24 358 l 1,24,25
 0 372 0 372 0 400 c 0,26,27
 0 421 0 421 15 435 c 128,-1,28
 30 449 30 449 51 448 c 0,29,30
 68 447 68 447 81 435 c 128,-1,31
 94 423 94 423 96 406 c 0,32,33
 96 403 96 403 96 400 c 0,34,35
 96 392 96 392 94 385 c 1,36,37
 133 400 133 400 174 400 c 0,38,39
 211 400 211 400 262.5 384 c 128,-1,40
 314 368 314 368 336 368 c 0,0,1
464 112 m 1,41,-1
 464 352 l 1,42,43
 395 320 395 320 336 320 c 0,44,45
 306 320 306 320 255 336 c 128,-1,46
 204 352 204 352 174 352 c 0,47,48
 117 352 117 352 72 320 c 1,49,-1
 72 88 l 1,50,51
 124 112 124 112 200 112 c 0,52,53
 230 112 230 112 281 96 c 128,-1,54
 332 80 332 80 362 80 c 0,55,56
 419 80 419 80 464 112 c 1,41,-1
EndSplineSet
EndChar

StartChar: bookmark
Encoding: 61486 61486 9
Width: 384
GlyphClass: 3
Flags: W
LayerCount: 2
Fore
SplineSet
336 448 m 2,0,1
 356 448 356 448 370 434 c 128,-1,2
 384 420 384 420 384 400 c 2,3,-1
 384 -64 l 1,4,-1
 192 48 l 1,5,-1
 0 -64 l 1,6,-1
 0 400 l 2,7,8
 0 420 0 420 14 434 c 128,-1,9
 28 448 28 448 48 448 c 2,10,-1
 336 448 l 2,0,1
336 20 m 1,11,-1
 336 394 l 2,12,13
 336 400 336 400 330 400 c 2,14,-1
 54 400 l 2,15,16
 48 400 48 400 48 394 c 2,17,-1
 48 20 l 1,18,-1
 192 104 l 1,19,-1
 336 20 l 1,11,-1
EndSplineSet
EndChar

StartChar: image
Encoding: 61502 61502 10
Width: 512
GlyphClass: 3
Flags: W
LayerCount: 2
Fore
SplineSet
464 384 m 2,0,1
 484 384 484 384 498 370 c 128,-1,2
 512 356 512 356 512 336 c 2,3,-1
 512 48 l 2,4,5
 512 28 512 28 498 14 c 128,-1,6
 484 0 484 0 464 0 c 2,7,-1
 48 0 l 2,8,9
 28 0 28 0 14 14 c 128,-1,10
 0 28 0 28 0 48 c 2,11,-1
 0 336 l 2,12,13
 0 356 0 356 14 370 c 128,-1,14
 28 384 28 384 48 384 c 2,15,-1
 464 384 l 2,0,1
458 48 m 2,16,17
 464 48 464 48 464 54 c 2,18,-1
 464 330 l 2,19,20
 464 336 464 336 458 336 c 2,21,-1
 54 336 l 2,22,23
 48 336 48 336 48 330 c 2,24,-1
 48 54 l 2,25,26
 48 48 48 48 54 48 c 2,27,-1
 458 48 l 2,16,17
128 296 m 128,-1,29
 145 296 145 296 156.5 284.5 c 128,-1,30
 168 273 168 273 168 256 c 128,-1,31
 168 239 168 239 156.5 227.5 c 128,-1,32
 145 216 145 216 128 216 c 128,-1,33
 111 216 111 216 99.5 227.5 c 128,-1,34
 88 239 88 239 88 256 c 128,-1,35
 88 273 88 273 99.5 284.5 c 128,-1,28
 111 296 111 296 128 296 c 128,-1,29
96 96 m 1,36,-1
 96 144 l 1,37,-1
 136 184 l 2,38,39
 144 192 144 192 152 184 c 2,40,-1
 192 144 l 1,41,-1
 312 264 l 2,42,43
 320 272 320 272 328 264 c 2,44,-1
 416 176 l 1,45,-1
 416 96 l 1,46,-1
 96 96 l 1,36,-1
EndSplineSet
EndChar

StartChar: edit
Encoding: 61508 61508 11
Width: 576
GlyphClass: 3
Flags: W
LayerCount: 2
Fore
SplineSet
402 103 m 2,0,-1
 434 135 l 2,1,2
 438 139 438 139 443 137 c 128,-1,3
 448 135 448 135 448 129 c 2,4,-1
 448 -16 l 2,5,6
 448 -36 448 -36 434 -50 c 128,-1,7
 420 -64 420 -64 400 -64 c 2,8,-1
 48 -64 l 2,9,10
 28 -64 28 -64 14 -50 c 128,-1,11
 0 -36 0 -36 0 -16 c 2,12,-1
 0 336 l 2,13,14
 0 356 0 356 14 370 c 128,-1,15
 28 384 28 384 48 384 c 2,16,-1
 322 384 l 2,17,18
 327 384 327 384 329 379 c 128,-1,19
 331 374 331 374 327 370 c 2,20,-1
 295 338 l 2,21,22
 293 336 293 336 290 336 c 2,23,-1
 48 336 l 1,24,-1
 48 -16 l 1,25,-1
 400 -16 l 1,26,-1
 400 98 l 2,27,28
 400 101 400 101 402 103 c 2,0,-1
559 305 m 2,29,-1
 296 42 l 1,30,-1
 206 32 l 2,31,32
 186 30 186 30 172 44 c 128,-1,33
 158 58 158 58 160 78 c 2,34,-1
 170 168 l 1,35,-1
 433 431 l 2,36,37
 450 448 450 448 474 448 c 128,-1,38
 498 448 498 448 516 431 c 2,39,-1
 559 388 l 2,40,41
 576 371 576 371 576 346.5 c 128,-1,42
 576 322 576 322 559 305 c 2,29,-1
460 274 m 1,43,-1
 402 332 l 1,44,-1
 216 146 l 1,45,-1
 209 81 l 1,46,-1
 274 88 l 1,47,-1
 460 274 l 1,43,-1
525 354 m 2,48,-1
 482 397 l 2,49,50
 474 404 474 404 467 397 c 2,51,-1
 436 366 l 1,52,-1
 494 308 l 1,53,-1
 525 339 l 2,54,55
 532 346 532 346 525 354 c 2,48,-1
EndSplineSet
EndChar

StartChar: times-circle
Encoding: 61527 61527 12
Width: 512
GlyphClass: 3
Flags: W
LayerCount: 2
Fore
SplineSet
256 440 m 128,-1,1
 359 440 359 440 431.5 367.5 c 128,-1,2
 504 295 504 295 504 192 c 128,-1,3
 504 89 504 89 431.5 16.5 c 128,-1,4
 359 -56 359 -56 256 -56 c 128,-1,5
 153 -56 153 -56 80.5 16.5 c 128,-1,6
 8 89 8 89 8 192 c 128,-1,7
 8 295 8 295 80.5 367.5 c 128,-1,0
 153 440 153 440 256 440 c 128,-1,1
256 -8 m 128,-1,9
 339 -8 339 -8 397.5 50.5 c 128,-1,10
 456 109 456 109 456 192 c 128,-1,11
 456 275 456 275 397.5 333.5 c 128,-1,12
 339 392 339 392 256 392 c 128,-1,13
 173 392 173 392 114.5 333.5 c 128,-1,14
 56 275 56 275 56 192 c 128,-1,15
 56 109 56 109 114.5 50.5 c 128,-1,8
 173 -8 173 -8 256 -8 c 128,-1,9
358 254 m 2,16,-1
 296 192 l 1,17,-1
 358 130 l 2,18,19
 366 121 366 121 358 113 c 2,20,-1
 335 90 l 2,21,22
 327 82 327 82 318 90 c 2,23,-1
 256 152 l 1,24,-1
 194 90 l 2,25,26
 185 82 185 82 177 90 c 2,27,-1
 154 113 l 2,28,29
 146 121 146 121 154 130 c 2,30,-1
 216 192 l 1,31,-1
 154 254 l 2,32,33
 146 263 146 263 154 271 c 2,34,-1
 177 294 l 2,35,36
 185 302 185 302 194 294 c 2,37,-1
 256 232 l 1,38,-1
 318 294 l 2,39,40
 327 302 327 302 335 294 c 2,41,-1
 358 271 l 2,42,43
 366 263 366 263 358 254 c 2,16,-1
EndSplineSet
EndChar

StartChar: check-circle
Encoding: 61528 61528 13
Width: 512
GlyphClass: 3
Flags: W
LayerCount: 2
Fore
SplineSet
256 440 m 128,-1,1
 359 440 359 440 431.5 367.5 c 128,-1,2
 504 295 504 295 504 192 c 128,-1,3
 504 89 504 89 431.5 16.5 c 128,-1,4
 359 -56 359 -56 256 -56 c 128,-1,5
 153 -56 153 -56 80.5 16.5 c 128,-1,6
 8 89 8 89 8 192 c 128,-1,7
 8 295 8 295 80.5 367.5 c 128,-1,0
 153 440 153 440 256 440 c 128,-1,1
256 392 m 128,-1,9
 173 392 173 392 114.5 333.5 c 128,-1,10
 56 275 56 275 56 192 c 128,-1,11
 56 109 56 109 114.5 50.5 c 128,-1,12
 173 -8 173 -8 256 -8 c 128,-1,13
 339 -8 339 -8 397.5 50.5 c 128,-1,14
 456 109 456 109 456 192 c 128,-1,15
 456 275 456 275 397.5 333.5 c 128,-1,8
 339 392 339 392 256 392 c 128,-1,9
396 262 m 2,16,17
 405 253 405 253 396 245 c 2,18,-1
 224 74 l 2,19,20
 215 65 215 65 207 74 c 2,21,-1
 116 165 l 2,22,23
 107 174 107 174 116 182 c 2,24,-1
 139 205 l 2,25,26
 147 213 147 213 156 205 c 2,27,-1
 215 144 l 1,28,-1
 357 285 l 2,29,30
 365 293 365 293 374 284 c 2,31,-1
 396 262 l 2,16,17
EndSplineSet
EndChar

StartChar: question-circle
Encoding: 61529 61529 14
Width: 512
GlyphClass: 3
Flags: W
LayerCount: 2
Fore
SplineSet
256 440 m 128,-1,1
 359 440 359 440 431.5 367.5 c 128,-1,2
 504 295 504 295 504 192 c 128,-1,3
 504 89 504 89 431.5 16.5 c 128,-1,4
 359 -56 359 -56 256 -56 c 128,-1,5
 153 -56 153 -56 80.5 16.5 c 128,-1,6
 8 89 8 89 8 192 c 128,-1,7
 8 295 8 295 80.5 367.5 c 128,-1,0
 153 440 153 440 256 440 c 128,-1,1
256 -8 m 128,-1,9
 339 -8 339 -8 397.5 50.5 c 128,-1,10
 456 109 456 109 456 192 c 128,-1,11
 456 275 456 275 397.5 333.5 c 128,-1,12
 339 392 339 392 256 392 c 128,-1,13
 173 392 173 392 114.5 333.5 c 128,-1,14
 56 275 56 275 56 192 c 128,-1,15
 56 109 56 109 114.5 50.5 c 128,-1,8
 173 -8 173 -8 256 -8 c 128,-1,9
363 247 m 0,16,17
 363 224 363 224 352 208 c 128,-1,18
 341 192 341 192 327 185 c 128,-1,19
 313 178 313 178 302 170 c 128,-1,20
 291 162 291 162 291 154 c 2,21,-1
 291 148 l 2,22,23
 291 143 291 143 287.5 139.5 c 128,-1,24
 284 136 284 136 279 136 c 2,25,-1
 233 136 l 2,26,27
 228 136 228 136 224.5 139.5 c 128,-1,28
 221 143 221 143 221 148 c 2,29,-1
 221 157 l 2,30,31
 221 169 221 169 225 179 c 128,-1,32
 229 189 229 189 238 197 c 128,-1,33
 247 205 247 205 252 208.5 c 128,-1,34
 257 212 257 212 269 218 c 0,35,36
 277 223 277 223 281 225.5 c 128,-1,37
 285 228 285 228 289.5 231.5 c 128,-1,38
 294 235 294 235 295.5 239 c 128,-1,39
 297 243 297 243 297 248 c 0,40,41
 297 260 297 260 284.5 268 c 128,-1,42
 272 276 272 276 257 276 c 0,43,44
 246 276 246 276 237.5 272.5 c 128,-1,45
 229 269 229 269 223 263 c 128,-1,46
 217 257 217 257 208 246 c 0,47,48
 201 237 201 237 192 244 c 2,49,-1
 164 265 l 2,50,51
 155 272 155 272 161 282 c 0,52,53
 198 336 198 336 262 336 c 0,54,55
 300 336 300 336 331.5 310 c 128,-1,56
 363 284 363 284 363 247 c 0,16,17
298 80 m 128,-1,58
 298 63 298 63 285.5 50.5 c 128,-1,59
 273 38 273 38 256 38 c 128,-1,60
 239 38 239 38 226.5 50.5 c 128,-1,61
 214 63 214 63 214 80 c 128,-1,62
 214 97 214 97 226.5 109.5 c 128,-1,63
 239 122 239 122 256 122 c 128,-1,64
 273 122 273 122 285.5 109.5 c 128,-1,57
 298 97 298 97 298 80 c 128,-1,58
EndSplineSet
EndChar

StartChar: eye
Encoding: 61550 61550 15
Width: 576
GlyphClass: 3
Flags: W
LayerCount: 2
Fore
SplineSet
288 304 m 0,0,1
 335 304 335 304 367.5 271.5 c 128,-1,2
 400 239 400 239 400 192.5 c 128,-1,3
 400 146 400 146 367.5 113.5 c 128,-1,4
 335 81 335 81 288.5 81 c 128,-1,5
 242 81 242 81 209.5 113.5 c 128,-1,6
 177 146 177 146 177 192 c 0,7,8
 177 208 177 208 181 223 c 1,9,10
 194 216 194 216 208 216 c 0,11,12
 231 216 231 216 247.5 232.5 c 128,-1,13
 264 249 264 249 264 272 c 0,14,15
 264 286 264 286 257 299 c 1,16,17
 272 304 272 304 288 304 c 0,0,1
573 207 m 0,18,19
 576 200 576 200 576 192 c 128,-1,20
 576 184 576 184 573 177 c 0,21,22
 531 97 531 97 455 48.5 c 128,-1,23
 379 0 379 0 288 0 c 0,24,25
 228 0 228 0 172.5 22.5 c 128,-1,26
 117 45 117 45 74 84.5 c 128,-1,27
 31 124 31 124 3 177 c 0,28,29
 0 184 0 184 0 192 c 128,-1,30
 0 200 0 200 3 207 c 0,31,32
 45 287 45 287 121 335.5 c 128,-1,33
 197 384 197 384 288 384 c 128,-1,34
 379 384 379 384 455 335.5 c 128,-1,35
 531 287 531 287 573 207 c 0,18,19
288 48 m 0,36,37
 362 48 362 48 425.5 86.5 c 128,-1,38
 489 125 489 125 526 192 c 1,39,40
 489 259 489 259 425.5 297.5 c 128,-1,41
 362 336 362 336 288 336 c 128,-1,42
 214 336 214 336 150.5 297.5 c 128,-1,43
 87 259 87 259 50 192 c 1,44,45
 74 148 74 148 111 115.5 c 128,-1,46
 148 83 148 83 193.5 65.5 c 128,-1,47
 239 48 239 48 288 48 c 0,36,37
EndSplineSet
EndChar

StartChar: eye-slash
Encoding: 61552 61552 16
Width: 640
GlyphClass: 3
Flags: W
LayerCount: 2
Fore
SplineSet
634 -23 m 2,0,1
 640 -28 640 -28 640 -35 c 0,2,3
 640 -41 640 -41 636 -46 c 2,4,-1
 626 -58 l 2,5,6
 622 -64 622 -64 614 -64 c 0,7,8
 608 -64 608 -64 604 -60 c 2,9,-1
 6 407 l 2,10,11
 0 412 0 412 0 419 c 0,12,13
 0 425 0 425 4 430 c 2,14,-1
 14 442 l 2,15,16
 18 448 18 448 26 448 c 0,17,18
 32 448 32 448 36 444 c 2,19,-1
 634 -23 l 2,0,1
297 302 m 1,20,21
 308 304 308 304 320 304 c 0,22,23
 365 304 365 304 397.5 272.5 c 128,-1,24
 430 241 430 241 432 196 c 1,25,-1
 297 302 l 1,20,21
343 82 m 1,26,27
 332 80 332 80 320 80 c 0,28,29
 275 80 275 80 242.5 111.5 c 128,-1,30
 210 143 210 143 208 188 c 1,31,-1
 343 82 l 1,26,27
320 336 m 0,32,33
 293 336 293 336 262 329 c 1,34,-1
 215 365 l 1,35,36
 268 384 268 384 320 384 c 0,37,38
 380 384 380 384 435.5 361.5 c 128,-1,39
 491 339 491 339 534 299.5 c 128,-1,40
 577 260 577 260 605 207 c 0,41,42
 608 200 608 200 608 192 c 128,-1,43
 608 184 608 184 605 177 c 0,44,45
 583 136 583 136 552 102 c 1,46,-1
 514 132 l 1,47,48
 540 159 540 159 558 192 c 1,49,50
 521 259 521 259 457.5 297.5 c 128,-1,51
 394 336 394 336 320 336 c 0,32,33
320 48 m 0,52,53
 347 48 347 48 378 55 c 1,54,-1
 425 19 l 1,55,56
 372 0 372 0 320 0 c 0,57,58
 229 0 229 0 153 48.5 c 128,-1,59
 77 97 77 97 35 177 c 0,60,61
 32 184 32 184 32 192 c 128,-1,62
 32 200 32 200 35 207 c 0,63,64
 57 248 57 248 88 282 c 1,65,-1
 126 252 l 1,66,67
 100 225 100 225 82 192 c 1,68,69
 119 125 119 125 182.5 86.5 c 128,-1,70
 246 48 246 48 320 48 c 0,52,53
EndSplineSet
EndChar

StartChar: calendar-alt
Encoding: 61555 61555 17
Width: 448
GlyphClass: 3
Flags: W
LayerCount: 2
Fore
SplineSet
148 160 m 2,0,-1
 108 160 l 2,1,2
 96 160 96 160 96 172 c 2,3,-1
 96 212 l 2,4,5
 96 224 96 224 108 224 c 2,6,-1
 148 224 l 2,7,8
 160 224 160 224 160 212 c 2,9,-1
 160 172 l 2,10,11
 160 160 160 160 148 160 c 2,0,-1
256 172 m 2,12,13
 256 160 256 160 244 160 c 2,14,-1
 204 160 l 2,15,16
 192 160 192 160 192 172 c 2,17,-1
 192 212 l 2,18,19
 192 224 192 224 204 224 c 2,20,-1
 244 224 l 2,21,22
 256 224 256 224 256 212 c 2,23,-1
 256 172 l 2,12,13
352 172 m 2,24,25
 352 160 352 160 340 160 c 2,26,-1
 300 160 l 2,27,28
 288 160 288 160 288 172 c 2,29,-1
 288 212 l 2,30,31
 288 224 288 224 300 224 c 2,32,-1
 340 224 l 2,33,34
 352 224 352 224 352 212 c 2,35,-1
 352 172 l 2,24,25
256 76 m 2,36,37
 256 64 256 64 244 64 c 2,38,-1
 204 64 l 2,39,40
 192 64 192 64 192 76 c 2,41,-1
 192 116 l 2,42,43
 192 128 192 128 204 128 c 2,44,-1
 244 128 l 2,45,46
 256 128 256 128 256 116 c 2,47,-1
 256 76 l 2,36,37
160 76 m 2,48,49
 160 64 160 64 148 64 c 2,50,-1
 108 64 l 2,51,52
 96 64 96 64 96 76 c 2,53,-1
 96 116 l 2,54,55
 96 128 96 128 108 128 c 2,56,-1
 148 128 l 2,57,58
 160 128 160 128 160 116 c 2,59,-1
 160 76 l 2,48,49
352 76 m 2,60,61
 352 64 352 64 340 64 c 2,62,-1
 300 64 l 2,63,64
 288 64 288 64 288 76 c 2,65,-1
 288 116 l 2,66,67
 288 128 288 128 300 128 c 2,68,-1
 340 128 l 2,69,70
 352 128 352 128 352 116 c 2,71,-1
 352 76 l 2,60,61
448 336 m 2,72,-1
 448 -16 l 2,73,74
 448 -36 448 -36 434 -50 c 128,-1,75
 420 -64 420 -64 400 -64 c 2,76,-1
 48 -64 l 2,77,78
 28 -64 28 -64 14 -50 c 128,-1,79
 0 -36 0 -36 0 -16 c 2,80,-1
 0 336 l 2,81,82
 0 356 0 356 14 370 c 128,-1,83
 28 384 28 384 48 384 c 2,84,-1
 96 384 l 1,85,-1
 96 436 l 2,86,87
 96 448 96 448 108 448 c 2,88,-1
 148 448 l 2,89,90
 160 448 160 448 160 436 c 2,91,-1
 160 384 l 1,92,-1
 288 384 l 1,93,-1
 288 436 l 2,94,95
 288 448 288 448 300 448 c 2,96,-1
 340 448 l 2,97,98
 352 448 352 448 352 436 c 2,99,-1
 352 384 l 1,100,-1
 400 384 l 2,101,102
 420 384 420 384 434 370 c 128,-1,103
 448 356 448 356 448 336 c 2,72,-1
400 -10 m 2,104,-1
 400 288 l 1,105,-1
 48 288 l 1,106,-1
 48 -10 l 2,107,108
 48 -16 48 -16 54 -16 c 2,109,-1
 394 -16 l 2,110,111
 400 -16 400 -16 400 -10 c 2,104,-1
EndSplineSet
EndChar

StartChar: comment
Encoding: 61557 61557 18
Width: 512
GlyphClass: 3
Flags: W
LayerCount: 2
Fore
SplineSet
256 416 m 128,-1,1
 362 416 362 416 437 355 c 128,-1,2
 512 294 512 294 512 208 c 128,-1,3
 512 122 512 122 437 61 c 128,-1,4
 362 0 362 0 256 0 c 0,5,6
 209 0 209 0 163 14 c 1,7,8
 98 -32 98 -32 24 -32 c 0,9,10
 8 -32 8 -32 2 -17.5 c 128,-1,11
 -4 -3 -4 -3 6 8 c 0,12,13
 8 10 8 10 15.5 18.5 c 128,-1,14
 23 27 23 27 34.5 45.5 c 128,-1,15
 46 64 46 64 53 82 c 1,16,17
 0 138 0 138 0 208 c 0,18,19
 0 294 0 294 75 355 c 128,-1,0
 150 416 150 416 256 416 c 128,-1,1
256 48 m 0,20,21
 342 48 342 48 403 95 c 128,-1,22
 464 142 464 142 464 208 c 128,-1,23
 464 274 464 274 403 321 c 128,-1,24
 342 368 342 368 256 368 c 128,-1,25
 170 368 170 368 109 321 c 128,-1,26
 48 274 48 274 48 208 c 0,27,28
 48 157 48 157 88 115 c 2,29,-1
 108 93 l 1,30,-1
 98 65 l 2,31,32
 90 45 90 45 78 24 c 1,33,34
 108 34 108 34 135 54 c 2,35,-1
 155 67 l 1,36,-1
 178 60 l 2,37,38
 216 48 216 48 256 48 c 0,20,21
EndSplineSet
EndChar

StartChar: folder
Encoding: 61563 61563 19
Width: 512
GlyphClass: 3
Flags: W
LayerCount: 2
Fore
SplineSet
464 320 m 2,0,1
 484 320 484 320 498 306 c 128,-1,2
 512 292 512 292 512 272 c 2,3,-1
 512 48 l 2,4,5
 512 28 512 28 498 14 c 128,-1,6
 484 0 484 0 464 0 c 2,7,-1
 48 0 l 2,8,9
 28 0 28 0 14 14 c 128,-1,10
 0 28 0 28 0 48 c 2,11,-1
 0 336 l 2,12,13
 0 356 0 356 14 370 c 128,-1,14
 28 384 28 384 48 384 c 2,15,-1
 195 384 l 2,16,17
 208 384 208 384 217 375 c 2,18,-1
 272 320 l 1,19,-1
 464 320 l 2,0,1
464 48 m 1,20,-1
 464 272 l 1,21,-1
 265 272 l 2,22,23
 252 272 252 272 243 281 c 2,24,-1
 188 336 l 1,25,-1
 48 336 l 1,26,-1
 48 48 l 1,27,-1
 464 48 l 1,20,-1
EndSplineSet
EndChar

StartChar: folder-open
Encoding: 61564 61564 20
Width: 576
GlyphClass: 3
Flags: W
LayerCount: 2
Fore
SplineSet
528 224 m 2,0,1
 556 224 556 224 570 199.5 c 128,-1,2
 584 175 584 175 569 151 c 2,3,-1
 489 23 l 2,4,5
 475 0 475 0 448 0 c 2,6,-1
 48 0 l 2,7,8
 28 0 28 0 14 14 c 128,-1,9
 0 28 0 28 0 48 c 2,10,-1
 0 336 l 2,11,12
 0 356 0 356 14 370 c 128,-1,13
 28 384 28 384 48 384 c 2,14,-1
 208 384 l 1,15,-1
 272 320 l 1,16,-1
 432 320 l 2,17,18
 452 320 452 320 466 306 c 128,-1,19
 480 292 480 292 480 272 c 2,20,-1
 480 224 l 1,21,-1
 528 224 l 2,0,1
48 330 m 2,22,-1
 48 97 l 1,23,-1
 111 201 l 2,24,25
 125 224 125 224 152 224 c 2,26,-1
 432 224 l 1,27,-1
 432 266 l 2,28,29
 432 272 432 272 426 272 c 2,30,-1
 252 272 l 1,31,-1
 188 336 l 1,32,-1
 54 336 l 2,33,34
 48 336 48 336 48 330 c 2,22,-1
448 48 m 1,35,-1
 528 176 l 1,36,-1
 149 176 l 1,37,-1
 72 48 l 1,38,-1
 448 48 l 1,35,-1
EndSplineSet
EndChar

StartChar: chart-bar
Encoding: 61568 61568 21
Width: 512
GlyphClass: 3
Flags: W
LayerCount: 2
Fore
SplineSet
397 96 m 2,0,1
 392 96 392 96 388 100 c 128,-1,2
 384 104 384 104 384 109 c 2,3,-1
 384 339 l 2,4,5
 384 344 384 344 388 348 c 128,-1,6
 392 352 392 352 397 352 c 2,7,-1
 419 352 l 2,8,9
 424 352 424 352 428 348 c 128,-1,10
 432 344 432 344 432 339 c 2,11,-1
 432 109 l 2,12,13
 432 104 432 104 428 100 c 128,-1,14
 424 96 424 96 419 96 c 2,15,-1
 397 96 l 2,0,1
205 96 m 2,16,17
 200 96 200 96 196 100 c 128,-1,18
 192 104 192 104 192 109 c 2,19,-1
 192 307 l 2,20,21
 192 312 192 312 196 316 c 128,-1,22
 200 320 200 320 205 320 c 2,23,-1
 227 320 l 2,24,25
 232 320 232 320 236 316 c 128,-1,26
 240 312 240 312 240 307 c 2,27,-1
 240 109 l 2,28,29
 240 104 240 104 236 100 c 128,-1,30
 232 96 232 96 227 96 c 2,31,-1
 205 96 l 2,16,17
301 96 m 2,32,33
 296 96 296 96 292 100 c 128,-1,34
 288 104 288 104 288 109 c 2,35,-1
 288 243 l 2,36,37
 288 248 288 248 292 252 c 128,-1,38
 296 256 296 256 301 256 c 2,39,-1
 323 256 l 2,40,41
 328 256 328 256 332 252 c 128,-1,42
 336 248 336 248 336 243 c 2,43,-1
 336 109 l 2,44,45
 336 104 336 104 332 100 c 128,-1,46
 328 96 328 96 323 96 c 2,47,-1
 301 96 l 2,32,33
496 48 m 2,48,49
 503 48 503 48 507.5 43.5 c 128,-1,50
 512 39 512 39 512 32 c 2,51,-1
 512 16 l 2,52,53
 512 9 512 9 507.5 4.5 c 128,-1,54
 503 0 503 0 496 0 c 2,55,-1
 32 0 l 2,56,57
 19 0 19 0 9.5 9.5 c 128,-1,58
 0 19 0 19 0 32 c 2,59,-1
 0 368 l 2,60,61
 0 375 0 375 4.5 379.5 c 128,-1,62
 9 384 9 384 16 384 c 2,63,-1
 32 384 l 2,64,65
 39 384 39 384 43.5 379.5 c 128,-1,66
 48 375 48 375 48 368 c 2,67,-1
 48 48 l 1,68,-1
 496 48 l 2,48,49
109 96 m 2,69,70
 104 96 104 96 100 100 c 128,-1,71
 96 104 96 104 96 109 c 2,72,-1
 96 179 l 2,73,74
 96 184 96 184 100 188 c 128,-1,75
 104 192 104 192 109 192 c 2,76,-1
 131 192 l 2,77,78
 136 192 136 192 140 188 c 128,-1,79
 144 184 144 184 144 179 c 2,80,-1
 144 109 l 2,81,82
 144 104 144 104 140 100 c 128,-1,83
 136 96 136 96 131 96 c 2,84,-1
 109 96 l 2,69,70
EndSplineSet
EndChar

StartChar: comments
Encoding: 61574 61574 22
Width: 576
GlyphClass: 3
Flags: W
LayerCount: 2
Fore
SplineSet
532 62 m 1,0,1
 539 48 539 48 548.5 34.5 c 128,-1,2
 558 21 558 21 563.5 14.5 c 128,-1,3
 569 8 569 8 570 7 c 0,4,5
 580 -4 580 -4 574 -18 c 128,-1,6
 568 -32 568 -32 553 -32 c 0,7,8
 488 -32 488 -32 428 7 c 1,9,10
 398 0 398 0 368 0 c 0,11,12
 304 0 304 0 252.5 27 c 128,-1,13
 201 54 201 54 177 98 c 1,14,15
 162 100 162 100 148 103 c 1,16,17
 89 64 89 64 23 64 c 0,18,19
 8 64 8 64 2 78 c 128,-1,20
 -4 92 -4 92 6 103 c 0,21,22
 27 123 27 123 44 158 c 1,23,24
 0 201 0 201 0 256 c 0,25,26
 0 322 0 322 61 369 c 128,-1,27
 122 416 122 416 208 416 c 0,28,29
 272 416 272 416 324 389 c 128,-1,30
 376 362 376 362 400 318 c 1,31,32
 475 309 475 309 525.5 264.5 c 128,-1,33
 576 220 576 220 576 160 c 0,34,35
 576 105 576 105 532 62 c 1,0,1
139 154 m 1,36,-1
 159 150 l 2,37,38
 183 144 183 144 208 144 c 0,39,40
 273 144 273 144 320.5 177 c 128,-1,41
 368 210 368 210 368 256 c 128,-1,42
 368 302 368 302 320.5 335 c 128,-1,43
 273 368 273 368 208 368 c 128,-1,44
 143 368 143 368 95.5 335 c 128,-1,45
 48 302 48 302 48 256 c 0,46,47
 48 221 48 221 78 192 c 2,48,-1
 102 168 l 1,49,-1
 87 136 l 2,50,51
 83 129 83 129 79 122 c 1,52,53
 101 129 101 129 122 143 c 2,54,-1
 139 154 l 1,36,-1
498 96 m 2,55,56
 528 125 528 125 528 160 c 0,57,58
 528 196 528 196 496 225.5 c 128,-1,59
 464 255 464 255 415 266 c 1,60,61
 416 258 416 258 416 256 c 0,62,63
 416 216 416 216 392.5 181.5 c 128,-1,64
 369 147 369 147 328 125 c 128,-1,65
 287 103 287 103 237 98 c 1,66,67
 286 48 286 48 368 48 c 0,68,69
 393 48 393 48 417 54 c 2,70,-1
 437 58 l 1,71,-1
 454 47 l 2,72,73
 475 33 475 33 497 26 c 1,74,75
 493 33 493 33 489 40 c 2,76,-1
 474 72 l 1,77,-1
 498 96 l 2,55,56
EndSplineSet
EndChar

StartChar: star-half
Encoding: 61577 61577 23
Width: 576
GlyphClass: 3
Flags: W
LayerCount: 2
Fore
SplineSet
288 63 m 1,0,-1
 288 8 l 1,1,-1
 157 -60 l 2,2,3
 140 -69 140 -69 124 -57.5 c 128,-1,4
 108 -46 108 -46 111 -26 c 2,5,-1
 136 119 l 1,6,-1
 30 222 l 2,7,8
 16 236 16 236 22 255 c 128,-1,9
 28 274 28 274 48 277 c 2,10,-1
 194 298 l 1,11,-1
 259 430 l 2,12,13
 268 448 268 448 288 448 c 1,14,-1
 288 380 l 1,15,-1
 226 254 l 1,16,-1
 87 234 l 1,17,-1
 187 136 l 1,18,-1
 164 -3 l 1,19,-1
 288 63 l 1,0,-1
EndSplineSet
EndChar

StartChar: lemon
Encoding: 61588 61588 24
Width: 512
GlyphClass: 3
Flags: W
LayerCount: 2
Fore
SplineSet
484 420 m 128,-1,1
 505 399 505 399 510.5 372 c 128,-1,2
 516 345 516 345 503 323 c 0,3,4
 499 315 499 315 498 296.5 c 128,-1,5
 497 278 497 278 501 258 c 128,-1,6
 505 238 505 238 503 210 c 128,-1,7
 501 182 501 182 496 154 c 128,-1,8
 491 126 491 126 471.5 92 c 128,-1,9
 452 58 452 58 421 27 c 128,-1,10
 390 -4 390 -4 356 -23 c 128,-1,11
 322 -42 322 -42 294 -47.5 c 128,-1,12
 266 -53 266 -53 238 -55 c 128,-1,13
 210 -57 210 -57 190 -53 c 128,-1,14
 170 -49 170 -49 151.5 -50 c 128,-1,15
 133 -51 133 -51 125 -55 c 0,16,17
 103 -68 103 -68 76 -62.5 c 128,-1,18
 49 -57 49 -57 28 -36 c 128,-1,19
 7 -15 7 -15 1.5 12 c 128,-1,20
 -4 39 -4 39 9 61 c 0,21,22
 13 69 13 69 14 87.5 c 128,-1,23
 15 106 15 106 11 126 c 128,-1,24
 7 146 7 146 9 174 c 128,-1,25
 11 202 11 202 16 230 c 128,-1,26
 21 258 21 258 40.5 292 c 128,-1,27
 60 326 60 326 91 357 c 128,-1,28
 122 388 122 388 156 407 c 128,-1,29
 190 426 190 426 218 431.5 c 128,-1,30
 246 437 246 437 274 439 c 128,-1,31
 302 441 302 441 322 437 c 128,-1,32
 342 433 342 433 360.5 434 c 128,-1,33
 379 435 379 435 387 439 c 0,34,35
 409 452 409 452 436 446.5 c 128,-1,0
 463 441 463 441 484 420 c 128,-1,1
462 347 m 0,36,37
 472 365 472 365 450 386.5 c 128,-1,38
 428 408 428 408 411 398 c 0,39,40
 394 387 394 387 368.5 386.5 c 128,-1,41
 343 386 343 386 316 389 c 128,-1,42
 289 392 289 392 259 390.5 c 128,-1,43
 229 389 229 389 194 373 c 128,-1,44
 159 357 159 357 125 323 c 128,-1,45
 91 289 91 289 75 254 c 128,-1,46
 59 219 59 219 57.5 189 c 128,-1,47
 56 159 56 159 59 132 c 128,-1,48
 62 105 62 105 61.5 79.5 c 128,-1,49
 61 54 61 54 50 37 c 0,50,51
 40 19 40 19 62 -2.5 c 128,-1,52
 84 -24 84 -24 101 -14 c 0,53,54
 116 -5 116 -5 137 -3 c 128,-1,55
 158 -1 158 -1 178 -4 c 128,-1,56
 198 -7 198 -7 223.5 -7 c 128,-1,57
 249 -7 249 -7 274 -3.5 c 128,-1,58
 299 0 299 0 328.5 16.5 c 128,-1,59
 358 33 358 33 387 61 c 0,60,61
 421 95 421 95 437 130 c 128,-1,62
 453 165 453 165 454.5 195 c 128,-1,63
 456 225 456 225 453 252 c 128,-1,64
 450 279 450 279 450.5 304.5 c 128,-1,65
 451 330 451 330 462 347 c 0,36,37
292 338.5 m 128,-1,67
 293 330 293 330 288 323.5 c 128,-1,68
 283 317 283 317 274 316 c 0,69,70
 233 311 233 311 185 263 c 128,-1,71
 137 215 137 215 132 174 c 0,72,73
 131 165 131 165 124.5 160 c 128,-1,74
 118 155 118 155 109.5 156 c 128,-1,75
 101 157 101 157 96 163.5 c 128,-1,76
 91 170 91 170 92 178 c 0,77,78
 99 233 99 233 157 291 c 128,-1,79
 215 349 215 349 270 356 c 0,80,81
 278 357 278 357 284.5 352 c 128,-1,66
 291 347 291 347 292 338.5 c 128,-1,67
EndSplineSet
EndChar

StartChar: credit-card
Encoding: 61597 61597 25
Width: 576
GlyphClass: 3
Flags: W
LayerCount: 2
Fore
SplineSet
528 416 m 2,0,1
 541 416 541 416 552 409.5 c 128,-1,2
 563 403 563 403 569.5 392 c 128,-1,3
 576 381 576 381 576 368 c 2,4,-1
 576 16 l 2,5,6
 576 -4 576 -4 562 -18 c 128,-1,7
 548 -32 548 -32 528 -32 c 2,8,-1
 48 -32 l 2,9,10
 28 -32 28 -32 14 -18 c 128,-1,11
 0 -4 0 -4 0 16 c 2,12,-1
 0 368 l 2,13,14
 0 388 0 388 14 402 c 128,-1,15
 28 416 28 416 48 416 c 2,16,-1
 528 416 l 2,0,1
54 368 m 2,17,18
 48 368 48 368 48 362 c 2,19,-1
 48 320 l 1,20,-1
 528 320 l 1,21,-1
 528 362 l 2,22,23
 528 368 528 368 522 368 c 2,24,-1
 54 368 l 2,17,18
522 16 m 2,25,26
 528 16 528 16 528 22 c 2,27,-1
 528 192 l 1,28,-1
 48 192 l 1,29,-1
 48 22 l 2,30,31
 48 16 48 16 54 16 c 2,32,-1
 522 16 l 2,25,26
192 116 m 2,33,-1
 192 76 l 2,34,35
 192 64 192 64 180 64 c 2,36,-1
 108 64 l 2,37,38
 96 64 96 64 96 76 c 2,39,-1
 96 116 l 2,40,41
 96 128 96 128 108 128 c 2,42,-1
 180 128 l 2,43,44
 192 128 192 128 192 116 c 2,33,-1
384 116 m 2,45,-1
 384 76 l 2,46,47
 384 64 384 64 372 64 c 2,48,-1
 236 64 l 2,49,50
 224 64 224 64 224 76 c 2,51,-1
 224 116 l 2,52,53
 224 128 224 128 236 128 c 2,54,-1
 372 128 l 2,55,56
 384 128 384 128 384 116 c 2,45,-1
EndSplineSet
EndChar

StartChar: hdd
Encoding: 61600 61600 26
Width: 576
GlyphClass: 3
Flags: W
LayerCount: 2
Fore
SplineSet
567 212 m 2,0,1
 576 200 576 200 576 185 c 2,2,-1
 576 48 l 2,3,4
 576 28 576 28 562 14 c 128,-1,5
 548 0 548 0 528 0 c 2,6,-1
 48 0 l 2,7,8
 28 0 28 0 14 14 c 128,-1,9
 0 28 0 28 0 48 c 2,10,-1
 0 185 l 2,11,12
 0 200 0 200 9 212 c 2,13,-1
 114 363 l 2,14,15
 120 372 120 372 131.5 378 c 128,-1,16
 143 384 143 384 153 384 c 2,17,-1
 423 384 l 2,18,19
 433 384 433 384 444.5 378 c 128,-1,20
 456 372 456 372 462 363 c 2,21,-1
 567 212 l 2,0,1
153 336 m 1,22,-1
 75 224 l 1,23,-1
 501 224 l 1,24,-1
 423 336 l 1,25,-1
 153 336 l 1,22,-1
528 48 m 1,26,-1
 528 176 l 1,27,-1
 48 176 l 1,28,-1
 48 48 l 1,29,-1
 528 48 l 1,26,-1
496 112 m 128,-1,31
 496 99 496 99 486.5 89.5 c 128,-1,32
 477 80 477 80 464 80 c 128,-1,33
 451 80 451 80 441.5 89.5 c 128,-1,34
 432 99 432 99 432 112 c 128,-1,35
 432 125 432 125 441.5 134.5 c 128,-1,36
 451 144 451 144 464 144 c 128,-1,37
 477 144 477 144 486.5 134.5 c 128,-1,30
 496 125 496 125 496 112 c 128,-1,31
400 112 m 128,-1,39
 400 99 400 99 390.5 89.5 c 128,-1,40
 381 80 381 80 368 80 c 128,-1,41
 355 80 355 80 345.5 89.5 c 128,-1,42
 336 99 336 99 336 112 c 128,-1,43
 336 125 336 125 345.5 134.5 c 128,-1,44
 355 144 355 144 368 144 c 128,-1,45
 381 144 381 144 390.5 134.5 c 128,-1,38
 400 125 400 125 400 112 c 128,-1,39
EndSplineSet
EndChar

StartChar: hand-point-right
Encoding: 61604 61604 27
Width: 512
GlyphClass: 3
Flags: W
LayerCount: 2
Fore
SplineSet
429 310 m 2,0,1
 463 310 463 310 487.5 285.5 c 128,-1,2
 512 261 512 261 512 227 c 0,3,4
 512 210 512 210 505.5 195 c 128,-1,5
 499 180 499 180 487.5 168.5 c 128,-1,6
 476 157 476 157 461 150.5 c 128,-1,7
 446 144 446 144 429 144 c 2,8,-1
 393 144 l 1,9,10
 391 132 391 132 385 122 c 1,11,12
 389 88 389 88 369 59 c 1,13,14
 368 19 368 19 341.5 -6.5 c 128,-1,15
 315 -32 315 -32 269 -32 c 2,16,-1
 248 -32 l 2,17,18
 214 -32 214 -32 172.5 -12 c 128,-1,19
 131 8 131 8 121 8 c 2,20,-1
 118 8 l 1,21,22
 109 0 109 0 96 0 c 2,23,-1
 32 0 l 2,24,25
 19 0 19 0 9.5 8.5 c 128,-1,26
 0 17 0 17 0 29 c 2,27,-1
 0 259 l 2,28,29
 0 271 0 271 9.5 279.5 c 128,-1,30
 19 288 19 288 32 288 c 2,31,-1
 96 288 l 2,32,33
 109 288 109 288 118 280 c 1,34,-1
 121 280 l 2,35,36
 130 280 130 280 151 304 c 1,37,-1
 151 304 l 1,38,39
 168 323 168 323 177 337 c 0,40,41
 181 343 181 343 190 361 c 128,-1,42
 199 379 199 379 205 388.5 c 128,-1,43
 211 398 211 398 224 407 c 128,-1,44
 237 416 237 416 253 416 c 0,45,46
 295 416 295 416 320 392.5 c 128,-1,47
 345 369 345 369 345 333 c 0,48,49
 345 321 345 321 343 310 c 1,50,-1
 429 310 l 2,0,1
429 192 m 2,51,52
 443 192 443 192 453.5 202.5 c 128,-1,53
 464 213 464 213 464 227 c 256,54,55
 464 241 464 241 453.5 251.5 c 128,-1,56
 443 262 443 262 429 262 c 2,57,-1
 270 262 l 1,58,59
 270 269 270 269 283.5 291 c 128,-1,60
 297 313 297 313 297 333 c 0,61,62
 297 368 297 368 253 368 c 0,63,64
 249 368 249 368 244 359.5 c 128,-1,65
 239 351 239 351 231 335.5 c 128,-1,66
 223 320 223 320 218 312 c 0,67,68
 207 294 207 294 187 272 c 0,69,70
 155 236 155 236 128 232 c 1,71,-1
 128 56 l 1,72,73
 145 54 145 54 166 44 c 128,-1,74
 187 34 187 34 208 25 c 128,-1,75
 229 16 229 16 248 16 c 2,76,-1
 269 16 l 2,77,78
 330 16 330 16 320 77 c 1,79,80
 332 84 332 84 336.5 100 c 128,-1,81
 341 116 341 116 333 131 c 1,82,83
 347 144 347 144 347.5 163 c 128,-1,84
 348 182 348 182 338 192 c 1,85,-1
 429 192 l 2,51,52
88 64 m 128,-1,87
 88 74 88 74 81 81 c 128,-1,88
 74 88 74 88 64 88 c 128,-1,89
 54 88 54 88 47 81 c 128,-1,90
 40 74 40 74 40 64 c 128,-1,91
 40 54 40 54 47 47 c 128,-1,92
 54 40 54 40 64 40 c 128,-1,93
 74 40 74 40 81 47 c 128,-1,86
 88 54 88 54 88 64 c 128,-1,87
EndSplineSet
EndChar

StartChar: hand-point-left
Encoding: 61605 61605 28
Width: 512
GlyphClass: 3
Flags: W
LayerCount: 2
Fore
SplineSet
0 227 m 256,0,1
 0 261 0 261 24.5 285.5 c 128,-1,2
 49 310 49 310 83 310 c 2,3,-1
 169 310 l 1,4,5
 167 321 167 321 167 333 c 0,6,7
 167 369 167 369 192 392.5 c 128,-1,8
 217 416 217 416 259 416 c 0,9,10
 275 416 275 416 288 407 c 128,-1,11
 301 398 301 398 307 388.5 c 128,-1,12
 313 379 313 379 322 361 c 128,-1,13
 331 343 331 343 335 337 c 0,14,15
 344 323 344 323 361 304 c 1,16,-1
 361 304 l 1,17,18
 382 280 382 280 391 280 c 2,19,-1
 394 280 l 1,20,21
 403 288 403 288 416 288 c 2,22,-1
 480 288 l 2,23,24
 487 288 487 288 492.5 285.5 c 128,-1,25
 498 283 498 283 502.5 279.5 c 128,-1,26
 507 276 507 276 509.5 270.5 c 128,-1,27
 512 265 512 265 512 259 c 2,28,-1
 512 29 l 2,29,30
 512 17 512 17 502.5 8.5 c 128,-1,31
 493 0 493 0 480 0 c 2,32,-1
 416 0 l 2,33,34
 403 0 403 0 394 8 c 1,35,-1
 391 8 l 2,36,37
 381 8 381 8 339.5 -12 c 128,-1,38
 298 -32 298 -32 264 -32 c 2,39,-1
 243 -32 l 2,40,41
 197 -32 197 -32 170.5 -6.5 c 128,-1,42
 144 19 144 19 143 59 c 1,43,44
 123 88 123 88 127 122 c 1,45,46
 121 132 121 132 119 144 c 1,47,-1
 83 144 l 2,48,49
 49 144 49 144 24.5 168.5 c 128,-1,50
 0 193 0 193 0 227 c 256,0,1
48 227 m 0,51,52
 48 213 48 213 58.5 202.5 c 128,-1,53
 69 192 69 192 83 192 c 2,54,-1
 174 192 l 1,55,56
 164 182 164 182 164.5 163 c 128,-1,57
 165 144 165 144 179 131 c 1,58,59
 171 116 171 116 175.5 100 c 128,-1,60
 180 84 180 84 192 77 c 1,61,62
 182 16 182 16 243 16 c 2,63,-1
 264 16 l 2,64,65
 288 16 288 16 326 35 c 128,-1,66
 364 54 364 54 384 56 c 1,67,-1
 384 232 l 1,68,69
 357 236 357 236 325 272 c 0,70,71
 305 294 305 294 294 312 c 0,72,73
 289 320 289 320 281 335.5 c 128,-1,74
 273 351 273 351 268 359.5 c 128,-1,75
 263 368 263 368 259 368 c 0,76,77
 215 368 215 368 215 333 c 0,78,79
 215 313 215 313 228.5 291 c 128,-1,80
 242 269 242 269 242 262 c 1,81,-1
 83 262 l 2,82,83
 76 262 76 262 69.5 259.5 c 128,-1,84
 63 257 63 257 58.5 252 c 128,-1,85
 54 247 54 247 51 240.5 c 128,-1,86
 48 234 48 234 48 227 c 0,51,52
448 88 m 128,-1,88
 438 88 438 88 431 81 c 128,-1,89
 424 74 424 74 424 64 c 128,-1,90
 424 54 424 54 431 47 c 128,-1,91
 438 40 438 40 448 40 c 128,-1,92
 458 40 458 40 465 47 c 128,-1,93
 472 54 472 54 472 64 c 128,-1,94
 472 74 472 74 465 81 c 128,-1,87
 458 88 458 88 448 88 c 128,-1,88
EndSplineSet
EndChar

StartChar: hand-point-up
Encoding: 61606 61606 29
Width: 448
GlyphClass: 3
Flags: W
LayerCount: 2
Fore
SplineSet
106 365 m 2,0,1
 106 399 106 399 130.5 423.5 c 128,-1,2
 155 448 155 448 189 448 c 0,3,4
 211 448 211 448 230.5 437 c 128,-1,5
 250 426 250 426 261 406.5 c 128,-1,6
 272 387 272 387 272 365 c 2,7,-1
 272 329 l 1,8,9
 284 327 284 327 294 321 c 1,10,11
 328 325 328 325 357 305 c 1,12,13
 397 304 397 304 422.5 277.5 c 128,-1,14
 448 251 448 251 448 205 c 2,15,-1
 448 184 l 2,16,17
 448 150 448 150 428 108.5 c 128,-1,18
 408 67 408 67 408 57 c 2,19,-1
 408 54 l 1,20,21
 416 45 416 45 416 32 c 2,22,-1
 416 -32 l 2,23,24
 416 -41 416 -41 412 -48 c 128,-1,25
 408 -55 408 -55 401.5 -59.5 c 128,-1,26
 395 -64 395 -64 387 -64 c 2,27,-1
 157 -64 l 2,28,29
 145 -64 145 -64 136.5 -54.5 c 128,-1,30
 128 -45 128 -45 128 -32 c 2,31,-1
 128 32 l 2,32,33
 128 45 128 45 136 54 c 1,34,-1
 136 57 l 2,35,36
 136 66 136 66 112 87 c 1,37,-1
 112 87 l 1,38,39
 93 104 93 104 79 113 c 0,40,41
 72 117 72 117 59 123.5 c 128,-1,42
 46 130 46 130 37.5 135 c 128,-1,43
 29 140 29 140 19.5 147.5 c 128,-1,44
 10 155 10 155 5 165.5 c 128,-1,45
 0 176 0 176 0 189 c 0,46,47
 0 231 0 231 23.5 256 c 128,-1,48
 47 281 47 281 83 281 c 0,49,50
 95 281 95 281 106 279 c 1,51,-1
 106 365 l 2,0,1
224 365 m 2,52,53
 224 379 224 379 213.5 389.5 c 128,-1,54
 203 400 203 400 189 400 c 256,55,56
 175 400 175 400 164.5 389.5 c 128,-1,57
 154 379 154 379 154 365 c 2,58,-1
 154 206 l 1,59,60
 147 206 147 206 125 219.5 c 128,-1,61
 103 233 103 233 83 233 c 0,62,63
 48 233 48 233 48 189 c 0,64,65
 48 185 48 185 56.5 180 c 128,-1,66
 65 175 65 175 80.5 167 c 128,-1,67
 96 159 96 159 104 154 c 0,68,69
 122 143 122 143 144 123 c 0,70,71
 180 91 180 91 184 64 c 1,72,-1
 360 64 l 1,73,74
 362 84 362 84 381 122 c 128,-1,75
 400 160 400 160 400 184 c 2,76,-1
 400 205 l 2,77,78
 400 266 400 266 339 256 c 1,79,80
 332 268 332 268 316 272.5 c 128,-1,81
 300 277 300 277 285 269 c 1,82,83
 272 283 272 283 253 283.5 c 128,-1,84
 234 284 234 284 224 274 c 1,85,-1
 224 365 l 2,52,53
352 24 m 128,-1,87
 342 24 342 24 335 17 c 128,-1,88
 328 10 328 10 328 0 c 128,-1,89
 328 -10 328 -10 335 -17 c 128,-1,90
 342 -24 342 -24 352 -24 c 128,-1,91
 362 -24 362 -24 369 -17 c 128,-1,92
 376 -10 376 -10 376 0 c 128,-1,93
 376 10 376 10 369 17 c 128,-1,86
 362 24 362 24 352 24 c 128,-1,87
EndSplineSet
EndChar

StartChar: hand-point-down
Encoding: 61607 61607 30
Width: 448
GlyphClass: 3
Flags: W
LayerCount: 2
Fore
SplineSet
189 -64 m 256,0,1
 155 -64 155 -64 130.5 -39.5 c 128,-1,2
 106 -15 106 -15 106 19 c 2,3,-1
 106 105 l 1,4,5
 95 103 95 103 83 103 c 0,6,7
 47 103 47 103 23.5 128 c 128,-1,8
 0 153 0 153 0 195 c 0,9,10
 0 208 0 208 5 218.5 c 128,-1,11
 10 229 10 229 19.5 236.5 c 128,-1,12
 29 244 29 244 37.5 249 c 128,-1,13
 46 254 46 254 59 260.5 c 128,-1,14
 72 267 72 267 79 271 c 0,15,16
 93 280 93 280 112 297 c 1,17,-1
 112 297 l 1,18,19
 136 318 136 318 136 327 c 2,20,-1
 136 330 l 1,21,22
 128 339 128 339 128 352 c 2,23,-1
 128 416 l 2,24,25
 128 429 128 429 136.5 438.5 c 128,-1,26
 145 448 145 448 157 448 c 2,27,-1
 387 448 l 2,28,29
 399 448 399 448 407.5 438.5 c 128,-1,30
 416 429 416 429 416 416 c 2,31,-1
 416 352 l 2,32,33
 416 339 416 339 408 330 c 1,34,-1
 408 327 l 2,35,36
 408 317 408 317 428 275.5 c 128,-1,37
 448 234 448 234 448 200 c 2,38,-1
 448 179 l 2,39,40
 448 133 448 133 422.5 106.5 c 128,-1,41
 397 80 397 80 357 79 c 1,42,43
 328 59 328 59 294 63 c 1,44,45
 284 57 284 57 272 55 c 1,46,-1
 272 19 l 2,47,48
 272 -15 272 -15 247.5 -39.5 c 128,-1,49
 223 -64 223 -64 189 -64 c 256,0,1
189 -16 m 256,50,51
 203 -16 203 -16 213.5 -5.5 c 128,-1,52
 224 5 224 5 224 19 c 2,53,-1
 224 110 l 1,54,55
 234 100 234 100 253 100.5 c 128,-1,56
 272 101 272 101 285 115 c 1,57,58
 300 107 300 107 316 111.5 c 128,-1,59
 332 116 332 116 339 128 c 1,60,61
 400 118 400 118 400 179 c 2,62,-1
 400 200 l 2,63,64
 400 224 400 224 381 262 c 128,-1,65
 362 300 362 300 360 320 c 1,66,-1
 184 320 l 1,67,68
 180 293 180 293 144 261 c 0,69,70
 122 241 122 241 104 230 c 0,71,72
 96 225 96 225 80.5 217 c 128,-1,73
 65 209 65 209 56.5 204 c 128,-1,74
 48 199 48 199 48 195 c 0,75,76
 48 151 48 151 83 151 c 0,77,78
 103 151 103 151 125 164.5 c 128,-1,79
 147 178 147 178 154 178 c 1,80,-1
 154 19 l 2,81,82
 154 5 154 5 164.5 -5.5 c 128,-1,83
 175 -16 175 -16 189 -16 c 256,50,51
328 384 m 128,-1,85
 328 374 328 374 335 367 c 128,-1,86
 342 360 342 360 352 360 c 128,-1,87
 362 360 362 360 369 367 c 128,-1,88
 376 374 376 374 376 384 c 128,-1,89
 376 394 376 394 369 401 c 128,-1,90
 362 408 362 408 352 408 c 128,-1,91
 342 408 342 408 335 401 c 128,-1,84
 328 394 328 394 328 384 c 128,-1,85
EndSplineSet
EndChar

StartChar: copy
Encoding: 61637 61637 31
Width: 448
GlyphClass: 3
Flags: W
LayerCount: 2
Fore
SplineSet
434 382 m 2,0,1
 448 368 448 368 448 348 c 2,2,-1
 448 80 l 2,3,4
 448 60 448 60 434 46 c 128,-1,5
 420 32 420 32 400 32 c 2,6,-1
 320 32 l 1,7,-1
 320 -16 l 2,8,9
 320 -36 320 -36 306 -50 c 128,-1,10
 292 -64 292 -64 272 -64 c 2,11,-1
 48 -64 l 2,12,13
 28 -64 28 -64 14 -50 c 128,-1,14
 0 -36 0 -36 0 -16 c 2,15,-1
 0 304 l 2,16,17
 0 324 0 324 14 338 c 128,-1,18
 28 352 28 352 48 352 c 2,19,-1
 128 352 l 1,20,-1
 128 400 l 2,21,22
 128 420 128 420 142 434 c 128,-1,23
 156 448 156 448 176 448 c 2,24,-1
 348 448 l 2,25,26
 368 448 368 448 382 434 c 2,27,-1
 434 382 l 2,0,1
266 -16 m 2,28,29
 272 -16 272 -16 272 -10 c 2,30,-1
 272 32 l 1,31,-1
 176 32 l 2,32,33
 156 32 156 32 142 46 c 128,-1,34
 128 60 128 60 128 80 c 2,35,-1
 128 304 l 1,36,-1
 54 304 l 2,37,38
 48 304 48 304 48 298 c 2,39,-1
 48 -10 l 2,40,41
 48 -16 48 -16 54 -16 c 2,42,-1
 266 -16 l 2,28,29
394 80 m 2,43,44
 400 80 400 80 400 86 c 2,45,-1
 400 288 l 1,46,-1
 312 288 l 2,47,48
 302 288 302 288 295 295 c 128,-1,49
 288 302 288 302 288 312 c 2,50,-1
 288 400 l 1,51,-1
 182 400 l 2,52,53
 176 400 176 400 176 394 c 2,54,-1
 176 86 l 2,55,56
 176 80 176 80 182 80 c 2,57,-1
 394 80 l 2,43,44
400 336 m 1,58,-1
 400 346 l 2,59,60
 400 348 400 348 398 350 c 2,61,-1
 350 398 l 2,62,63
 348 400 348 400 346 400 c 2,64,-1
 336 400 l 1,65,-1
 336 336 l 1,66,-1
 400 336 l 1,58,-1
EndSplineSet
EndChar

StartChar: save
Encoding: 61639 61639 32
Width: 448
GlyphClass: 3
Flags: W
LayerCount: 2
Fore
SplineSet
434 318 m 2,0,1
 448 304 448 304 448 284 c 2,2,-1
 448 16 l 2,3,4
 448 -4 448 -4 434 -18 c 128,-1,5
 420 -32 420 -32 400 -32 c 2,6,-1
 48 -32 l 2,7,8
 28 -32 28 -32 14 -18 c 128,-1,9
 0 -4 0 -4 0 16 c 2,10,-1
 0 368 l 2,11,12
 0 388 0 388 14 402 c 128,-1,13
 28 416 28 416 48 416 c 2,14,-1
 316 416 l 2,15,16
 336 416 336 416 350 402 c 2,17,-1
 434 318 l 2,0,1
272 368 m 1,18,-1
 144 368 l 1,19,-1
 144 288 l 1,20,-1
 272 288 l 1,21,-1
 272 368 l 1,18,-1
394 16 m 2,22,23
 400 16 400 16 400 22 c 2,24,-1
 400 282 l 2,25,26
 400 284 400 284 398 286 c 2,27,-1
 320 364 l 1,28,-1
 320 264 l 2,29,30
 320 254 320 254 313 247 c 128,-1,31
 306 240 306 240 296 240 c 2,32,-1
 120 240 l 2,33,34
 110 240 110 240 103 247 c 128,-1,35
 96 254 96 254 96 264 c 2,36,-1
 96 368 l 1,37,-1
 54 368 l 2,38,39
 48 368 48 368 48 362 c 2,40,-1
 48 22 l 2,41,42
 48 16 48 16 54 16 c 2,43,-1
 394 16 l 2,22,23
224 216 m 128,-1,45
 260 216 260 216 286 190 c 128,-1,46
 312 164 312 164 312 128 c 128,-1,47
 312 92 312 92 286 66 c 128,-1,48
 260 40 260 40 224 40 c 128,-1,49
 188 40 188 40 162 66 c 128,-1,50
 136 92 136 92 136 128 c 128,-1,51
 136 164 136 164 162 190 c 128,-1,44
 188 216 188 216 224 216 c 128,-1,45
224 88 m 128,-1,53
 241 88 241 88 252.5 99.5 c 128,-1,54
 264 111 264 111 264 128 c 128,-1,55
 264 145 264 145 252.5 156.5 c 128,-1,56
 241 168 241 168 224 168 c 128,-1,57
 207 168 207 168 195.5 156.5 c 128,-1,58
 184 145 184 145 184 128 c 128,-1,59
 184 111 184 111 195.5 99.5 c 128,-1,52
 207 88 207 88 224 88 c 128,-1,53
EndSplineSet
EndChar

StartChar: square
Encoding: 61640 61640 33
Width: 448
GlyphClass: 3
Flags: W
LayerCount: 2
Fore
SplineSet
400 416 m 2,0,1
 420 416 420 416 434 402 c 128,-1,2
 448 388 448 388 448 368 c 2,3,-1
 448 16 l 2,4,5
 448 -4 448 -4 434 -18 c 128,-1,6
 420 -32 420 -32 400 -32 c 2,7,-1
 48 -32 l 2,8,9
 28 -32 28 -32 14 -18 c 128,-1,10
 0 -4 0 -4 0 16 c 2,11,-1
 0 368 l 2,12,13
 0 388 0 388 14 402 c 128,-1,14
 28 416 28 416 48 416 c 2,15,-1
 400 416 l 2,0,1
394 16 m 2,16,17
 400 16 400 16 400 22 c 2,18,-1
 400 362 l 2,19,20
 400 368 400 368 394 368 c 2,21,-1
 54 368 l 2,22,23
 48 368 48 368 48 362 c 2,24,-1
 48 22 l 2,25,26
 48 16 48 16 54 16 c 2,27,-1
 394 16 l 2,16,17
EndSplineSet
EndChar

StartChar: envelope
Encoding: 61664 61664 34
Width: 512
GlyphClass: 3
Flags: W
LayerCount: 2
Fore
SplineSet
464 384 m 2,0,1
 484 384 484 384 498 370 c 128,-1,2
 512 356 512 356 512 336 c 2,3,-1
 512 48 l 2,4,5
 512 28 512 28 498 14 c 128,-1,6
 484 0 484 0 464 0 c 2,7,-1
 48 0 l 2,8,9
 28 0 28 0 14 14 c 128,-1,10
 0 28 0 28 0 48 c 2,11,-1
 0 336 l 2,12,13
 0 356 0 356 14 370 c 128,-1,14
 28 384 28 384 48 384 c 2,15,-1
 464 384 l 2,0,1
464 336 m 1,16,-1
 48 336 l 1,17,-1
 48 295 l 1,18,19
 83 267 83 267 183 189 c 0,20,21
 183 188 183 188 197 176.5 c 128,-1,22
 211 165 211 165 218 160.5 c 128,-1,23
 225 156 225 156 236.5 150 c 128,-1,24
 248 144 248 144 256 144 c 256,25,26
 264 144 264 144 275.5 150 c 128,-1,27
 287 156 287 156 294 160.5 c 128,-1,28
 301 165 301 165 315 176.5 c 128,-1,29
 329 188 329 188 329 189 c 0,30,31
 429 267 429 267 464 295 c 1,32,-1
 464 336 l 1,16,-1
48 48 m 1,33,-1
 464 48 l 1,34,-1
 464 234 l 1,35,36
 429 206 429 206 359 151 c 0,37,38
 357 150 357 150 344.5 139 c 128,-1,39
 332 128 332 128 325 123 c 128,-1,40
 318 118 318 118 305 110.5 c 128,-1,41
 292 103 292 103 280 99.5 c 128,-1,42
 268 96 268 96 256 96 c 128,-1,43
 244 96 244 96 231.5 99.5 c 128,-1,44
 219 103 219 103 206.5 111 c 128,-1,45
 194 119 194 119 187 124 c 128,-1,46
 180 129 180 129 167.5 139.5 c 128,-1,47
 155 150 155 150 153 151 c 0,48,49
 83 206 83 206 48 234 c 1,50,-1
 48 48 l 1,33,-1
EndSplineSet
EndChar

StartChar: lightbulb
Encoding: 61675 61675 35
Width: 352
GlyphClass: 3
Flags: W
LayerCount: 2
Fore
SplineSet
176 368 m 0,0,1
 183 368 183 368 187.5 363.5 c 128,-1,2
 192 359 192 359 192 352 c 128,-1,3
 192 345 192 345 187.5 340.5 c 128,-1,4
 183 336 183 336 176 336 c 0,5,6
 150 336 150 336 131 317 c 128,-1,7
 112 298 112 298 112 272 c 0,8,9
 112 265 112 265 107.5 260.5 c 128,-1,10
 103 256 103 256 96 256 c 128,-1,11
 89 256 89 256 84.5 260.5 c 128,-1,12
 80 265 80 265 80 272 c 0,13,14
 80 312 80 312 108 340 c 128,-1,15
 136 368 136 368 176 368 c 0,0,1
96 -11 m 2,16,-1
 96 32 l 1,17,-1
 256 32 l 1,18,-1
 256 -11 l 2,19,20
 256 -16 256 -16 253 -20 c 2,21,-1
 229 -57 l 2,22,23
 224 -64 224 -64 215 -64 c 2,24,-1
 137 -64 l 2,25,26
 128 -64 128 -64 123 -57 c 2,27,-1
 99 -20 l 2,28,29
 96 -16 96 -16 96 -11 c 2,16,-1
176 448 m 0,30,31
 249 448 249 448 300.5 396.5 c 128,-1,32
 352 345 352 345 352 272 c 0,33,34
 352 206 352 206 308 156 c 0,35,36
 294 140 294 140 278.5 113.5 c 128,-1,37
 263 87 263 87 256 64 c 1,38,-1
 208 64 l 1,39,40
 208 71 208 71 210 78 c 0,41,42
 229 139 229 139 272 188 c 0,43,44
 304 224 304 224 304 272 c 0,45,46
 304 325 304 325 266.5 362.5 c 128,-1,47
 229 400 229 400 176 400 c 0,48,49
 124 400 124 400 86 363 c 128,-1,50
 48 326 48 326 48 272 c 0,51,52
 48 224 48 224 80 188 c 0,53,54
 123 139 123 139 142 78 c 0,55,56
 144 71 144 71 144 64 c 1,57,-1
 96 64 l 1,58,59
 91 80 91 80 81.5 98.5 c 128,-1,60
 72 117 72 117 62 131.5 c 128,-1,61
 52 146 52 146 44 156 c 0,62,63
 0 206 0 206 0 272 c 0,64,65
 0 343 0 343 50.5 395.5 c 128,-1,66
 101 448 101 448 176 448 c 0,30,31
EndSplineSet
EndChar

StartChar: bell
Encoding: 61683 61683 36
Width: 448
GlyphClass: 3
Flags: W
LayerCount: 2
Fore
SplineSet
439 86 m 0,0,1
 448 76 448 76 448 64 c 0,2,3
 448 51 448 51 439 41.5 c 128,-1,4
 430 32 430 32 416 32 c 2,5,-1
 32 32 l 2,6,7
 23 32 23 32 15.5 36.5 c 128,-1,8
 8 41 8 41 4 48.5 c 128,-1,9
 0 56 0 56 0 64 c 0,10,11
 0 76 0 76 9 86 c 0,12,13
 10 87 10 87 12 90 c 0,14,15
 27 105 27 105 35.5 117 c 128,-1,16
 44 129 44 129 54 162.5 c 128,-1,17
 64 196 64 196 64 240 c 0,18,19
 64 298 64 298 100 341 c 128,-1,20
 136 384 136 384 192 395 c 1,21,-1
 192 416 l 2,22,23
 192 429 192 429 201.5 438.5 c 128,-1,24
 211 448 211 448 224 448 c 128,-1,25
 237 448 237 448 246.5 438.5 c 128,-1,26
 256 429 256 429 256 416 c 2,27,-1
 256 395 l 1,28,29
 293 388 293 388 322 366 c 128,-1,30
 351 344 351 344 367.5 311 c 128,-1,31
 384 278 384 278 384 240 c 0,32,33
 384 196 384 196 394 162.5 c 128,-1,34
 404 129 404 129 412.5 117 c 128,-1,35
 421 105 421 105 436 90 c 0,36,37
 438 87 438 87 439 86 c 0,0,1
68 80 m 1,38,-1
 380 80 l 1,39,40
 336 139 336 139 336 239 c 0,41,42
 336 240 336 240 336 240 c 2,43,44
 336 286 336 286 303 319 c 128,-1,45
 270 352 270 352 224 352 c 128,-1,46
 178 352 178 352 145 319 c 128,-1,47
 112 286 112 286 112 240 c 2,48,49
 112 240 112 240 112 239 c 0,50,51
 112 139 112 139 68 80 c 1,38,-1
224 -64 m 128,-1,53
 198 -64 198 -64 179 -45.5 c 128,-1,54
 160 -27 160 -27 160 0 c 1,55,-1
 288 0 l 1,56,57
 288 -27 288 -27 269 -45.5 c 128,-1,52
 250 -64 250 -64 224 -64 c 128,-1,53
EndSplineSet
EndChar

StartChar: hospital
Encoding: 61688 61688 37
Width: 448
GlyphClass: 3
Flags: W
LayerCount: 2
Fore
SplineSet
128 204 m 2,0,-1
 128 244 l 2,1,2
 128 256 128 256 140 256 c 2,3,-1
 180 256 l 2,4,5
 192 256 192 256 192 244 c 2,6,-1
 192 204 l 2,7,8
 192 192 192 192 180 192 c 2,9,-1
 140 192 l 2,10,11
 128 192 128 192 128 204 c 2,0,-1
268 192 m 2,12,13
 256 192 256 192 256 204 c 2,14,-1
 256 244 l 2,15,16
 256 256 256 256 268 256 c 2,17,-1
 308 256 l 2,18,19
 320 256 320 256 320 244 c 2,20,-1
 320 204 l 2,21,22
 320 192 320 192 308 192 c 2,23,-1
 268 192 l 2,12,13
192 108 m 2,24,25
 192 96 192 96 180 96 c 2,26,-1
 140 96 l 2,27,28
 128 96 128 96 128 108 c 2,29,-1
 128 148 l 2,30,31
 128 160 128 160 140 160 c 2,32,-1
 180 160 l 2,33,34
 192 160 192 160 192 148 c 2,35,-1
 192 108 l 2,24,25
268 96 m 2,36,37
 256 96 256 96 256 108 c 2,38,-1
 256 148 l 2,39,40
 256 160 256 160 268 160 c 2,41,-1
 308 160 l 2,42,43
 320 160 320 160 320 148 c 2,44,-1
 320 108 l 2,45,46
 320 96 320 96 308 96 c 2,47,-1
 268 96 l 2,36,37
448 -28 m 2,48,-1
 448 -64 l 1,49,-1
 0 -64 l 1,50,-1
 0 -28 l 2,51,52
 0 -16 0 -16 12 -16 c 2,53,-1
 32 -16 l 1,54,-1
 32 363 l 2,55,56
 32 372 32 372 39 378 c 128,-1,57
 46 384 46 384 56 384 c 2,58,-1
 144 384 l 1,59,-1
 144 424 l 2,60,61
 144 434 144 434 151 441 c 128,-1,62
 158 448 158 448 168 448 c 2,63,-1
 280 448 l 2,64,65
 290 448 290 448 297 441 c 128,-1,66
 304 434 304 434 304 424 c 2,67,-1
 304 384 l 1,68,-1
 392 384 l 2,69,70
 402 384 402 384 409 378 c 128,-1,71
 416 372 416 372 416 363 c 2,72,-1
 416 -16 l 1,73,-1
 436 -16 l 2,74,75
 448 -16 448 -16 448 -28 c 2,48,-1
80 -15 m 1,76,-1
 192 -15 l 1,77,-1
 192 52 l 2,78,79
 192 64 192 64 204 64 c 2,80,-1
 244 64 l 2,81,82
 256 64 256 64 256 52 c 2,83,-1
 256 -15 l 1,84,-1
 368 -15 l 1,85,-1
 368 336 l 1,86,-1
 304 336 l 1,87,-1
 304 312 l 2,88,89
 304 302 304 302 297 295 c 128,-1,90
 290 288 290 288 280 288 c 2,91,-1
 168 288 l 2,92,93
 158 288 158 288 151 295 c 128,-1,94
 144 302 144 302 144 312 c 2,95,-1
 144 336 l 1,96,-1
 80 336 l 1,97,-1
 80 -15 l 1,76,-1
266 384 m 2,98,-1
 240 384 l 1,99,-1
 240 410 l 2,100,101
 240 416 240 416 234 416 c 2,102,-1
 214 416 l 2,103,104
 208 416 208 416 208 410 c 2,105,-1
 208 384 l 1,106,-1
 182 384 l 2,107,108
 176 384 176 384 176 378 c 2,109,-1
 176 358 l 2,110,111
 176 352 176 352 182 352 c 2,112,-1
 208 352 l 1,113,-1
 208 326 l 2,114,115
 208 320 208 320 214 320 c 2,116,-1
 234 320 l 2,117,118
 240 320 240 320 240 326 c 2,119,-1
 240 352 l 1,120,-1
 266 352 l 2,121,122
 272 352 272 352 272 358 c 2,123,-1
 272 378 l 2,124,125
 272 384 272 384 266 384 c 2,98,-1
EndSplineSet
EndChar

StartChar: plus-square
Encoding: 61694 61694 38
Width: 448
GlyphClass: 3
Flags: W
LayerCount: 2
Fore
SplineSet
352 208 m 2,0,-1
 352 176 l 2,1,2
 352 164 352 164 340 164 c 2,3,-1
 252 164 l 1,4,-1
 252 76 l 2,5,6
 252 64 252 64 240 64 c 2,7,-1
 208 64 l 2,8,9
 196 64 196 64 196 76 c 2,10,-1
 196 164 l 1,11,-1
 108 164 l 2,12,13
 96 164 96 164 96 176 c 2,14,-1
 96 208 l 2,15,16
 96 220 96 220 108 220 c 2,17,-1
 196 220 l 1,18,-1
 196 308 l 2,19,20
 196 320 196 320 208 320 c 2,21,-1
 240 320 l 2,22,23
 252 320 252 320 252 308 c 2,24,-1
 252 220 l 1,25,-1
 340 220 l 2,26,27
 352 220 352 220 352 208 c 2,0,-1
448 368 m 2,28,-1
 448 16 l 2,29,30
 448 -4 448 -4 434 -18 c 128,-1,31
 420 -32 420 -32 400 -32 c 2,32,-1
 48 -32 l 2,33,34
 28 -32 28 -32 14 -18 c 128,-1,35
 0 -4 0 -4 0 16 c 2,36,-1
 0 368 l 2,37,38
 0 388 0 388 14 402 c 128,-1,39
 28 416 28 416 48 416 c 2,40,-1
 400 416 l 2,41,42
 420 416 420 416 434 402 c 128,-1,43
 448 388 448 388 448 368 c 2,28,-1
400 22 m 2,44,-1
 400 362 l 2,45,46
 400 368 400 368 394 368 c 2,47,-1
 54 368 l 2,48,49
 48 368 48 368 48 362 c 2,50,-1
 48 22 l 2,51,52
 48 16 48 16 54 16 c 2,53,-1
 394 16 l 2,54,55
 400 16 400 16 400 22 c 2,44,-1
EndSplineSet
EndChar

StartChar: circle
Encoding: 61713 61713 39
Width: 512
GlyphClass: 3
Flags: W
LayerCount: 2
Fore
SplineSet
256 440 m 128,-1,1
 359 440 359 440 431.5 367.5 c 128,-1,2
 504 295 504 295 504 192 c 128,-1,3
 504 89 504 89 431.5 16.5 c 128,-1,4
 359 -56 359 -56 256 -56 c 128,-1,5
 153 -56 153 -56 80.5 16.5 c 128,-1,6
 8 89 8 89 8 192 c 128,-1,7
 8 295 8 295 80.5 367.5 c 128,-1,0
 153 440 153 440 256 440 c 128,-1,1
256 -8 m 128,-1,9
 339 -8 339 -8 397.5 50.5 c 128,-1,10
 456 109 456 109 456 192 c 128,-1,11
 456 275 456 275 397.5 333.5 c 128,-1,12
 339 392 339 392 256 392 c 128,-1,13
 173 392 173 392 114.5 333.5 c 128,-1,14
 56 275 56 275 56 192 c 128,-1,15
 56 109 56 109 114.5 50.5 c 128,-1,8
 173 -8 173 -8 256 -8 c 128,-1,9
EndSplineSet
EndChar

StartChar: smile
Encoding: 61720 61720 40
Width: 496
GlyphClass: 3
Flags: W
LayerCount: 2
Fore
SplineSet
248 440 m 128,-1,1
 351 440 351 440 423.5 367.5 c 128,-1,2
 496 295 496 295 496 192 c 128,-1,3
 496 89 496 89 423.5 16.5 c 128,-1,4
 351 -56 351 -56 248 -56 c 128,-1,5
 145 -56 145 -56 72.5 16.5 c 128,-1,6
 0 89 0 89 0 192 c 128,-1,7
 0 295 0 295 72.5 367.5 c 128,-1,0
 145 440 145 440 248 440 c 128,-1,1
248 -8 m 128,-1,9
 331 -8 331 -8 389.5 50.5 c 128,-1,10
 448 109 448 109 448 192 c 128,-1,11
 448 275 448 275 389.5 333.5 c 128,-1,12
 331 392 331 392 248 392 c 128,-1,13
 165 392 165 392 106.5 333.5 c 128,-1,14
 48 275 48 275 48 192 c 128,-1,15
 48 109 48 109 106.5 50.5 c 128,-1,8
 165 -8 165 -8 248 -8 c 128,-1,9
168 208 m 128,-1,17
 155 208 155 208 145.5 217.5 c 128,-1,18
 136 227 136 227 136 240 c 128,-1,19
 136 253 136 253 145.5 262.5 c 128,-1,20
 155 272 155 272 168 272 c 128,-1,21
 181 272 181 272 190.5 262.5 c 128,-1,22
 200 253 200 253 200 240 c 128,-1,23
 200 227 200 227 190.5 217.5 c 128,-1,16
 181 208 181 208 168 208 c 128,-1,17
328 208 m 128,-1,25
 315 208 315 208 305.5 217.5 c 128,-1,26
 296 227 296 227 296 240 c 128,-1,27
 296 253 296 253 305.5 262.5 c 128,-1,28
 315 272 315 272 328 272 c 128,-1,29
 341 272 341 272 350.5 262.5 c 128,-1,30
 360 253 360 253 360 240 c 128,-1,31
 360 227 360 227 350.5 217.5 c 128,-1,24
 341 208 341 208 328 208 c 128,-1,25
332 135 m 0,32,33
 338 143 338 143 348 144 c 128,-1,34
 358 145 358 145 365.5 138.5 c 128,-1,35
 373 132 373 132 374 122 c 128,-1,36
 375 112 375 112 369 105 c 0,37,38
 322 48 322 48 248 48 c 128,-1,39
 174 48 174 48 127 105 c 0,40,41
 121 112 121 112 122 122 c 128,-1,42
 123 132 123 132 130.5 138.5 c 128,-1,43
 138 145 138 145 148 144 c 128,-1,44
 158 143 158 143 164 135 c 0,45,46
 197 96 197 96 248 96 c 128,-1,47
 299 96 299 96 332 135 c 0,32,33
EndSplineSet
EndChar

StartChar: frown
Encoding: 61721 61721 41
Width: 496
GlyphClass: 3
Flags: W
LayerCount: 2
Fore
SplineSet
248 440 m 128,-1,1
 351 440 351 440 423.5 367.5 c 128,-1,2
 496 295 496 295 496 192 c 128,-1,3
 496 89 496 89 423.5 16.5 c 128,-1,4
 351 -56 351 -56 248 -56 c 128,-1,5
 145 -56 145 -56 72.5 16.5 c 128,-1,6
 0 89 0 89 0 192 c 128,-1,7
 0 295 0 295 72.5 367.5 c 128,-1,0
 145 440 145 440 248 440 c 128,-1,1
248 -8 m 128,-1,9
 331 -8 331 -8 389.5 50.5 c 128,-1,10
 448 109 448 109 448 192 c 128,-1,11
 448 275 448 275 389.5 333.5 c 128,-1,12
 331 392 331 392 248 392 c 128,-1,13
 165 392 165 392 106.5 333.5 c 128,-1,14
 48 275 48 275 48 192 c 128,-1,15
 48 109 48 109 106.5 50.5 c 128,-1,8
 165 -8 165 -8 248 -8 c 128,-1,9
168 208 m 128,-1,17
 155 208 155 208 145.5 217.5 c 128,-1,18
 136 227 136 227 136 240 c 128,-1,19
 136 253 136 253 145.5 262.5 c 128,-1,20
 155 272 155 272 168 272 c 128,-1,21
 181 272 181 272 190.5 262.5 c 128,-1,22
 200 253 200 253 200 240 c 128,-1,23
 200 227 200 227 190.5 217.5 c 128,-1,16
 181 208 181 208 168 208 c 128,-1,17
328 272 m 128,-1,25
 341 272 341 272 350.5 262.5 c 128,-1,26
 360 253 360 253 360 240 c 128,-1,27
 360 227 360 227 350.5 217.5 c 128,-1,28
 341 208 341 208 328 208 c 128,-1,29
 315 208 315 208 305.5 217.5 c 128,-1,30
 296 227 296 227 296 240 c 128,-1,31
 296 253 296 253 305.5 262.5 c 128,-1,24
 315 272 315 272 328 272 c 128,-1,25
248 144 m 128,-1,33
 311 144 311 144 352 95 c 0,34,35
 358 88 358 88 357 78 c 128,-1,36
 356 68 356 68 349 62 c 0,37,38
 341 55 341 55 331 56 c 128,-1,39
 321 57 321 57 315 65 c 0,40,41
 289 96 289 96 248 96 c 128,-1,42
 207 96 207 96 181 65 c 0,43,44
 175 57 175 57 165 56 c 128,-1,45
 155 55 155 55 147.5 61.5 c 128,-1,46
 140 68 140 68 139 78 c 128,-1,47
 138 88 138 88 144 95 c 0,48,32
 185 144 185 144 248 144 c 128,-1,33
EndSplineSet
EndChar

StartChar: meh
Encoding: 61722 61722 42
Width: 496
GlyphClass: 3
Flags: W
LayerCount: 2
Fore
SplineSet
248 440 m 128,-1,1
 351 440 351 440 423.5 367.5 c 128,-1,2
 496 295 496 295 496 192 c 128,-1,3
 496 89 496 89 423.5 16.5 c 128,-1,4
 351 -56 351 -56 248 -56 c 128,-1,5
 145 -56 145 -56 72.5 16.5 c 128,-1,6
 0 89 0 89 0 192 c 128,-1,7
 0 295 0 295 72.5 367.5 c 128,-1,0
 145 440 145 440 248 440 c 128,-1,1
248 -8 m 128,-1,9
 331 -8 331 -8 389.5 50.5 c 128,-1,10
 448 109 448 109 448 192 c 128,-1,11
 448 275 448 275 389.5 333.5 c 128,-1,12
 331 392 331 392 248 392 c 128,-1,13
 165 392 165 392 106.5 333.5 c 128,-1,14
 48 275 48 275 48 192 c 128,-1,15
 48 109 48 109 106.5 50.5 c 128,-1,8
 165 -8 165 -8 248 -8 c 128,-1,9
168 208 m 128,-1,17
 155 208 155 208 145.5 217.5 c 128,-1,18
 136 227 136 227 136 240 c 128,-1,19
 136 253 136 253 145.5 262.5 c 128,-1,20
 155 272 155 272 168 272 c 128,-1,21
 181 272 181 272 190.5 262.5 c 128,-1,22
 200 253 200 253 200 240 c 128,-1,23
 200 227 200 227 190.5 217.5 c 128,-1,16
 181 208 181 208 168 208 c 128,-1,17
328 272 m 128,-1,25
 341 272 341 272 350.5 262.5 c 128,-1,26
 360 253 360 253 360 240 c 128,-1,27
 360 227 360 227 350.5 217.5 c 128,-1,28
 341 208 341 208 328 208 c 128,-1,29
 315 208 315 208 305.5 217.5 c 128,-1,30
 296 227 296 227 296 240 c 128,-1,31
 296 253 296 253 305.5 262.5 c 128,-1,24
 315 272 315 272 328 272 c 128,-1,25
336 128 m 2,32,33
 346 128 346 128 353 121 c 128,-1,34
 360 114 360 114 360 104 c 128,-1,35
 360 94 360 94 353 87 c 128,-1,36
 346 80 346 80 336 80 c 2,37,-1
 160 80 l 2,38,39
 150 80 150 80 143 87 c 128,-1,40
 136 94 136 94 136 104 c 128,-1,41
 136 114 136 114 143 121 c 128,-1,42
 150 128 150 128 160 128 c 2,43,-1
 336 128 l 2,32,33
EndSplineSet
EndChar

StartChar: keyboard
Encoding: 61724 61724 43
Width: 576
GlyphClass: 3
Flags: W
LayerCount: 2
Fore
SplineSet
528 384 m 2,0,1
 548 384 548 384 562 370 c 128,-1,2
 576 356 576 356 576 336 c 2,3,-1
 576 48 l 2,4,5
 576 28 576 28 562 14 c 128,-1,6
 548 0 548 0 528 0 c 2,7,-1
 48 0 l 2,8,9
 28 0 28 0 14 14 c 128,-1,10
 0 28 0 28 0 48 c 2,11,-1
 0 336 l 2,12,13
 0 356 0 356 14 370 c 128,-1,14
 28 384 28 384 48 384 c 2,15,-1
 528 384 l 2,0,1
536 48 m 2,16,-1
 536 336 l 2,17,18
 536 344 536 344 528 344 c 2,19,-1
 48 344 l 2,20,21
 40 344 40 344 40 336 c 2,22,-1
 40 48 l 2,23,24
 40 40 40 40 48 40 c 2,25,-1
 528 40 l 2,26,27
 536 40 536 40 536 48 c 2,16,-1
170 178 m 2,28,29
 170 166 170 166 158 166 c 2,30,-1
 130 166 l 2,31,32
 118 166 118 166 118 178 c 2,33,-1
 118 206 l 2,34,35
 118 218 118 218 130 218 c 2,36,-1
 158 218 l 2,37,38
 170 218 170 218 170 206 c 2,39,-1
 170 178 l 2,28,29
266 178 m 2,40,41
 266 166 266 166 254 166 c 2,42,-1
 226 166 l 2,43,44
 214 166 214 166 214 178 c 2,45,-1
 214 206 l 2,46,47
 214 218 214 218 226 218 c 2,48,-1
 254 218 l 2,49,50
 266 218 266 218 266 206 c 2,51,-1
 266 178 l 2,40,41
362 178 m 2,52,53
 362 166 362 166 350 166 c 2,54,-1
 322 166 l 2,55,56
 310 166 310 166 310 178 c 2,57,-1
 310 206 l 2,58,59
 310 218 310 218 322 218 c 2,60,-1
 350 218 l 2,61,62
 362 218 362 218 362 206 c 2,63,-1
 362 178 l 2,52,53
458 178 m 2,64,65
 458 166 458 166 446 166 c 2,66,-1
 418 166 l 2,67,68
 406 166 406 166 406 178 c 2,69,-1
 406 206 l 2,70,71
 406 218 406 218 418 218 c 2,72,-1
 446 218 l 2,73,74
 458 218 458 218 458 206 c 2,75,-1
 458 178 l 2,64,65
122 96 m 2,76,77
 122 84 122 84 110 84 c 2,78,-1
 82 84 l 2,79,80
 70 84 70 84 70 96 c 2,81,-1
 70 124 l 2,82,83
 70 136 70 136 82 136 c 2,84,-1
 110 136 l 2,85,86
 122 136 122 136 122 124 c 2,87,-1
 122 96 l 2,76,77
506 96 m 2,88,89
 506 84 506 84 494 84 c 2,90,-1
 466 84 l 2,91,92
 454 84 454 84 454 96 c 2,93,-1
 454 124 l 2,94,95
 454 136 454 136 466 136 c 2,96,-1
 494 136 l 2,97,98
 506 136 506 136 506 124 c 2,99,-1
 506 96 l 2,88,89
122 260 m 2,100,101
 122 248 122 248 110 248 c 2,102,-1
 82 248 l 2,103,104
 70 248 70 248 70 260 c 2,105,-1
 70 288 l 2,106,107
 70 300 70 300 82 300 c 2,108,-1
 110 300 l 2,109,110
 122 300 122 300 122 288 c 2,111,-1
 122 260 l 2,100,101
218 260 m 2,112,113
 218 248 218 248 206 248 c 2,114,-1
 178 248 l 2,115,116
 166 248 166 248 166 260 c 2,117,-1
 166 288 l 2,118,119
 166 300 166 300 178 300 c 2,120,-1
 206 300 l 2,121,122
 218 300 218 300 218 288 c 2,123,-1
 218 260 l 2,112,113
314 260 m 2,124,125
 314 248 314 248 302 248 c 2,126,-1
 274 248 l 2,127,128
 262 248 262 248 262 260 c 2,129,-1
 262 288 l 2,130,131
 262 300 262 300 274 300 c 2,132,-1
 302 300 l 2,133,134
 314 300 314 300 314 288 c 2,135,-1
 314 260 l 2,124,125
410 260 m 2,136,137
 410 248 410 248 398 248 c 2,138,-1
 370 248 l 2,139,140
 358 248 358 248 358 260 c 2,141,-1
 358 288 l 2,142,143
 358 300 358 300 370 300 c 2,144,-1
 398 300 l 2,145,146
 410 300 410 300 410 288 c 2,147,-1
 410 260 l 2,136,137
506 260 m 2,148,149
 506 248 506 248 494 248 c 2,150,-1
 466 248 l 2,151,152
 454 248 454 248 454 260 c 2,153,-1
 454 288 l 2,154,155
 454 300 454 300 466 300 c 2,156,-1
 494 300 l 2,157,158
 506 300 506 300 506 288 c 2,159,-1
 506 260 l 2,148,149
408 102 m 2,160,161
 408 90 408 90 396 90 c 2,162,-1
 180 90 l 2,163,164
 168 90 168 90 168 102 c 2,165,-1
 168 118 l 2,166,167
 168 130 168 130 180 130 c 2,168,-1
 396 130 l 2,169,170
 408 130 408 130 408 118 c 2,171,-1
 408 102 l 2,160,161
EndSplineSet
EndChar

StartChar: calendar
Encoding: 61747 61747 44
Width: 448
GlyphClass: 3
Flags: W
LayerCount: 2
Fore
SplineSet
400 384 m 2,0,1
 420 384 420 384 434 370 c 128,-1,2
 448 356 448 356 448 336 c 2,3,-1
 448 -16 l 2,4,5
 448 -36 448 -36 434 -50 c 128,-1,6
 420 -64 420 -64 400 -64 c 2,7,-1
 48 -64 l 2,8,9
 28 -64 28 -64 14 -50 c 128,-1,10
 0 -36 0 -36 0 -16 c 2,11,-1
 0 336 l 2,12,13
 0 356 0 356 14 370 c 128,-1,14
 28 384 28 384 48 384 c 2,15,-1
 96 384 l 1,16,-1
 96 436 l 2,17,18
 96 448 96 448 108 448 c 2,19,-1
 148 448 l 2,20,21
 160 448 160 448 160 436 c 2,22,-1
 160 384 l 1,23,-1
 288 384 l 1,24,-1
 288 436 l 2,25,26
 288 448 288 448 300 448 c 2,27,-1
 340 448 l 2,28,29
 352 448 352 448 352 436 c 2,30,-1
 352 384 l 1,31,-1
 400 384 l 2,0,1
394 -16 m 2,32,33
 400 -16 400 -16 400 -10 c 2,34,-1
 400 288 l 1,35,-1
 48 288 l 1,36,-1
 48 -10 l 2,37,38
 48 -16 48 -16 54 -16 c 2,39,-1
 394 -16 l 2,32,33
EndSplineSet
EndChar

StartChar: play-circle
Encoding: 61764 61764 45
Width: 512
GlyphClass: 3
Flags: W
LayerCount: 2
Fore
SplineSet
372 210 m 2,0,1
 384 203 384 203 384 189 c 128,-1,2
 384 175 384 175 372 168 c 2,3,-1
 196 67 l 2,4,5
 187 63 187 63 179 64.5 c 128,-1,6
 171 66 171 66 165.5 72.5 c 128,-1,7
 160 79 160 79 160 88 c 2,8,-1
 160 296 l 2,9,10
 160 310 160 310 172 317 c 128,-1,11
 184 324 184 324 196 317 c 2,12,-1
 372 210 l 2,0,1
504 192 m 128,-1,14
 504 89 504 89 431.5 16.5 c 128,-1,15
 359 -56 359 -56 256 -56 c 128,-1,16
 153 -56 153 -56 80.5 16.5 c 128,-1,17
 8 89 8 89 8 192 c 128,-1,18
 8 295 8 295 80.5 367.5 c 128,-1,19
 153 440 153 440 256 440 c 128,-1,20
 359 440 359 440 431.5 367.5 c 128,-1,13
 504 295 504 295 504 192 c 128,-1,14
56 192 m 128,-1,22
 56 109 56 109 114.5 50.5 c 128,-1,23
 173 -8 173 -8 256 -8 c 128,-1,24
 339 -8 339 -8 397.5 50.5 c 128,-1,25
 456 109 456 109 456 192 c 128,-1,26
 456 275 456 275 397.5 333.5 c 128,-1,27
 339 392 339 392 256 392 c 128,-1,28
 173 392 173 392 114.5 333.5 c 128,-1,21
 56 275 56 275 56 192 c 128,-1,22
EndSplineSet
EndChar

StartChar: minus-square
Encoding: 61766 61766 46
Width: 448
GlyphClass: 3
Flags: W
LayerCount: 2
Fore
SplineSet
108 164 m 2,0,1
 96 164 96 164 96 176 c 2,2,-1
 96 208 l 2,3,4
 96 220 96 220 108 220 c 2,5,-1
 340 220 l 2,6,7
 352 220 352 220 352 208 c 2,8,-1
 352 176 l 2,9,10
 352 164 352 164 340 164 c 2,11,-1
 108 164 l 2,0,1
448 368 m 2,12,-1
 448 16 l 2,13,14
 448 -4 448 -4 434 -18 c 128,-1,15
 420 -32 420 -32 400 -32 c 2,16,-1
 48 -32 l 2,17,18
 28 -32 28 -32 14 -18 c 128,-1,19
 0 -4 0 -4 0 16 c 2,20,-1
 0 368 l 2,21,22
 0 388 0 388 14 402 c 128,-1,23
 28 416 28 416 48 416 c 2,24,-1
 400 416 l 2,25,26
 420 416 420 416 434 402 c 128,-1,27
 448 388 448 388 448 368 c 2,12,-1
400 22 m 2,28,-1
 400 362 l 2,29,30
 400 368 400 368 394 368 c 2,31,-1
 54 368 l 2,32,33
 48 368 48 368 48 362 c 2,34,-1
 48 22 l 2,35,36
 48 16 48 16 54 16 c 2,37,-1
 394 16 l 2,38,39
 400 16 400 16 400 22 c 2,28,-1
EndSplineSet
EndChar

StartChar: check-square
Encoding: 61770 61770 47
Width: 448
GlyphClass: 3
Flags: W
LayerCount: 2
Fore
SplineSet
400 416 m 2,0,1
 420 416 420 416 434 402 c 128,-1,2
 448 388 448 388 448 368 c 2,3,-1
 448 16 l 2,4,5
 448 -4 448 -4 434 -18 c 128,-1,6
 420 -32 420 -32 400 -32 c 2,7,-1
 48 -32 l 2,8,9
 28 -32 28 -32 14 -18 c 128,-1,10
 0 -4 0 -4 0 16 c 2,11,-1
 0 368 l 2,12,13
 0 388 0 388 14 402 c 128,-1,14
 28 416 28 416 48 416 c 2,15,-1
 400 416 l 2,0,1
400 16 m 1,16,-1
 400 368 l 1,17,-1
 48 368 l 1,18,-1
 48 16 l 1,19,-1
 400 16 l 1,16,-1
364 258 m 2,20,-1
 192 87 l 2,21,22
 183 78 183 78 175 87 c 2,23,-1
 84 178 l 2,24,25
 75 187 75 187 84 195 c 2,26,-1
 107 218 l 2,27,28
 115 226 115 226 124 218 c 2,29,-1
 183 157 l 1,30,-1
 325 297 l 2,31,32
 333 306 333 306 342 297 c 2,33,-1
 364 275 l 2,34,35
 373 266 373 266 364 258 c 2,20,-1
EndSplineSet
EndChar

StartChar: share-square
Encoding: 61773 61773 48
Width: 576
GlyphClass: 3
Flags: W
LayerCount: 2
Fore
SplineSet
562 290 m 2,0,1
 576 276 576 276 576 256 c 128,-1,2
 576 236 576 236 562 222 c 2,3,-1
 418 78 l 2,4,5
 395 55 395 55 365.5 67.5 c 128,-1,6
 336 80 336 80 336 112 c 2,7,-1
 336 166 l 1,8,9
 287 162 287 162 265.5 152.5 c 128,-1,10
 244 143 244 143 244 127 c 128,-1,11
 244 111 244 111 252 87 c 0,12,13
 263 55 263 55 236 34.5 c 128,-1,14
 209 14 209 14 181 31 c 0,15,16
 141 56 141 56 118.5 93.5 c 128,-1,17
 96 131 96 131 96 176 c 0,18,19
 96 235 96 235 132 275 c 0,20,21
 162 308 162 308 215 325 c 0,22,23
 263 340 263 340 336 343 c 1,24,-1
 336 400 l 2,25,26
 336 432 336 432 365.5 444 c 128,-1,27
 395 456 395 456 418 434 c 2,28,-1
 562 290 l 2,0,1
384 112 m 1,29,-1
 528 256 l 1,30,-1
 384 400 l 1,31,-1
 384 296 l 1,32,33
 351 296 351 296 327 294.5 c 128,-1,34
 303 293 303 293 273 289 c 128,-1,35
 243 285 243 285 222 276.5 c 128,-1,36
 201 268 201 268 182 255.5 c 128,-1,37
 163 243 163 243 153.5 222.5 c 128,-1,38
 144 202 144 202 144 176 c 0,39,40
 144 111 144 111 206 72 c 1,41,42
 199 94 199 94 197 112.5 c 128,-1,43
 195 131 195 131 199 145 c 128,-1,44
 203 159 203 159 211 170 c 128,-1,45
 219 181 219 181 232 188.5 c 128,-1,46
 245 196 245 196 260.5 201 c 128,-1,47
 276 206 276 206 296.5 209.5 c 128,-1,48
 317 213 317 213 337.5 214 c 128,-1,49
 358 215 358 215 384 216 c 1,50,-1
 384 112 l 1,29,-1
409 28 m 0,51,52
 420 31 420 31 430 37 c 0,53,54
 436 41 436 41 442 37.5 c 128,-1,55
 448 34 448 34 448 27 c 2,56,-1
 448 -16 l 2,57,58
 448 -36 448 -36 434 -50 c 128,-1,59
 420 -64 420 -64 400 -64 c 2,60,-1
 48 -64 l 2,61,62
 28 -64 28 -64 14 -50 c 128,-1,63
 0 -36 0 -36 0 -16 c 2,64,-1
 0 336 l 2,65,66
 0 356 0 356 14 370 c 128,-1,67
 28 384 28 384 48 384 c 2,68,-1
 180 384 l 2,69,70
 192 384 192 384 192 372 c 2,71,-1
 192 368 l 2,72,73
 192 359 192 359 184 356 c 0,74,75
 164 348 164 348 146 338 c 0,76,77
 143 336 143 336 140 336 c 2,78,-1
 54 336 l 2,79,80
 48 336 48 336 48 330 c 2,81,-1
 48 -10 l 2,82,83
 48 -16 48 -16 54 -16 c 2,84,-1
 394 -16 l 2,85,86
 400 -16 400 -16 400 -10 c 2,87,-1
 400 16 l 2,88,89
 400 25 400 25 409 28 c 0,51,52
EndSplineSet
EndChar

StartChar: compass
Encoding: 61774 61774 49
Width: 496
GlyphClass: 3
Flags: W
LayerCount: 2
Fore
SplineSet
348 318 m 2,0,1
 360 324 360 324 370 314 c 128,-1,2
 380 304 380 304 374 292 c 2,3,-1
 308 148 l 2,4,5
 303 137 303 137 292 132 c 2,6,-1
 148 66 l 2,7,8
 136 60 136 60 126 70 c 128,-1,9
 116 80 116 80 122 92 c 2,10,-1
 188 236 l 2,11,12
 193 247 193 247 204 252 c 2,13,-1
 348 318 l 2,0,1
270.5 169.5 m 128,-1,15
 280 179 280 179 280 192 c 128,-1,16
 280 205 280 205 270.5 214.5 c 128,-1,17
 261 224 261 224 248 224 c 128,-1,18
 235 224 235 224 225.5 214.5 c 128,-1,19
 216 205 216 205 216 192 c 128,-1,20
 216 179 216 179 225.5 169.5 c 128,-1,21
 235 160 235 160 248 160 c 128,-1,14
 261 160 261 160 270.5 169.5 c 128,-1,15
248 440 m 128,-1,23
 351 440 351 440 423.5 367.5 c 128,-1,24
 496 295 496 295 496 192 c 128,-1,25
 496 89 496 89 423.5 16.5 c 128,-1,26
 351 -56 351 -56 248 -56 c 128,-1,27
 145 -56 145 -56 72.5 16.5 c 128,-1,28
 0 89 0 89 0 192 c 128,-1,29
 0 295 0 295 72.5 367.5 c 128,-1,22
 145 440 145 440 248 440 c 128,-1,23
248 -8 m 128,-1,31
 331 -8 331 -8 389.5 50.5 c 128,-1,32
 448 109 448 109 448 192 c 128,-1,33
 448 275 448 275 389.5 333.5 c 128,-1,34
 331 392 331 392 248 392 c 128,-1,35
 165 392 165 392 106.5 333.5 c 128,-1,36
 48 275 48 275 48 192 c 128,-1,37
 48 109 48 109 106.5 50.5 c 128,-1,30
 165 -8 165 -8 248 -8 c 128,-1,31
EndSplineSet
EndChar

StartChar: caret-square-down
Encoding: 61776 61776 50
Width: 448
GlyphClass: 3
Flags: W
LayerCount: 2
Fore
SplineSet
125 240 m 2,0,-1
 323 240 l 2,1,2
 331 240 331 240 334 232.5 c 128,-1,3
 337 225 337 225 331 220 c 2,4,-1
 232 121 l 2,5,6
 224 113 224 113 216 121 c 2,7,-1
 117 220 l 2,8,9
 111 225 111 225 114 232.5 c 128,-1,10
 117 240 117 240 125 240 c 2,0,-1
448 368 m 2,11,-1
 448 16 l 2,12,13
 448 -4 448 -4 434 -18 c 128,-1,14
 420 -32 420 -32 400 -32 c 2,15,-1
 48 -32 l 2,16,17
 28 -32 28 -32 14 -18 c 128,-1,18
 0 -4 0 -4 0 16 c 2,19,-1
 0 368 l 2,20,21
 0 388 0 388 14 402 c 128,-1,22
 28 416 28 416 48 416 c 2,23,-1
 400 416 l 2,24,25
 420 416 420 416 434 402 c 128,-1,26
 448 388 448 388 448 368 c 2,11,-1
400 22 m 2,27,-1
 400 362 l 2,28,29
 400 368 400 368 394 368 c 2,30,-1
 54 368 l 2,31,32
 48 368 48 368 48 362 c 2,33,-1
 48 22 l 2,34,35
 48 16 48 16 54 16 c 2,36,-1
 394 16 l 2,37,38
 400 16 400 16 400 22 c 2,27,-1
EndSplineSet
EndChar

StartChar: caret-square-up
Encoding: 61777 61777 51
Width: 448
GlyphClass: 3
Flags: W
LayerCount: 2
Fore
SplineSet
323 144 m 2,0,-1
 125 144 l 2,1,2
 117 144 117 144 114 151.5 c 128,-1,3
 111 159 111 159 117 164 c 2,4,-1
 216 263 l 2,5,6
 224 271 224 271 232 263 c 2,7,-1
 331 164 l 2,8,9
 337 159 337 159 334 151.5 c 128,-1,10
 331 144 331 144 323 144 c 2,0,-1
448 368 m 2,11,-1
 448 16 l 2,12,13
 448 -4 448 -4 434 -18 c 128,-1,14
 420 -32 420 -32 400 -32 c 2,15,-1
 48 -32 l 2,16,17
 28 -32 28 -32 14 -18 c 128,-1,18
 0 -4 0 -4 0 16 c 2,19,-1
 0 368 l 2,20,21
 0 388 0 388 14 402 c 128,-1,22
 28 416 28 416 48 416 c 2,23,-1
 400 416 l 2,24,25
 420 416 420 416 434 402 c 128,-1,26
 448 388 448 388 448 368 c 2,11,-1
400 22 m 2,27,-1
 400 362 l 2,28,29
 400 368 400 368 394 368 c 2,30,-1
 54 368 l 2,31,32
 48 368 48 368 48 362 c 2,33,-1
 48 22 l 2,34,35
 48 16 48 16 54 16 c 2,36,-1
 394 16 l 2,37,38
 400 16 400 16 400 22 c 2,27,-1
EndSplineSet
EndChar

StartChar: caret-square-right
Encoding: 61778 61778 52
Width: 448
GlyphClass: 3
Flags: W
LayerCount: 2
Fore
SplineSet
176 93 m 2,0,-1
 176 291 l 2,1,2
 176 299 176 299 183.5 302 c 128,-1,3
 191 305 191 305 196 299 c 2,4,-1
 295 200 l 2,5,6
 303 192 303 192 295 184 c 2,7,-1
 196 85 l 2,8,9
 191 79 191 79 183.5 82 c 128,-1,10
 176 85 176 85 176 93 c 2,0,-1
448 368 m 2,11,-1
 448 16 l 2,12,13
 448 -4 448 -4 434 -18 c 128,-1,14
 420 -32 420 -32 400 -32 c 2,15,-1
 48 -32 l 2,16,17
 28 -32 28 -32 14 -18 c 128,-1,18
 0 -4 0 -4 0 16 c 2,19,-1
 0 368 l 2,20,21
 0 388 0 388 14 402 c 128,-1,22
 28 416 28 416 48 416 c 2,23,-1
 400 416 l 2,24,25
 420 416 420 416 434 402 c 128,-1,26
 448 388 448 388 448 368 c 2,11,-1
400 22 m 2,27,-1
 400 362 l 2,28,29
 400 368 400 368 394 368 c 2,30,-1
 54 368 l 2,31,32
 48 368 48 368 48 362 c 2,33,-1
 48 22 l 2,34,35
 48 16 48 16 54 16 c 2,36,-1
 394 16 l 2,37,38
 400 16 400 16 400 22 c 2,27,-1
EndSplineSet
EndChar

StartChar: file
Encoding: 61787 61787 53
Width: 384
GlyphClass: 3
Flags: W
LayerCount: 2
Fore
SplineSet
370 350 m 2,0,1
 384 336 384 336 384 316 c 2,2,-1
 384 -16 l 2,3,4
 384 -36 384 -36 370 -50 c 128,-1,5
 356 -64 356 -64 336 -64 c 2,6,-1
 48 -64 l 2,7,8
 28 -64 28 -64 14 -50 c 128,-1,9
 0 -36 0 -36 0 -16 c 2,10,-1
 0 400 l 2,11,12
 0 420 0 420 14 434 c 128,-1,13
 28 448 28 448 48 448 c 2,14,-1
 252 448 l 2,15,16
 272 448 272 448 286 434 c 2,17,-1
 370 350 l 2,0,1
332 320 m 1,18,-1
 256 396 l 1,19,-1
 256 320 l 1,20,-1
 332 320 l 1,18,-1
48 -16 m 1,21,-1
 336 -16 l 1,22,-1
 336 272 l 1,23,-1
 232 272 l 2,24,25
 222 272 222 272 215 279 c 128,-1,26
 208 286 208 286 208 296 c 2,27,-1
 208 400 l 1,28,-1
 48 400 l 1,29,-1
 48 -16 l 1,21,-1
EndSplineSet
EndChar

StartChar: file-alt
Encoding: 61788 61788 54
Width: 384
GlyphClass: 3
Flags: W
LayerCount: 2
Fore
SplineSet
288 200 m 2,0,-1
 288 172 l 2,1,2
 288 160 288 160 276 160 c 2,3,-1
 108 160 l 2,4,5
 96 160 96 160 96 172 c 2,6,-1
 96 200 l 2,7,8
 96 212 96 212 108 212 c 2,9,-1
 276 212 l 2,10,11
 288 212 288 212 288 200 c 2,0,-1
276 128 m 2,12,13
 288 128 288 128 288 116 c 2,14,-1
 288 88 l 2,15,16
 288 76 288 76 276 76 c 2,17,-1
 108 76 l 2,18,19
 96 76 96 76 96 88 c 2,20,-1
 96 116 l 2,21,22
 96 128 96 128 108 128 c 2,23,-1
 276 128 l 2,12,13
384 316 m 2,24,-1
 384 -16 l 2,25,26
 384 -36 384 -36 370 -50 c 128,-1,27
 356 -64 356 -64 336 -64 c 2,28,-1
 48 -64 l 2,29,30
 28 -64 28 -64 14 -50 c 128,-1,31
 0 -36 0 -36 0 -16 c 2,32,-1
 0 400 l 2,33,34
 0 420 0 420 14 434 c 128,-1,35
 28 448 28 448 48 448 c 2,36,-1
 252 448 l 2,37,38
 272 448 272 448 286 434 c 2,39,-1
 370 350 l 2,40,41
 384 336 384 336 384 316 c 2,24,-1
256 396 m 1,42,-1
 256 320 l 1,43,-1
 332 320 l 1,44,-1
 256 396 l 1,42,-1
336 -16 m 1,45,-1
 336 272 l 1,46,-1
 232 272 l 2,47,48
 222 272 222 272 215 279 c 128,-1,49
 208 286 208 286 208 296 c 2,50,-1
 208 400 l 1,51,-1
 48 400 l 1,52,-1
 48 -16 l 1,53,-1
 336 -16 l 1,45,-1
EndSplineSet
EndChar

StartChar: thumbs-up
Encoding: 61796 61796 55
Width: 512
GlyphClass: 3
Flags: W
LayerCount: 2
Fore
SplineSet
466 161 m 1,0,1
 473 128 473 128 457 98 c 1,2,3
 462 62 462 62 440 31 c 1,4,5
 439 3 439 3 427.5 -18 c 128,-1,6
 416 -39 416 -39 390.5 -51.5 c 128,-1,7
 365 -64 365 -64 327 -64 c 0,8,9
 324 -64 324 -64 316 -64 c 128,-1,10
 308 -64 308 -64 305 -64 c 0,11,12
 260 -64 260 -64 225.5 -54 c 128,-1,13
 191 -44 191 -44 167.5 -34 c 128,-1,14
 144 -24 144 -24 127 -24 c 1,15,16
 124 -34 124 -34 115.5 -41 c 128,-1,17
 107 -48 107 -48 96 -48 c 2,18,-1
 32 -48 l 2,19,20
 19 -48 19 -48 9.5 -38.5 c 128,-1,21
 0 -29 0 -29 0 -16 c 2,22,-1
 0 224 l 2,23,24
 0 237 0 237 9.5 246.5 c 128,-1,25
 19 256 19 256 32 256 c 2,26,-1
 131 256 l 1,27,28
 139 263 139 263 151 279 c 128,-1,29
 163 295 163 295 176.5 312.5 c 128,-1,30
 190 330 190 330 200 339 c 0,31,32
 203 343 203 343 209 372 c 128,-1,33
 215 401 215 401 229.5 424.5 c 128,-1,34
 244 448 244 448 271 448 c 0,35,36
 316 448 316 448 341.5 422 c 128,-1,37
 367 396 367 396 367 343 c 0,38,39
 367 320 367 320 358 297 c 1,40,-1
 394 297 l 2,41,42
 418 297 418 297 438 284.5 c 128,-1,43
 458 272 458 272 469 252.5 c 128,-1,44
 480 233 480 233 480 211 c 0,45,46
 480 185 480 185 466 161 c 1,0,1
405 107 m 1,47,48
 420 122 420 122 420.5 142.5 c 128,-1,49
 421 163 421 163 410 173 c 1,50,51
 417 173 417 173 424.5 185 c 128,-1,52
 432 197 432 197 432 211 c 256,53,54
 432 225 432 225 421 237 c 128,-1,55
 410 249 410 249 394 249 c 2,56,-1
 290 249 l 1,57,58
 290 267 290 267 304.5 295.5 c 128,-1,59
 319 324 319 324 319 343 c 0,60,61
 319 353 319 353 318.5 358.5 c 128,-1,62
 318 364 318 364 315.5 373 c 128,-1,63
 313 382 313 382 308.5 387 c 128,-1,64
 304 392 304 392 294.5 396 c 128,-1,65
 285 400 285 400 271 400 c 1,66,67
 263 392 263 392 256 356.5 c 128,-1,68
 249 321 249 321 233 305 c 0,69,70
 226 298 226 298 212 279.5 c 128,-1,71
 198 261 198 261 187 246.5 c 128,-1,72
 176 232 176 232 162.5 220 c 128,-1,73
 149 208 149 208 139 208 c 2,74,-1
 128 208 l 1,75,-1
 128 22 l 1,76,77
 153 22 153 22 207.5 3 c 128,-1,78
 262 -16 262 -16 300 -16 c 2,79,-1
 337 -16 l 2,80,81
 401 -16 401 -16 391 50 c 1,82,83
 403 57 403 57 408 74 c 128,-1,84
 413 91 413 91 405 107 c 1,47,48
88 16 m 128,-1,86
 88 26 88 26 81 33 c 128,-1,87
 74 40 74 40 64 40 c 128,-1,88
 54 40 54 40 47 33 c 128,-1,89
 40 26 40 26 40 16 c 128,-1,90
 40 6 40 6 47 -1 c 128,-1,91
 54 -8 54 -8 64 -8 c 128,-1,92
 74 -8 74 -8 81 -1 c 128,-1,85
 88 6 88 6 88 16 c 128,-1,86
EndSplineSet
EndChar

StartChar: thumbs-down
Encoding: 61797 61797 56
Width: 512
GlyphClass: 3
Flags: W
LayerCount: 2
Fore
SplineSet
466 223 m 1,0,1
 480 199 480 199 480 173 c 0,2,3
 480 139 480 139 455 113 c 128,-1,4
 430 87 430 87 394 87 c 2,5,-1
 358 87 l 1,6,7
 367 64 367 64 367 41 c 0,8,9
 367 -12 367 -12 341.5 -38 c 128,-1,10
 316 -64 316 -64 271 -64 c 0,11,12
 244 -64 244 -64 229.5 -40.5 c 128,-1,13
 215 -17 215 -17 209 12 c 128,-1,14
 203 41 203 41 200 45 c 0,15,16
 189 56 189 56 165 87.5 c 128,-1,17
 141 119 141 119 131 128 c 1,18,-1
 124 128 l 1,19,20
 114 112 114 112 96 112 c 2,21,-1
 32 112 l 2,22,23
 19 112 19 112 9.5 121.5 c 128,-1,24
 0 131 0 131 0 144 c 2,25,-1
 0 384 l 2,26,27
 0 397 0 397 9.5 406.5 c 128,-1,28
 19 416 19 416 32 416 c 2,29,-1
 96 416 l 2,30,31
 108 416 108 416 117 408 c 1,32,-1
 128 408 l 2,33,34
 143 408 143 408 166 418 c 128,-1,35
 189 428 189 428 224.5 438 c 128,-1,36
 260 448 260 448 305 448 c 0,37,38
 308 448 308 448 316 448 c 128,-1,39
 324 448 324 448 327 448 c 0,40,41
 383 448 383 448 411 422.5 c 128,-1,42
 439 397 439 397 440 353 c 1,43,44
 462 322 462 322 457 286 c 1,45,46
 473 256 473 256 466 223 c 1,0,1
64 152 m 128,-1,48
 74 152 74 152 81 159 c 128,-1,49
 88 166 88 166 88 176 c 128,-1,50
 88 186 88 186 81 193 c 128,-1,51
 74 200 74 200 64 200 c 128,-1,52
 54 200 54 200 47 193 c 128,-1,53
 40 186 40 186 40 176 c 128,-1,54
 40 166 40 166 47 159 c 128,-1,47
 54 152 54 152 64 152 c 128,-1,48
394 135 m 2,55,56
 404 135 404 135 413 140.5 c 128,-1,57
 422 146 422 146 427 155 c 128,-1,58
 432 164 432 164 432 173 c 0,59,60
 432 187 432 187 424.5 199 c 128,-1,61
 417 211 417 211 410 211 c 1,62,63
 421 221 421 221 420.5 241.5 c 128,-1,64
 420 262 420 262 405 277 c 1,65,66
 413 293 413 293 408 310 c 128,-1,67
 403 327 403 327 391 334 c 1,68,69
 401 400 401 400 337 400 c 2,70,-1
 300 400 l 2,71,72
 262 400 262 400 207.5 381 c 128,-1,73
 153 362 153 362 128 362 c 1,74,-1
 128 176 l 1,75,-1
 139 176 l 2,76,77
 151 176 151 176 168 158.5 c 128,-1,78
 185 141 185 141 205 114 c 128,-1,79
 225 87 225 87 233 79 c 0,80,81
 249 63 249 63 256 27.5 c 128,-1,82
 263 -8 263 -8 271 -16 c 1,83,84
 288 -16 288 -16 298.5 -11 c 128,-1,85
 309 -6 309 -6 313 4 c 128,-1,86
 317 14 317 14 318 21 c 128,-1,87
 319 28 319 28 319 41 c 0,88,89
 319 60 319 60 304.5 88.5 c 128,-1,90
 290 117 290 117 290 135 c 1,91,-1
 394 135 l 2,55,56
EndSplineSet
EndChar

StartChar: sun
Encoding: 61829 61829 57
Width: 512
GlyphClass: 3
Flags: W
LayerCount: 2
Fore
SplineSet
494 226 m 2,0,1
 512 214 512 214 512 192.5 c 128,-1,2
 512 171 512 171 494 159 c 2,3,-1
 434 118 l 1,4,-1
 448 47 l 2,5,6
 452 26 452 26 437 11 c 256,7,8
 422 -4 422 -4 401 0 c 2,9,-1
 330 14 l 1,10,-1
 290 -46 l 2,11,12
 277 -64 277 -64 255.5 -64 c 128,-1,13
 234 -64 234 -64 222 -46 c 2,14,-1
 182 14 l 1,15,-1
 111 0 l 2,16,17
 90 -4 90 -4 75 11 c 128,-1,18
 60 26 60 26 64 48 c 2,19,-1
 78 118 l 1,20,-1
 18 159 l 2,21,22
 0 171 0 171 0 192.5 c 128,-1,23
 0 214 0 214 18 226 c 2,24,-1
 78 267 l 1,25,-1
 64 338 l 2,26,27
 60 359 60 359 75 374 c 128,-1,28
 90 389 90 389 111 385 c 2,29,-1
 182 371 l 1,30,-1
 222 431 l 2,31,32
 234 448 234 448 256 448 c 128,-1,33
 278 448 278 448 290 431 c 2,34,-1
 330 371 l 1,35,-1
 401 385 l 2,36,37
 422 389 422 389 437 374 c 128,-1,38
 452 359 452 359 448 338 c 2,39,-1
 434 267 l 1,40,-1
 494 226 l 2,0,1
381 140 m 1,41,-1
 458 193 l 1,42,-1
 381 245 l 1,43,-1
 399 336 l 1,44,-1
 308 318 l 1,45,-1
 256 395 l 1,46,-1
 204 318 l 1,47,-1
 113 336 l 1,48,-1
 131 245 l 1,49,-1
 54 193 l 1,50,-1
 131 141 l 1,51,-1
 113 49 l 1,52,-1
 204 67 l 1,53,-1
 256 -10 l 1,54,-1
 308 67 l 1,55,-1
 399 49 l 1,56,-1
 381 140 l 1,41,-1
256 296 m 128,-1,58
 299 296 299 296 329.5 265.5 c 128,-1,59
 360 235 360 235 360 192 c 128,-1,60
 360 149 360 149 329.5 118.5 c 128,-1,61
 299 88 299 88 256 88 c 128,-1,62
 213 88 213 88 182.5 118.5 c 128,-1,63
 152 149 152 149 152 192 c 128,-1,64
 152 235 152 235 182.5 265.5 c 128,-1,57
 213 296 213 296 256 296 c 128,-1,58
256 136 m 128,-1,66
 279 136 279 136 295.5 152.5 c 128,-1,67
 312 169 312 169 312 192 c 128,-1,68
 312 215 312 215 295.5 231.5 c 128,-1,69
 279 248 279 248 256 248 c 128,-1,70
 233 248 233 248 216.5 231.5 c 128,-1,71
 200 215 200 215 200 192 c 128,-1,72
 200 169 200 169 216.5 152.5 c 128,-1,65
 233 136 233 136 256 136 c 128,-1,66
EndSplineSet
EndChar

StartChar: moon
Encoding: 61830 61830 58
Width: 512
GlyphClass: 3
Flags: W
LayerCount: 2
Fore
SplineSet
279 -64 m 0,0,1
 173 -64 173 -64 98 11 c 128,-1,2
 23 86 23 86 23 192 c 128,-1,3
 23 298 23 298 98 373 c 128,-1,4
 173 448 173 448 279 448 c 0,5,6
 303 448 303 448 326 444 c 0,7,8
 347 440 347 440 358 422.5 c 128,-1,9
 369 405 369 405 364.5 385 c 128,-1,10
 360 365 360 365 341 355 c 0,11,12
 310 337 310 337 291.5 306 c 128,-1,13
 273 275 273 275 273 239 c 0,14,15
 273 176 273 176 321.5 136 c 128,-1,16
 370 96 370 96 432 108 c 0,17,18
 465 114 465 114 482 85.5 c 128,-1,19
 499 57 499 57 478 31 c 0,20,21
 442 -14 442 -14 390 -39 c 128,-1,22
 338 -64 338 -64 279 -64 c 0,0,1
279 400 m 0,23,24
 193 400 193 400 132 339 c 128,-1,25
 71 278 71 278 71 192 c 128,-1,26
 71 106 71 106 132 45 c 128,-1,27
 193 -16 193 -16 279 -16 c 0,28,29
 327 -16 327 -16 369.5 4.5 c 128,-1,30
 412 25 412 25 441 61 c 1,31,32
 357 45 357 45 291 99.5 c 128,-1,33
 225 154 225 154 225 239 c 0,34,35
 225 289 225 289 250 331 c 128,-1,36
 275 373 275 373 317 397 c 1,37,38
 298 400 298 400 279 400 c 0,23,24
EndSplineSet
EndChar

StartChar: caret-square-left
Encoding: 61841 61841 59
Width: 448
GlyphClass: 3
Flags: W
LayerCount: 2
Fore
SplineSet
272 291 m 2,0,-1
 272 93 l 2,1,2
 272 85 272 85 264.5 82 c 128,-1,3
 257 79 257 79 252 85 c 2,4,-1
 153 184 l 2,5,6
 145 192 145 192 153 200 c 2,7,-1
 252 299 l 2,8,9
 257 305 257 305 264.5 302 c 128,-1,10
 272 299 272 299 272 291 c 2,0,-1
448 368 m 2,11,-1
 448 16 l 2,12,13
 448 -4 448 -4 434 -18 c 128,-1,14
 420 -32 420 -32 400 -32 c 2,15,-1
 48 -32 l 2,16,17
 28 -32 28 -32 14 -18 c 128,-1,18
 0 -4 0 -4 0 16 c 2,19,-1
 0 368 l 2,20,21
 0 388 0 388 14 402 c 128,-1,22
 28 416 28 416 48 416 c 2,23,-1
 400 416 l 2,24,25
 420 416 420 416 434 402 c 128,-1,26
 448 388 448 388 448 368 c 2,11,-1
400 22 m 2,27,-1
 400 362 l 2,28,29
 400 368 400 368 394 368 c 2,30,-1
 54 368 l 2,31,32
 48 368 48 368 48 362 c 2,33,-1
 48 22 l 2,34,35
 48 16 48 16 54 16 c 2,36,-1
 394 16 l 2,37,38
 400 16 400 16 400 22 c 2,27,-1
EndSplineSet
EndChar

StartChar: dot-circle
Encoding: 61842 61842 60
Width: 512
GlyphClass: 3
Flags: W
LayerCount: 2
Fore
SplineSet
256 392 m 128,-1,1
 173 392 173 392 114.5 333.5 c 128,-1,2
 56 275 56 275 56 192 c 128,-1,3
 56 109 56 109 114.5 50.5 c 128,-1,4
 173 -8 173 -8 256 -8 c 128,-1,5
 339 -8 339 -8 397.5 50.5 c 128,-1,6
 456 109 456 109 456 192 c 128,-1,7
 456 275 456 275 397.5 333.5 c 128,-1,0
 339 392 339 392 256 392 c 128,-1,1
256 440 m 128,-1,9
 359 440 359 440 431.5 367.5 c 128,-1,10
 504 295 504 295 504 192 c 128,-1,11
 504 89 504 89 431.5 16.5 c 128,-1,12
 359 -56 359 -56 256 -56 c 128,-1,13
 153 -56 153 -56 80.5 16.5 c 128,-1,14
 8 89 8 89 8 192 c 128,-1,15
 8 295 8 295 80.5 367.5 c 128,-1,8
 153 440 153 440 256 440 c 128,-1,9
256 272 m 128,-1,17
 289 272 289 272 312.5 248.5 c 128,-1,18
 336 225 336 225 336 192 c 128,-1,19
 336 159 336 159 312.5 135.5 c 128,-1,20
 289 112 289 112 256 112 c 128,-1,21
 223 112 223 112 199.5 135.5 c 128,-1,22
 176 159 176 159 176 192 c 128,-1,23
 176 225 176 225 199.5 248.5 c 128,-1,16
 223 272 223 272 256 272 c 128,-1,17
EndSplineSet
EndChar

StartChar: building
Encoding: 61869 61869 61
Width: 448
GlyphClass: 3
Flags: W
LayerCount: 2
Fore
SplineSet
128 300 m 2,0,-1
 128 340 l 2,1,2
 128 352 128 352 140 352 c 2,3,-1
 180 352 l 2,4,5
 192 352 192 352 192 340 c 2,6,-1
 192 300 l 2,7,8
 192 288 192 288 180 288 c 2,9,-1
 140 288 l 2,10,11
 128 288 128 288 128 300 c 2,0,-1
268 288 m 2,12,13
 256 288 256 288 256 300 c 2,14,-1
 256 340 l 2,15,16
 256 352 256 352 268 352 c 2,17,-1
 308 352 l 2,18,19
 320 352 320 352 320 340 c 2,20,-1
 320 300 l 2,21,22
 320 288 320 288 308 288 c 2,23,-1
 268 288 l 2,12,13
140 192 m 2,24,25
 128 192 128 192 128 204 c 2,26,-1
 128 244 l 2,27,28
 128 256 128 256 140 256 c 2,29,-1
 180 256 l 2,30,31
 192 256 192 256 192 244 c 2,32,-1
 192 204 l 2,33,34
 192 192 192 192 180 192 c 2,35,-1
 140 192 l 2,24,25
268 192 m 2,36,37
 256 192 256 192 256 204 c 2,38,-1
 256 244 l 2,39,40
 256 256 256 256 268 256 c 2,41,-1
 308 256 l 2,42,43
 320 256 320 256 320 244 c 2,44,-1
 320 204 l 2,45,46
 320 192 320 192 308 192 c 2,47,-1
 268 192 l 2,36,37
192 108 m 2,48,49
 192 96 192 96 180 96 c 2,50,-1
 140 96 l 2,51,52
 128 96 128 96 128 108 c 2,53,-1
 128 148 l 2,54,55
 128 160 128 160 140 160 c 2,56,-1
 180 160 l 2,57,58
 192 160 192 160 192 148 c 2,59,-1
 192 108 l 2,48,49
268 96 m 2,60,61
 256 96 256 96 256 108 c 2,62,-1
 256 148 l 2,63,64
 256 160 256 160 268 160 c 2,65,-1
 308 160 l 2,66,67
 320 160 320 160 320 148 c 2,68,-1
 320 108 l 2,69,70
 320 96 320 96 308 96 c 2,71,-1
 268 96 l 2,60,61
448 -28 m 2,72,-1
 448 -64 l 1,73,-1
 0 -64 l 1,74,-1
 0 -28 l 2,75,76
 0 -16 0 -16 12 -16 c 2,77,-1
 32 -16 l 1,78,-1
 32 424 l 2,79,80
 32 434 32 434 39 441 c 128,-1,81
 46 448 46 448 56 448 c 2,82,-1
 392 448 l 2,83,84
 402 448 402 448 409 441 c 128,-1,85
 416 434 416 434 416 424 c 2,86,-1
 416 -16 l 1,87,-1
 436 -16 l 2,88,89
 448 -16 448 -16 448 -28 c 2,72,-1
80 -15 m 1,90,-1
 192 -15 l 1,91,-1
 192 52 l 2,92,93
 192 64 192 64 204 64 c 2,94,-1
 244 64 l 2,95,96
 256 64 256 64 256 52 c 2,97,-1
 256 -15 l 1,98,-1
 368 -15 l 1,99,-1
 368 399 l 1,100,-1
 80 400 l 1,101,-1
 80 -15 l 1,90,-1
EndSplineSet
EndChar

StartChar: file-pdf
Encoding: 61889 61889 62
Width: 384
GlyphClass: 3
Flags: W
LayerCount: 2
Fore
SplineSet
370 350 m 2,0,1
 384 336 384 336 384 316 c 2,2,-1
 384 -16 l 2,3,4
 384 -36 384 -36 370 -50 c 128,-1,5
 356 -64 356 -64 336 -64 c 2,6,-1
 48 -64 l 2,7,8
 28 -64 28 -64 14 -50 c 128,-1,9
 0 -36 0 -36 0 -16 c 2,10,-1
 0 400 l 2,11,12
 0 420 0 420 14 434 c 128,-1,13
 28 448 28 448 48 448 c 2,14,-1
 252 448 l 2,15,16
 272 448 272 448 286 434 c 2,17,-1
 370 350 l 2,0,1
332 320 m 1,18,-1
 256 396 l 1,19,-1
 256 320 l 1,20,-1
 332 320 l 1,18,-1
48 -16 m 1,21,-1
 336 -16 l 1,22,-1
 336 272 l 1,23,-1
 232 272 l 2,24,25
 222 272 222 272 215 279 c 128,-1,26
 208 286 208 286 208 296 c 2,27,-1
 208 400 l 1,28,-1
 48 400 l 1,29,-1
 48 -16 l 1,21,-1
298 128 m 0,30,31
 308 120 308 120 303 104.5 c 128,-1,32
 298 89 298 89 281 89 c 0,33,34
 256 89 256 89 225 106 c 1,35,36
 210 103 210 103 156 86 c 1,37,38
 117 18 117 18 90 35 c 0,39,40
 78 42 78 42 80 55 c 0,41,42
 85 77 85 77 131 101 c 1,43,44
 147 129 147 129 167 175 c 1,45,46
 154 223 154 223 160 242 c 0,47,48
 163 257 163 257 181 256 c 128,-1,49
 199 255 199 255 202 236 c 0,50,51
 207 222 207 222 197 180 c 1,52,53
 209 149 209 149 234 134 c 1,54,55
 285 141 285 141 298 128 c 0,30,31
100 50 m 0,56,57
 100 49 100 49 103.5 51.5 c 128,-1,58
 107 54 107 54 114.5 62.5 c 128,-1,59
 122 71 122 71 130 85 c 1,60,61
 104 60 104 60 100 50 c 0,56,57
182 240 m 0,62,63
 180 240 180 240 180 233 c 128,-1,64
 180 226 180 226 180.5 216 c 128,-1,65
 181 206 181 206 184 200 c 1,66,67
 187 206 187 206 187 223 c 128,-1,68
 187 240 187 240 182 240 c 0,62,63
157 104 m 1,69,70
 202 121 202 121 212 123 c 1,71,72
 194 136 194 136 182 159 c 1,73,74
 169 124 169 124 157 104 c 1,69,70
289 109 m 2,75,76
 294 112 294 112 283.5 115 c 128,-1,77
 273 118 273 118 252 117 c 1,78,79
 266 111 266 111 275.5 109 c 128,-1,80
 285 107 285 107 287 108 c 2,81,-1
 289 109 l 2,75,76
EndSplineSet
EndChar

StartChar: file-word
Encoding: 61890 61890 63
Width: 384
GlyphClass: 3
Flags: W
LayerCount: 2
Fore
SplineSet
370 350 m 2,0,1
 384 336 384 336 384 316 c 2,2,-1
 384 -16 l 2,3,4
 384 -36 384 -36 370 -50 c 128,-1,5
 356 -64 356 -64 336 -64 c 2,6,-1
 48 -64 l 2,7,8
 28 -64 28 -64 14 -50 c 128,-1,9
 0 -36 0 -36 0 -16 c 2,10,-1
 0 400 l 2,11,12
 0 420 0 420 14 434 c 128,-1,13
 28 448 28 448 48 448 c 2,14,-1
 252 448 l 2,15,16
 272 448 272 448 286 434 c 2,17,-1
 370 350 l 2,0,1
332 320 m 1,18,-1
 256 396 l 1,19,-1
 256 320 l 1,20,-1
 332 320 l 1,18,-1
48 -16 m 1,21,-1
 336 -16 l 1,22,-1
 336 272 l 1,23,-1
 232 272 l 2,24,25
 222 272 222 272 215 279 c 128,-1,26
 208 286 208 286 208 296 c 2,27,-1
 208 400 l 1,28,-1
 48 400 l 1,29,-1
 48 -16 l 1,21,-1
268 192 m 2,30,-1
 284 192 l 2,31,32
 288 192 288 192 291 190 c 128,-1,33
 294 188 294 188 295 184.5 c 128,-1,34
 296 181 296 181 296 177 c 0,35,36
 286 139 286 139 261 41 c 0,37,38
 259 32 259 32 249 32 c 2,39,-1
 225 32 l 2,40,41
 215 32 215 32 213 41 c 0,42,43
 206 70 206 70 195 113 c 2,44,-1
 192 130 l 1,45,46
 192 122 192 122 189 113 c 2,47,-1
 171 41 l 2,48,49
 169 32 169 32 160 32 c 2,50,-1
 135 32 l 2,51,52
 125 32 125 32 123 41 c 0,53,54
 120 52 120 52 113.5 79.5 c 128,-1,55
 107 107 107 107 100 135 c 128,-1,56
 93 163 93 163 90 177 c 0,57,58
 88 183 88 183 92 187.5 c 128,-1,59
 96 192 96 192 101 192 c 2,60,-1
 118 192 l 2,61,62
 128 192 128 192 130 182 c 0,63,64
 149 86 149 86 149 83 c 0,65,66
 149 82 149 82 150 79 c 1,67,68
 150 85 150 85 174 183 c 0,69,70
 177 192 177 192 186 192 c 2,71,-1
 199 192 l 2,72,73
 209 192 209 192 211 183 c 0,74,75
 234 86 234 86 235 83 c 0,76,77
 235 82 235 82 235 80.5 c 128,-1,78
 235 79 235 79 235 79 c 1,79,80
 236 85 236 85 256 182 c 0,81,82
 258 192 258 192 268 192 c 2,30,-1
EndSplineSet
EndChar

StartChar: file-excel
Encoding: 61891 61891 64
Width: 384
GlyphClass: 3
Flags: W
LayerCount: 2
Fore
SplineSet
370 350 m 2,0,1
 384 336 384 336 384 316 c 2,2,-1
 384 -16 l 2,3,4
 384 -36 384 -36 370 -50 c 128,-1,5
 356 -64 356 -64 336 -64 c 2,6,-1
 48 -64 l 2,7,8
 28 -64 28 -64 14 -50 c 128,-1,9
 0 -36 0 -36 0 -16 c 2,10,-1
 0 400 l 2,11,12
 0 420 0 420 14 434 c 128,-1,13
 28 448 28 448 48 448 c 2,14,-1
 252 448 l 2,15,16
 272 448 272 448 286 434 c 2,17,-1
 370 350 l 2,0,1
332 320 m 1,18,-1
 256 396 l 1,19,-1
 256 320 l 1,20,-1
 332 320 l 1,18,-1
48 -16 m 1,21,-1
 336 -16 l 1,22,-1
 336 272 l 1,23,-1
 232 272 l 2,24,25
 222 272 222 272 215 279 c 128,-1,26
 208 286 208 286 208 296 c 2,27,-1
 208 400 l 1,28,-1
 48 400 l 1,29,-1
 48 -16 l 1,21,-1
260 224 m 2,30,31
 267 224 267 224 270.5 218 c 128,-1,32
 274 212 274 212 270 206 c 0,33,34
 235 145 235 145 224 128 c 1,35,-1
 270 50 l 2,36,37
 274 44 274 44 270.5 38 c 128,-1,38
 267 32 267 32 260 32 c 2,39,-1
 231 32 l 2,40,41
 224 32 224 32 221 38 c 0,42,43
 219 41 219 41 192 96 c 1,44,45
 180 69 180 69 163 38 c 0,46,47
 160 32 160 32 153 32 c 2,48,-1
 124 32 l 2,49,50
 117 32 117 32 113.5 38 c 128,-1,51
 110 44 110 44 114 50 c 2,52,-1
 160 128 l 1,53,-1
 114 206 l 2,54,55
 110 212 110 212 113.5 218 c 128,-1,56
 117 224 117 224 124 224 c 2,57,-1
 153 224 l 2,58,59
 160 224 160 224 164 218 c 0,60,61
 173 200 173 200 192 160 c 1,62,63
 201 182 201 182 221 218 c 0,64,65
 224 224 224 224 231 224 c 2,66,-1
 260 224 l 2,30,31
EndSplineSet
EndChar

StartChar: file-powerpoint
Encoding: 61892 61892 65
Width: 384
GlyphClass: 3
Flags: W
LayerCount: 2
Fore
SplineSet
370 350 m 2,0,1
 384 336 384 336 384 316 c 2,2,-1
 384 -16 l 2,3,4
 384 -36 384 -36 370 -50 c 128,-1,5
 356 -64 356 -64 336 -64 c 2,6,-1
 48 -64 l 2,7,8
 28 -64 28 -64 14 -50 c 128,-1,9
 0 -36 0 -36 0 -16 c 2,10,-1
 0 400 l 2,11,12
 0 420 0 420 14 434 c 128,-1,13
 28 448 28 448 48 448 c 2,14,-1
 252 448 l 2,15,16
 272 448 272 448 286 434 c 2,17,-1
 370 350 l 2,0,1
332 320 m 1,18,-1
 256 396 l 1,19,-1
 256 320 l 1,20,-1
 332 320 l 1,18,-1
48 -16 m 1,21,-1
 336 -16 l 1,22,-1
 336 272 l 1,23,-1
 232 272 l 2,24,25
 222 272 222 272 215 279 c 128,-1,26
 208 286 208 286 208 296 c 2,27,-1
 208 400 l 1,28,-1
 48 400 l 1,29,-1
 48 -16 l 1,21,-1
120 44 m 2,30,-1
 120 212 l 2,31,32
 120 224 120 224 132 224 c 2,33,-1
 201 224 l 2,34,35
 229 224 229 224 246.5 205.5 c 128,-1,36
 264 187 264 187 264 158 c 0,37,38
 264 147 264 147 262 138 c 128,-1,39
 260 129 260 129 257 122.5 c 128,-1,40
 254 116 254 116 248.5 110.5 c 128,-1,41
 243 105 243 105 238.5 102 c 128,-1,42
 234 99 234 99 226.5 96.5 c 128,-1,43
 219 94 219 94 214 93 c 128,-1,44
 209 92 209 92 201 91.5 c 128,-1,45
 193 91 193 91 189 91 c 128,-1,46
 185 91 185 91 177.5 91 c 128,-1,47
 170 91 170 91 168 91 c 1,48,-1
 168 44 l 2,49,50
 168 39 168 39 164.5 35.5 c 128,-1,51
 161 32 161 32 156 32 c 2,52,-1
 132 32 l 2,53,54
 120 32 120 32 120 44 c 2,30,-1
168 131 m 1,55,-1
 192 131 l 2,56,57
 203 131 203 131 209.5 138.5 c 128,-1,58
 216 146 216 146 216 157.5 c 128,-1,59
 216 169 216 169 209.5 176 c 128,-1,60
 203 183 203 183 192 183 c 2,61,-1
 168 183 l 1,62,-1
 168 131 l 1,55,-1
EndSplineSet
EndChar

StartChar: file-image
Encoding: 61893 61893 66
Width: 384
GlyphClass: 3
Flags: W
LayerCount: 2
Fore
SplineSet
370 350 m 2,0,1
 384 336 384 336 384 316 c 2,2,-1
 384 -16 l 2,3,4
 384 -36 384 -36 370 -50 c 128,-1,5
 356 -64 356 -64 336 -64 c 2,6,-1
 48 -64 l 2,7,8
 28 -64 28 -64 14 -50 c 128,-1,9
 0 -36 0 -36 0 -16 c 2,10,-1
 0 400 l 2,11,12
 0 420 0 420 14 434 c 128,-1,13
 28 448 28 448 48 448 c 2,14,-1
 252 448 l 2,15,16
 272 448 272 448 286 434 c 2,17,-1
 370 350 l 2,0,1
332 320 m 1,18,-1
 256 396 l 1,19,-1
 256 320 l 1,20,-1
 332 320 l 1,18,-1
48 -16 m 1,21,-1
 336 -16 l 1,22,-1
 336 272 l 1,23,-1
 232 272 l 2,24,25
 222 272 222 272 215 279 c 128,-1,26
 208 286 208 286 208 296 c 2,27,-1
 208 400 l 1,28,-1
 48 400 l 1,29,-1
 48 -16 l 1,21,-1
80 32 m 1,30,-1
 80 96 l 1,31,-1
 120 136 l 2,32,33
 128 144 128 144 136 136 c 2,34,-1
 176 96 l 1,35,-1
 264 184 l 2,36,37
 272 192 272 192 280 184 c 2,38,-1
 304 160 l 1,39,-1
 304 32 l 1,40,-1
 80 32 l 1,30,-1
128 272 m 128,-1,42
 148 272 148 272 162 258 c 128,-1,43
 176 244 176 244 176 224 c 128,-1,44
 176 204 176 204 162 190 c 128,-1,45
 148 176 148 176 128 176 c 128,-1,46
 108 176 108 176 94 190 c 128,-1,47
 80 204 80 204 80 224 c 128,-1,48
 80 244 80 244 94 258 c 128,-1,41
 108 272 108 272 128 272 c 128,-1,42
EndSplineSet
EndChar

StartChar: file-archive
Encoding: 61894 61894 67
Width: 384
GlyphClass: 3
Flags: W
LayerCount: 2
Fore
SplineSet
128 288 m 1,0,-1
 160 288 l 1,1,-1
 160 256 l 1,2,-1
 128 256 l 1,3,-1
 128 288 l 1,0,-1
192 384 m 1,4,-1
 192 352 l 1,5,-1
 160 352 l 1,6,-1
 160 384 l 1,7,-1
 192 384 l 1,4,-1
128 352 m 1,8,-1
 160 352 l 1,9,-1
 160 320 l 1,10,-1
 128 320 l 1,11,-1
 128 352 l 1,8,-1
192 320 m 1,12,-1
 192 288 l 1,13,-1
 160 288 l 1,14,-1
 160 320 l 1,15,-1
 192 320 l 1,12,-1
370 350 m 2,16,17
 384 336 384 336 384 316 c 2,18,-1
 384 -16 l 2,19,20
 384 -36 384 -36 370 -50 c 128,-1,21
 356 -64 356 -64 336 -64 c 2,22,-1
 48 -64 l 2,23,24
 28 -64 28 -64 14 -50 c 128,-1,25
 0 -36 0 -36 0 -16 c 2,26,-1
 0 400 l 2,27,28
 0 420 0 420 14 434 c 128,-1,29
 28 448 28 448 48 448 c 2,30,-1
 252 448 l 2,31,32
 272 448 272 448 286 434 c 2,33,-1
 370 350 l 2,16,17
256 396 m 1,34,-1
 256 320 l 1,35,-1
 332 320 l 1,36,-1
 256 396 l 1,34,-1
336 -16 m 1,37,-1
 336 272 l 1,38,-1
 232 272 l 2,39,40
 222 272 222 272 215 279 c 128,-1,41
 208 286 208 286 208 296 c 2,42,-1
 208 400 l 1,43,-1
 160 400 l 1,44,-1
 160 384 l 1,45,-1
 128 384 l 1,46,-1
 128 400 l 1,47,-1
 48 400 l 1,48,-1
 48 -16 l 1,49,-1
 336 -16 l 1,37,-1
194 182 m 2,50,-1
 212 95 l 2,51,52
 215 79 215 79 208.5 64.5 c 128,-1,53
 202 50 202 50 189 41 c 128,-1,54
 176 32 176 32 160 32 c 0,55,56
 135 32 135 32 119.5 51.5 c 128,-1,57
 104 71 104 71 109 95 c 2,58,-1
 128 192 l 1,59,-1
 128 224 l 1,60,-1
 160 224 l 1,61,-1
 160 192 l 1,62,-1
 182 192 l 2,63,64
 192 192 192 192 194 182 c 2,50,-1
160.5 58 m 128,-1,66
 174 58 174 58 183.5 66 c 128,-1,67
 193 74 193 74 193 85 c 0,68,69
 193 92 193 92 188.5 98.5 c 128,-1,70
 184 105 184 105 176.5 108.5 c 128,-1,71
 169 112 169 112 160 112 c 128,-1,72
 151 112 151 112 144 108.5 c 128,-1,73
 137 105 137 105 132.5 98.5 c 128,-1,74
 128 92 128 92 128 85 c 0,75,76
 128 74 128 74 137.5 66 c 128,-1,65
 147 58 147 58 160.5 58 c 128,-1,66
192 256 m 1,77,-1
 192 224 l 1,78,-1
 160 224 l 1,79,-1
 160 256 l 1,80,-1
 192 256 l 1,77,-1
EndSplineSet
EndChar

StartChar: file-audio
Encoding: 61895 61895 68
Width: 384
GlyphClass: 3
Flags: W
LayerCount: 2
Fore
SplineSet
370 350 m 2,0,1
 384 336 384 336 384 316 c 2,2,-1
 384 -16 l 2,3,4
 384 -36 384 -36 370 -50 c 128,-1,5
 356 -64 356 -64 336 -64 c 2,6,-1
 48 -64 l 2,7,8
 28 -64 28 -64 14 -50 c 128,-1,9
 0 -36 0 -36 0 -16 c 2,10,-1
 0 400 l 2,11,12
 0 420 0 420 14 434 c 128,-1,13
 28 448 28 448 48 448 c 2,14,-1
 252 448 l 2,15,16
 272 448 272 448 286 434 c 2,17,-1
 370 350 l 2,0,1
332 320 m 1,18,-1
 256 396 l 1,19,-1
 256 320 l 1,20,-1
 332 320 l 1,18,-1
48 -16 m 1,21,-1
 336 -16 l 1,22,-1
 336 272 l 1,23,-1
 232 272 l 2,24,25
 222 272 222 272 215 279 c 128,-1,26
 208 286 208 286 208 296 c 2,27,-1
 208 400 l 1,28,-1
 48 400 l 1,29,-1
 48 -16 l 1,21,-1
192 60 m 2,30,31
 192 52 192 52 184.5 49 c 128,-1,32
 177 46 177 46 172 52 c 2,33,-1
 136 88 l 1,34,-1
 108 88 l 2,35,36
 103 88 103 88 99.5 91.5 c 128,-1,37
 96 95 96 95 96 100 c 2,38,-1
 96 156 l 2,39,40
 96 160 96 160 99.5 164 c 128,-1,41
 103 168 103 168 108 168 c 2,42,-1
 136 168 l 1,43,-1
 172 204 l 2,44,45
 177 210 177 210 184.5 207 c 128,-1,46
 192 204 192 204 192 196 c 2,47,-1
 192 60 l 2,30,31
233 107 m 0,48,49
 240 114 240 114 240 124 c 128,-1,50
 240 134 240 134 233 141 c 0,51,52
 223 151 223 151 227.5 164.5 c 128,-1,53
 232 178 232 178 244 181 c 128,-1,54
 256 184 256 184 268 174 c 0,55,56
 288 153 288 153 288 124 c 128,-1,57
 288 95 288 95 268 74 c 0,58,59
 257 63 257 63 244 67 c 128,-1,60
 231 71 231 71 227.5 83 c 128,-1,61
 224 95 224 95 233 107 c 0,48,49
EndSplineSet
EndChar

StartChar: file-video
Encoding: 61896 61896 69
Width: 384
GlyphClass: 3
Flags: W
LayerCount: 2
Fore
SplineSet
370 350 m 2,0,1
 384 336 384 336 384 316 c 2,2,-1
 384 -16 l 2,3,4
 384 -36 384 -36 370 -50 c 128,-1,5
 356 -64 356 -64 336 -64 c 2,6,-1
 48 -64 l 2,7,8
 28 -64 28 -64 14 -50 c 128,-1,9
 0 -36 0 -36 0 -16 c 2,10,-1
 0 400 l 2,11,12
 0 420 0 420 14 434 c 128,-1,13
 28 448 28 448 48 448 c 2,14,-1
 252 448 l 2,15,16
 272 448 272 448 286 434 c 2,17,-1
 370 350 l 2,0,1
332 320 m 1,18,-1
 256 396 l 1,19,-1
 256 320 l 1,20,-1
 332 320 l 1,18,-1
48 -16 m 1,21,-1
 336 -16 l 1,22,-1
 336 272 l 1,23,-1
 232 272 l 2,24,25
 222 272 222 272 215 279 c 128,-1,26
 208 286 208 286 208 296 c 2,27,-1
 208 400 l 1,28,-1
 48 400 l 1,29,-1
 48 -16 l 1,21,-1
277 195 m 2,30,31
 284 203 284 203 294 199 c 128,-1,32
 304 195 304 195 304 184 c 2,33,-1
 304 72 l 2,34,35
 304 61 304 61 294 57 c 128,-1,36
 284 53 284 53 277 61 c 2,37,-1
 224 113 l 1,38,-1
 224 76 l 2,39,40
 224 68 224 68 218 62 c 128,-1,41
 212 56 212 56 204 56 c 2,42,-1
 100 56 l 2,43,44
 92 56 92 56 86 62 c 128,-1,45
 80 68 80 68 80 76 c 2,46,-1
 80 180 l 2,47,48
 80 188 80 188 86 194 c 128,-1,49
 92 200 92 200 100 200 c 2,50,-1
 204 200 l 2,51,52
 212 200 212 200 218 194 c 128,-1,53
 224 188 224 188 224 180 c 2,54,-1
 224 143 l 1,55,-1
 277 195 l 2,30,31
EndSplineSet
EndChar

StartChar: file-code
Encoding: 61897 61897 70
Width: 384
GlyphClass: 3
Flags: W
LayerCount: 2
Fore
SplineSet
150 99 m 2,0,1
 156 93 156 93 150 86 c 2,2,-1
 133 68 l 2,3,4
 130 65 130 65 126 65 c 0,5,6
 123 65 123 65 120 68 c 2,7,-1
 63 122 l 2,8,9
 56 128 56 128 63 134 c 2,10,-1
 120 188 l 2,11,12
 127 195 127 195 133 188 c 2,13,-1
 150 170 l 1,14,-1
 150 169 l 1,15,16
 156 163 156 163 150 157 c 2,17,-1
 117 128 l 1,18,-1
 150 99 l 2,0,1
370 350 m 2,19,20
 384 336 384 336 384 316 c 2,21,-1
 384 -16 l 2,22,23
 384 -36 384 -36 370 -50 c 128,-1,24
 356 -64 356 -64 336 -64 c 2,25,-1
 48 -64 l 2,26,27
 28 -64 28 -64 14 -50 c 128,-1,28
 0 -36 0 -36 0 -16 c 2,29,-1
 0 400 l 2,30,31
 0 420 0 420 14 434 c 128,-1,32
 28 448 28 448 48 448 c 2,33,-1
 252 448 l 2,34,35
 272 448 272 448 286 434 c 2,36,-1
 370 350 l 2,19,20
256 396 m 1,37,-1
 256 320 l 1,38,-1
 332 320 l 1,39,-1
 256 396 l 1,37,-1
336 -16 m 1,40,-1
 336 272 l 1,41,-1
 232 272 l 2,42,43
 222 272 222 272 215 279 c 128,-1,44
 208 286 208 286 208 296 c 2,45,-1
 208 400 l 1,46,-1
 48 400 l 1,47,-1
 48 -16 l 1,48,-1
 336 -16 l 1,40,-1
210 234 m 2,49,-1
 234 227 l 2,50,51
 243 225 243 225 240 216 c 2,52,-1
 185 28 l 2,53,54
 183 19 183 19 174 22 c 2,55,-1
 150 29 l 2,56,57
 141 31 141 31 144 40 c 2,58,-1
 199 228 l 2,59,60
 201 236 201 236 210 234 c 2,49,-1
234 157 m 2,61,62
 228 163 228 163 234 170 c 2,63,-1
 251 188 l 2,64,65
 257 195 257 195 264 188 c 2,66,-1
 321 134 l 2,67,68
 328 128 328 128 321 122 c 2,69,-1
 264 68 l 2,70,71
 257 61 257 61 251 68 c 2,72,-1
 234 86 l 1,73,-1
 234 87 l 1,74,75
 228 93 228 93 234 99 c 2,76,-1
 267 128 l 1,77,-1
 234 157 l 2,61,62
EndSplineSet
EndChar

StartChar: life-ring
Encoding: 61901 61901 71
Width: 512
GlyphClass: 3
Flags: W
LayerCount: 2
Fore
SplineSet
256 -56 m 128,-1,1
 153 -56 153 -56 80.5 16.5 c 128,-1,2
 8 89 8 89 8 192 c 128,-1,3
 8 295 8 295 80.5 367.5 c 128,-1,4
 153 440 153 440 256 440 c 128,-1,5
 359 440 359 440 431.5 367.5 c 128,-1,6
 504 295 504 295 504 192 c 128,-1,7
 504 89 504 89 431.5 16.5 c 128,-1,0
 359 -56 359 -56 256 -56 c 128,-1,1
153 21 m 1,8,9
 200 -8 200 -8 256 -8 c 128,-1,10
 312 -8 312 -8 359 21 c 1,11,-1
 306 74 l 1,12,13
 256 53 256 53 206 74 c 1,14,-1
 153 21 l 1,8,9
336 192 m 128,-1,16
 336 225 336 225 312.5 248.5 c 128,-1,17
 289 272 289 272 256 272 c 128,-1,18
 223 272 223 272 199.5 248.5 c 128,-1,19
 176 225 176 225 176 192 c 128,-1,20
 176 159 176 159 199.5 135.5 c 128,-1,21
 223 112 223 112 256 112 c 128,-1,22
 289 112 289 112 312.5 135.5 c 128,-1,15
 336 159 336 159 336 192 c 128,-1,16
427 89 m 1,23,24
 456 136 456 136 456 192 c 128,-1,25
 456 248 456 248 427 295 c 1,26,-1
 374 242 l 1,27,28
 395 192 395 192 374 142 c 1,29,-1
 427 89 l 1,23,24
359 363 m 1,30,31
 312 392 312 392 256 392 c 128,-1,32
 200 392 200 392 153 363 c 1,33,-1
 206 310 l 1,34,35
 256 331 256 331 306 310 c 1,36,-1
 359 363 l 1,30,31
85 295 m 1,37,38
 56 248 56 248 56 192 c 128,-1,39
 56 136 56 136 85 89 c 1,40,-1
 138 142 l 1,41,42
 117 192 117 192 138 242 c 1,43,-1
 85 295 l 1,37,38
EndSplineSet
EndChar

StartChar: paper-plane
Encoding: 61912 61912 72
Width: 512
GlyphClass: 3
Flags: W
LayerCount: 2
Fore
SplineSet
440 442 m 2,0,1
 466 456 466 456 491 439.5 c 128,-1,2
 516 423 516 423 512 393 c 2,3,-1
 452 5 l 2,4,5
 448 -18 448 -18 428 -29 c 0,6,7
 417 -35 417 -35 405 -35 c 0,8,9
 395 -35 395 -35 386 -32 c 2,10,-1
 274 14 l 1,11,-1
 231 -45 l 2,12,13
 217 -62 217 -62 196.5 -64 c 128,-1,14
 176 -66 176 -66 160 -52 c 128,-1,15
 144 -38 144 -38 144 -16 c 2,16,-1
 144 68 l 1,17,-1
 30 116 l 2,18,19
 2 127 2 127 0 157 c 128,-1,20
 -2 187 -2 187 24 202 c 2,21,-1
 440 442 l 2,0,1
192 -16 m 1,22,-1
 229 34 l 1,23,-1
 192 49 l 1,24,-1
 192 -16 l 1,22,-1
405 13 m 1,25,-1
 464 400 l 1,26,-1
 48 160 l 1,27,-1
 156 115 l 1,28,-1
 367 300 l 2,29,30
 378 309 378 309 388.5 299.5 c 128,-1,31
 399 290 399 290 391 278 c 2,32,-1
 251 76 l 1,33,-1
 405 13 l 1,25,-1
EndSplineSet
EndChar

StartChar: futbol
Encoding: 61923 61923 73
Width: 496
GlyphClass: 3
Flags: W
LayerCount: 2
Fore
SplineSet
484 269 m 0,0,1
 516 171 516 171 469 79.5 c 128,-1,2
 422 -12 422 -12 325 -44 c 0,3,4
 287 -56 287 -56 248 -56 c 0,5,6
 169 -56 169 -56 103 -9 c 128,-1,7
 37 38 37 38 12 115 c 0,8,9
 -20 213 -20 213 27 304.5 c 128,-1,10
 74 396 74 396 171 428 c 0,11,12
 209 440 209 440 248 440 c 0,13,14
 300 440 300 440 347.5 419 c 128,-1,15
 395 398 395 398 431 359 c 128,-1,16
 467 320 467 320 484 269 c 0,0,1
409 75 m 1,17,18
 421 91 421 91 426 101 c 0,19,20
 447 143 447 143 448 190 c 1,21,-1
 409 227 l 1,22,-1
 338 205 l 1,23,-1
 313 129 l 1,24,-1
 357 68 l 1,25,-1
 409 75 l 1,17,18
409 310 m 1,26,27
 372 362 372 362 311 382 c 1,28,-1
 264 356 l 1,29,-1
 264 282 l 1,30,-1
 328 235 l 1,31,-1
 399 257 l 1,32,-1
 409 310 l 1,26,27
185 382 m 1,33,34
 125 362 125 362 87 310 c 1,35,-1
 97 257 l 1,36,-1
 168 235 l 1,37,-1
 232 282 l 1,38,-1
 232 356 l 1,39,-1
 185 382 l 1,33,34
139 68 m 1,40,-1
 182 130 l 1,41,-1
 158 204 l 1,42,-1
 87 227 l 1,43,-1
 48 190 l 1,44,45
 49 127 49 127 86 75 c 1,46,-1
 139 68 l 1,40,-1
187 2 m 1,47,48
 245 -17 245 -17 309 2 c 1,49,-1
 331 50 l 1,50,-1
 287 111 l 1,51,-1
 208 111 l 1,52,-1
 165 50 l 1,53,-1
 187 2 l 1,47,48
EndSplineSet
EndChar

StartChar: newspaper
Encoding: 61930 61930 74
Width: 576
GlyphClass: 3
Flags: W
LayerCount: 2
Fore
SplineSet
552 384 m 2,0,1
 562 384 562 384 569 377 c 128,-1,2
 576 370 576 370 576 360 c 2,3,-1
 576 24 l 2,4,5
 576 14 576 14 569 7 c 128,-1,6
 562 0 562 0 552 0 c 2,7,-1
 56 0 l 2,8,9
 33 0 33 0 16.5 16.5 c 128,-1,10
 0 33 0 33 0 56 c 2,11,-1
 0 328 l 2,12,13
 0 338 0 338 7 345 c 128,-1,14
 14 352 14 352 24 352 c 2,15,-1
 67 352 l 1,16,17
 72 366 72 366 84.5 375 c 128,-1,18
 97 384 97 384 112 384 c 2,19,-1
 552 384 l 2,0,1
48 56 m 2,20,21
 48 48 48 48 56 48 c 128,-1,22
 64 48 64 48 64 56 c 2,23,-1
 64 304 l 1,24,-1
 48 304 l 1,25,-1
 48 56 l 2,20,21
528 48 m 1,26,-1
 528 336 l 1,27,-1
 112 336 l 1,28,-1
 112 56 l 2,29,30
 112 52 112 52 111 48 c 1,31,-1
 528 48 l 1,26,-1
172 168 m 2,32,33
 160 168 160 168 160 180 c 2,34,-1
 160 276 l 2,35,36
 160 288 160 288 172 288 c 2,37,-1
 308 288 l 2,38,39
 320 288 320 288 320 276 c 2,40,-1
 320 180 l 2,41,42
 320 168 320 168 308 168 c 2,43,-1
 172 168 l 2,32,33
200 248 m 1,44,-1
 200 208 l 1,45,-1
 280 208 l 1,46,-1
 280 248 l 1,47,-1
 200 248 l 1,44,-1
160 108 m 2,48,-1
 160 132 l 2,49,50
 160 144 160 144 172 144 c 2,51,-1
 308 144 l 2,52,53
 320 144 320 144 320 132 c 2,54,-1
 320 108 l 2,55,56
 320 96 320 96 308 96 c 2,57,-1
 172 96 l 2,58,59
 160 96 160 96 160 108 c 2,48,-1
352 108 m 2,60,-1
 352 132 l 2,61,62
 352 144 352 144 364 144 c 2,63,-1
 468 144 l 2,64,65
 480 144 480 144 480 132 c 2,66,-1
 480 108 l 2,67,68
 480 96 480 96 468 96 c 2,69,-1
 364 96 l 2,70,71
 352 96 352 96 352 108 c 2,60,-1
352 252 m 2,72,-1
 352 276 l 2,73,74
 352 288 352 288 364 288 c 2,75,-1
 468 288 l 2,76,77
 480 288 480 288 480 276 c 2,78,-1
 480 252 l 2,79,80
 480 240 480 240 468 240 c 2,81,-1
 364 240 l 2,82,83
 352 240 352 240 352 252 c 2,72,-1
352 180 m 2,84,-1
 352 204 l 2,85,86
 352 216 352 216 364 216 c 2,87,-1
 468 216 l 2,88,89
 480 216 480 216 480 204 c 2,90,-1
 480 180 l 2,91,92
 480 168 480 168 468 168 c 2,93,-1
 364 168 l 2,94,95
 352 168 352 168 352 180 c 2,84,-1
EndSplineSet
EndChar

StartChar: bell-slash
Encoding: 61942 61942 75
Width: 640
GlyphClass: 3
Flags: W
LayerCount: 2
Fore
SplineSet
634 -23 m 2,0,1
 646 -33 646 -33 636 -46 c 2,2,-1
 626 -58 l 2,3,4
 616 -70 616 -70 604 -60 c 2,5,-1
 6 407 l 2,6,7
 -6 417 -6 417 4 430 c 2,8,-1
 14 442 l 2,9,10
 24 454 24 454 36 444 c 2,11,-1
 634 -23 l 2,0,1
164 80 m 1,12,-1
 346 80 l 1,13,-1
 408 32 l 1,14,-1
 128 32 l 2,15,16
 114 32 114 32 105 41.5 c 128,-1,17
 96 51 96 51 96 64 c 0,18,19
 96 76 96 76 105 86 c 0,20,21
 106 87 106 87 108 89 c 0,22,23
 116 98 116 98 120.5 103 c 128,-1,24
 125 108 125 108 133 121 c 128,-1,25
 141 134 141 134 145.5 147 c 128,-1,26
 150 160 150 160 154.5 181 c 128,-1,27
 159 202 159 202 159 226 c 1,28,-1
 205 191 l 1,29,30
 196 123 196 123 164 80 c 1,12,-1
320 352 m 0,31,32
 286 352 286 352 257 333 c 1,33,-1
 219 362 l 1,34,35
 250 387 250 387 288 395 c 1,36,-1
 288 416 l 2,37,38
 288 429 288 429 297.5 438.5 c 128,-1,39
 307 448 307 448 320 448 c 128,-1,40
 333 448 333 448 342.5 438.5 c 128,-1,41
 352 429 352 429 352 416 c 2,42,-1
 352 395 l 1,43,44
 389 388 389 388 418 366 c 128,-1,45
 447 344 447 344 463.5 311 c 128,-1,46
 480 278 480 278 480 240 c 0,47,48
 480 185 480 185 494 147 c 1,49,-1
 435 194 l 1,50,51
 432 217 432 217 432 239 c 0,52,53
 432 240 432 240 432 240 c 2,54,55
 432 286 432 286 399 319 c 128,-1,56
 366 352 366 352 320 352 c 0,31,32
320 -64 m 0,57,58
 294 -64 294 -64 275 -45.5 c 128,-1,59
 256 -27 256 -27 256 0 c 1,60,-1
 384 0 l 1,61,62
 384 -17 384 -17 375.5 -32 c 128,-1,63
 367 -47 367 -47 352 -55.5 c 128,-1,64
 337 -64 337 -64 320 -64 c 0,57,58
EndSplineSet
EndChar

StartChar: copyright
Encoding: 61945 61945 76
Width: 512
GlyphClass: 3
Flags: W
LayerCount: 2
Fore
SplineSet
256 440 m 128,-1,1
 359 440 359 440 431.5 367.5 c 128,-1,2
 504 295 504 295 504 192 c 128,-1,3
 504 89 504 89 431.5 16.5 c 128,-1,4
 359 -56 359 -56 256 -56 c 128,-1,5
 153 -56 153 -56 80.5 16.5 c 128,-1,6
 8 89 8 89 8 192 c 128,-1,7
 8 295 8 295 80.5 367.5 c 128,-1,0
 153 440 153 440 256 440 c 128,-1,1
256 -8 m 128,-1,9
 339 -8 339 -8 397.5 50.5 c 128,-1,10
 456 109 456 109 456 192 c 128,-1,11
 456 275 456 275 397.5 333.5 c 128,-1,12
 339 392 339 392 256 392 c 128,-1,13
 173 392 173 392 114.5 333.5 c 128,-1,14
 56 275 56 275 56 192 c 128,-1,15
 56 109 56 109 114.5 50.5 c 128,-1,8
 173 -8 173 -8 256 -8 c 128,-1,9
363 93 m 0,16,17
 322 52 322 52 259 52 c 0,18,19
 198 52 198 52 158.5 92.5 c 128,-1,20
 119 133 119 133 119 193 c 0,21,22
 119 232 119 232 137 264 c 128,-1,23
 155 296 155 296 187 314.5 c 128,-1,24
 219 333 219 333 259 333 c 0,25,26
 318 333 318 333 356 298 c 0,27,28
 360 294 360 294 360 289 c 0,29,30
 360 286 360 286 358 283 c 2,31,-1
 340 254 l 2,32,33
 333 243 333 243 322 252 c 0,34,35
 294 274 294 274 261 274 c 0,36,37
 237 274 237 274 219 263.5 c 128,-1,38
 201 253 201 253 192 234.5 c 128,-1,39
 183 216 183 216 183 194 c 0,40,41
 183 160 183 160 204 135 c 128,-1,42
 225 110 225 110 261 110 c 256,43,44
 297 110 297 110 327 137 c 0,45,46
 331 141 331 141 336 140.5 c 128,-1,47
 341 140 341 140 345 136 c 2,48,-1
 365 109 l 2,49,50
 367 105 367 105 367 101 c 256,51,52
 367 97 367 97 363 93 c 0,16,17
EndSplineSet
EndChar

StartChar: closed-captioning
Encoding: 61962 61962 77
Width: 512
GlyphClass: 3
Flags: W
LayerCount: 2
Fore
SplineSet
464 384 m 2,0,1
 484 384 484 384 498 370 c 128,-1,2
 512 356 512 356 512 336 c 2,3,-1
 512 48 l 2,4,5
 512 28 512 28 498 14 c 128,-1,6
 484 0 484 0 464 0 c 2,7,-1
 48 0 l 2,8,9
 28 0 28 0 14 14 c 128,-1,10
 0 28 0 28 0 48 c 2,11,-1
 0 336 l 2,12,13
 0 356 0 356 14 370 c 128,-1,14
 28 384 28 384 48 384 c 2,15,-1
 464 384 l 2,0,1
458 48 m 2,16,17
 464 48 464 48 464 54 c 2,18,-1
 464 330 l 2,19,20
 464 336 464 336 458 336 c 2,21,-1
 54 336 l 2,22,23
 48 336 48 336 48 330 c 2,24,-1
 48 54 l 2,25,26
 48 48 48 48 54 48 c 2,27,-1
 458 48 l 2,16,17
247 134 m 2,28,29
 250 130 250 130 246 126 c 0,30,31
 220 98 220 98 179 95.5 c 128,-1,32
 138 93 138 93 106 120 c 128,-1,33
 74 147 74 147 74 194 c 0,34,35
 74 240 74 240 106.5 266 c 128,-1,36
 139 292 139 292 180 290.5 c 128,-1,37
 221 289 221 289 246 264 c 0,38,39
 249 261 249 261 247 258 c 2,40,-1
 230 228 l 2,41,42
 226 222 226 222 220 226 c 0,43,44
 190 250 190 250 158 239.5 c 128,-1,45
 126 229 126 229 126 195 c 0,46,47
 126 158 126 158 156.5 146.5 c 128,-1,48
 187 135 187 135 218 162 c 0,49,50
 223 167 223 167 227 161 c 2,51,-1
 247 134 l 2,28,29
437 134 m 2,52,53
 440 130 440 130 437 126 c 0,54,55
 410 98 410 98 369 95.5 c 128,-1,56
 328 93 328 93 296 120 c 128,-1,57
 264 147 264 147 264 194 c 0,58,59
 264 240 264 240 296.5 266 c 128,-1,60
 329 292 329 292 370 290.5 c 128,-1,61
 411 289 411 289 436 264 c 0,62,63
 439 261 439 261 438 258 c 2,64,-1
 420 228 l 2,65,66
 416 222 416 222 411 226 c 0,67,68
 380 250 380 250 348 239.5 c 128,-1,69
 316 229 316 229 316 195 c 0,70,71
 316 158 316 158 347 146.5 c 128,-1,72
 378 135 378 135 408 162 c 0,73,74
 414 167 414 167 418 161 c 2,75,-1
 437 134 l 2,52,53
EndSplineSet
EndChar

StartChar: object-group
Encoding: 62023 62023 78
Width: 512
GlyphClass: 3
Flags: W
LayerCount: 2
Fore
SplineSet
500 320 m 2,0,-1
 488 320 l 1,1,-1
 488 64 l 1,2,-1
 500 64 l 2,3,4
 512 64 512 64 512 52 c 2,5,-1
 512 -20 l 2,6,7
 512 -32 512 -32 500 -32 c 2,8,-1
 428 -32 l 2,9,10
 416 -32 416 -32 416 -20 c 2,11,-1
 416 -8 l 1,12,-1
 96 -8 l 1,13,-1
 96 -20 l 2,14,15
 96 -32 96 -32 84 -32 c 2,16,-1
 12 -32 l 2,17,18
 0 -32 0 -32 0 -20 c 2,19,-1
 0 52 l 2,20,21
 0 64 0 64 12 64 c 2,22,-1
 24 64 l 1,23,-1
 24 320 l 1,24,-1
 12 320 l 2,25,26
 0 320 0 320 0 332 c 2,27,-1
 0 404 l 2,28,29
 0 416 0 416 12 416 c 2,30,-1
 84 416 l 2,31,32
 96 416 96 416 96 404 c 2,33,-1
 96 392 l 1,34,-1
 416 392 l 1,35,-1
 416 404 l 2,36,37
 416 416 416 416 428 416 c 2,38,-1
 500 416 l 2,39,40
 512 416 512 416 512 404 c 2,41,-1
 512 332 l 2,42,43
 512 320 512 320 500 320 c 2,0,-1
448 384 m 1,44,-1
 448 352 l 1,45,-1
 480 352 l 1,46,-1
 480 384 l 1,47,-1
 448 384 l 1,44,-1
32 384 m 1,48,-1
 32 352 l 1,49,-1
 64 352 l 1,50,-1
 64 384 l 1,51,-1
 32 384 l 1,48,-1
64 0 m 1,52,-1
 64 32 l 1,53,-1
 32 32 l 1,54,-1
 32 0 l 1,55,-1
 64 0 l 1,52,-1
480 0 m 1,56,-1
 480 32 l 1,57,-1
 448 32 l 1,58,-1
 448 0 l 1,59,-1
 480 0 l 1,56,-1
440 64 m 1,60,-1
 440 320 l 1,61,-1
 428 320 l 2,62,63
 416 320 416 320 416 332 c 2,64,-1
 416 344 l 1,65,-1
 96 344 l 1,66,-1
 96 332 l 2,67,68
 96 320 96 320 84 320 c 2,69,-1
 72 320 l 1,70,-1
 72 64 l 1,71,-1
 84 64 l 2,72,73
 96 64 96 64 96 52 c 2,74,-1
 96 40 l 1,75,-1
 416 40 l 1,76,-1
 416 52 l 2,77,78
 416 64 416 64 428 64 c 2,79,-1
 440 64 l 1,60,-1
404 256 m 2,80,81
 416 256 416 256 416 244 c 2,82,-1
 416 76 l 2,83,84
 416 64 416 64 404 64 c 2,85,-1
 204 64 l 2,86,87
 192 64 192 64 192 76 c 2,88,-1
 192 128 l 1,89,-1
 108 128 l 2,90,91
 96 128 96 128 96 140 c 2,92,-1
 96 308 l 2,93,94
 96 320 96 320 108 320 c 2,95,-1
 308 320 l 2,96,97
 320 320 320 320 320 308 c 2,98,-1
 320 256 l 1,99,-1
 404 256 l 2,80,81
136 280 m 1,100,-1
 136 168 l 1,101,-1
 280 168 l 1,102,-1
 280 280 l 1,103,-1
 136 280 l 1,100,-1
376 104 m 1,104,-1
 376 216 l 1,105,-1
 320 216 l 1,106,-1
 320 140 l 2,107,108
 320 128 320 128 308 128 c 2,109,-1
 232 128 l 1,110,-1
 232 104 l 1,111,-1
 376 104 l 1,104,-1
EndSplineSet
EndChar

StartChar: object-ungroup
Encoding: 62024 62024 79
Width: 576
GlyphClass: 3
Flags: W
LayerCount: 2
Fore
SplineSet
564 224 m 2,0,-1
 552 224 l 1,1,-1
 552 64 l 1,2,-1
 564 64 l 2,3,4
 576 64 576 64 576 52 c 2,5,-1
 576 -20 l 2,6,7
 576 -32 576 -32 564 -32 c 2,8,-1
 492 -32 l 2,9,10
 480 -32 480 -32 480 -20 c 2,11,-1
 480 -8 l 1,12,-1
 256 -8 l 1,13,-1
 256 -20 l 2,14,15
 256 -32 256 -32 244 -32 c 2,16,-1
 172 -32 l 2,17,18
 160 -32 160 -32 160 -20 c 2,19,-1
 160 52 l 2,20,21
 160 64 160 64 172 64 c 2,22,-1
 184 64 l 1,23,-1
 184 88 l 1,24,-1
 96 88 l 1,25,-1
 96 76 l 2,26,27
 96 64 96 64 84 64 c 2,28,-1
 12 64 l 2,29,30
 0 64 0 64 0 76 c 2,31,-1
 0 148 l 2,32,33
 0 160 0 160 12 160 c 2,34,-1
 24 160 l 1,35,-1
 24 320 l 1,36,-1
 12 320 l 2,37,38
 0 320 0 320 0 332 c 2,39,-1
 0 404 l 2,40,41
 0 416 0 416 12 416 c 2,42,-1
 84 416 l 2,43,44
 96 416 96 416 96 404 c 2,45,-1
 96 392 l 1,46,-1
 320 392 l 1,47,-1
 320 404 l 2,48,49
 320 416 320 416 332 416 c 2,50,-1
 404 416 l 2,51,52
 416 416 416 416 416 404 c 2,53,-1
 416 332 l 2,54,55
 416 320 416 320 404 320 c 2,56,-1
 392 320 l 1,57,-1
 392 296 l 1,58,-1
 480 296 l 1,59,-1
 480 308 l 2,60,61
 480 320 480 320 492 320 c 2,62,-1
 564 320 l 2,63,64
 576 320 576 320 576 308 c 2,65,-1
 576 236 l 2,66,67
 576 224 576 224 564 224 c 2,0,-1
352 384 m 1,68,-1
 352 352 l 1,69,-1
 384 352 l 1,70,-1
 384 384 l 1,71,-1
 352 384 l 1,68,-1
352 128 m 1,72,-1
 352 96 l 1,73,-1
 384 96 l 1,74,-1
 384 128 l 1,75,-1
 352 128 l 1,72,-1
64 96 m 1,76,-1
 64 128 l 1,77,-1
 32 128 l 1,78,-1
 32 96 l 1,79,-1
 64 96 l 1,76,-1
64 352 m 1,80,-1
 64 384 l 1,81,-1
 32 384 l 1,82,-1
 32 352 l 1,83,-1
 64 352 l 1,80,-1
96 136 m 1,84,-1
 320 136 l 1,85,-1
 320 148 l 2,86,87
 320 160 320 160 332 160 c 2,88,-1
 344 160 l 1,89,-1
 344 320 l 1,90,-1
 332 320 l 2,91,92
 320 320 320 320 320 332 c 2,93,-1
 320 344 l 1,94,-1
 96 344 l 1,95,-1
 96 332 l 2,96,97
 96 320 96 320 84 320 c 2,98,-1
 72 320 l 1,99,-1
 72 160 l 1,100,-1
 84 160 l 2,101,102
 96 160 96 160 96 148 c 2,103,-1
 96 136 l 1,84,-1
224 0 m 1,104,-1
 224 32 l 1,105,-1
 192 32 l 1,106,-1
 192 0 l 1,107,-1
 224 0 l 1,104,-1
504 64 m 1,108,-1
 504 224 l 1,109,-1
 492 224 l 2,110,111
 480 224 480 224 480 236 c 2,112,-1
 480 248 l 1,113,-1
 392 248 l 1,114,-1
 392 160 l 1,115,-1
 404 160 l 2,116,117
 416 160 416 160 416 148 c 2,118,-1
 416 76 l 2,119,120
 416 64 416 64 404 64 c 2,121,-1
 332 64 l 2,122,123
 320 64 320 64 320 76 c 2,124,-1
 320 88 l 1,125,-1
 232 88 l 1,126,-1
 232 64 l 1,127,-1
 244 64 l 2,128,129
 256 64 256 64 256 52 c 2,130,-1
 256 40 l 1,131,-1
 480 40 l 1,132,-1
 480 52 l 2,133,134
 480 64 480 64 492 64 c 2,135,-1
 504 64 l 1,108,-1
544 0 m 1,136,-1
 544 32 l 1,137,-1
 512 32 l 1,138,-1
 512 0 l 1,139,-1
 544 0 l 1,136,-1
544 256 m 1,140,-1
 544 288 l 1,141,-1
 512 288 l 1,142,-1
 512 256 l 1,143,-1
 544 256 l 1,140,-1
EndSplineSet
EndChar

StartChar: sticky-note
Encoding: 62025 62025 80
Width: 448
GlyphClass: 3
Flags: W
LayerCount: 2
Fore
SplineSet
448 100 m 2,0,1
 448 80 448 80 434 66 c 2,2,-1
 350 -18 l 2,3,4
 336 -32 336 -32 316 -32 c 2,5,-1
 48 -32 l 2,6,7
 28 -32 28 -32 14 -18 c 128,-1,8
 0 -4 0 -4 0 16 c 2,9,-1
 0 368 l 2,10,11
 0 388 0 388 14 402 c 128,-1,12
 28 416 28 416 48 416 c 2,13,-1
 400 416 l 2,14,15
 420 416 420 416 434 402 c 128,-1,16
 448 388 448 388 448 368 c 2,17,-1
 448 100 l 2,0,1
320 20 m 1,18,-1
 396 96 l 1,19,-1
 320 96 l 1,20,-1
 320 20 l 1,18,-1
400 368 m 1,21,-1
 48 368 l 1,22,-1
 48 16 l 1,23,-1
 272 16 l 1,24,-1
 272 120 l 2,25,26
 272 130 272 130 279 137 c 128,-1,27
 286 144 286 144 296 144 c 2,28,-1
 400 144 l 1,29,-1
 400 368 l 1,21,-1
EndSplineSet
EndChar

StartChar: clone
Encoding: 62029 62029 81
Width: 512
GlyphClass: 3
Flags: W
LayerCount: 2
Fore
SplineSet
464 448 m 2,0,1
 484 448 484 448 498 434 c 128,-1,2
 512 420 512 420 512 400 c 2,3,-1
 512 80 l 2,4,5
 512 60 512 60 498 46 c 128,-1,6
 484 32 484 32 464 32 c 2,7,-1
 416 32 l 1,8,-1
 416 -16 l 2,9,10
 416 -36 416 -36 402 -50 c 128,-1,11
 388 -64 388 -64 368 -64 c 2,12,-1
 48 -64 l 2,13,14
 28 -64 28 -64 14 -50 c 128,-1,15
 0 -36 0 -36 0 -16 c 2,16,-1
 0 304 l 2,17,18
 0 324 0 324 14 338 c 128,-1,19
 28 352 28 352 48 352 c 2,20,-1
 96 352 l 1,21,-1
 96 400 l 2,22,23
 96 420 96 420 110 434 c 128,-1,24
 124 448 124 448 144 448 c 2,25,-1
 464 448 l 2,0,1
362 -16 m 2,26,27
 368 -16 368 -16 368 -10 c 2,28,-1
 368 32 l 1,29,-1
 144 32 l 2,30,31
 124 32 124 32 110 46 c 128,-1,32
 96 60 96 60 96 80 c 2,33,-1
 96 304 l 1,34,-1
 54 304 l 2,35,36
 48 304 48 304 48 298 c 2,37,-1
 48 -10 l 2,38,39
 48 -16 48 -16 54 -16 c 2,40,-1
 362 -16 l 2,26,27
458 80 m 2,41,42
 464 80 464 80 464 86 c 2,43,-1
 464 394 l 2,44,45
 464 400 464 400 458 400 c 2,46,-1
 150 400 l 2,47,48
 144 400 144 400 144 394 c 2,49,-1
 144 86 l 2,50,51
 144 80 144 80 150 80 c 2,52,-1
 458 80 l 2,41,42
EndSplineSet
EndChar

StartChar: hourglass
Encoding: 62036 62036 82
Width: 384
GlyphClass: 3
Flags: W
LayerCount: 2
Fore
SplineSet
368 400 m 1,0,1
 368 337 368 337 343 279.5 c 128,-1,2
 318 222 318 222 271 192 c 1,3,4
 318 162 318 162 343 104.5 c 128,-1,5
 368 47 368 47 368 -16 c 1,6,-1
 372 -16 l 2,7,8
 384 -16 384 -16 384 -28 c 2,9,-1
 384 -52 l 2,10,11
 384 -64 384 -64 372 -64 c 2,12,-1
 12 -64 l 2,13,14
 0 -64 0 -64 0 -52 c 2,15,-1
 0 -28 l 2,16,17
 0 -16 0 -16 12 -16 c 2,18,-1
 16 -16 l 1,19,20
 16 47 16 47 41 104.5 c 128,-1,21
 66 162 66 162 113 192 c 1,22,23
 66 222 66 222 41 279.5 c 128,-1,24
 16 337 16 337 16 400 c 1,25,-1
 12 400 l 2,26,27
 0 400 0 400 0 412 c 2,28,-1
 0 436 l 2,29,30
 0 448 0 448 12 448 c 2,31,-1
 372 448 l 2,32,33
 384 448 384 448 384 436 c 2,34,-1
 384 412 l 2,35,36
 384 400 384 400 372 400 c 2,37,-1
 368 400 l 1,0,1
64 400 m 1,38,39
 64 324 64 324 101.5 270 c 128,-1,40
 139 216 139 216 192 216 c 128,-1,41
 245 216 245 216 282.5 270 c 128,-1,42
 320 324 320 324 320 400 c 1,43,-1
 64 400 l 1,38,39
320 -16 m 1,44,45
 320 60 320 60 282.5 114 c 128,-1,46
 245 168 245 168 192 168 c 128,-1,47
 139 168 139 168 101.5 114 c 128,-1,48
 64 60 64 60 64 -16 c 1,49,-1
 320 -16 l 1,44,45
EndSplineSet
EndChar

StartChar: hand-rock
Encoding: 62037 62037 83
Width: 512
GlyphClass: 3
Flags: W
LayerCount: 2
Fore
SplineSet
409 369 m 1,0,1
 445 385 445 385 478.5 363 c 128,-1,2
 512 341 512 341 512 301 c 2,3,-1
 512 187 l 2,4,5
 512 163 512 163 503 142 c 2,6,-1
 460 42 l 2,7,8
 456 33 456 33 456 0 c 0,9,10
 456 -13 456 -13 446.5 -22.5 c 128,-1,11
 437 -32 437 -32 424 -32 c 2,12,-1
 172 -32 l 2,13,14
 159 -32 159 -32 149.5 -22.5 c 128,-1,15
 140 -13 140 -13 140 0 c 0,16,17
 140 4 140 4 140 8 c 128,-1,18
 140 12 140 12 140 14.5 c 128,-1,19
 140 17 140 17 140 19.5 c 128,-1,20
 140 22 140 22 140 23.5 c 128,-1,21
 140 25 140 25 140 26.5 c 128,-1,22
 140 28 140 28 139.5 29 c 128,-1,23
 139 30 139 30 139 30.5 c 128,-1,24
 139 31 139 31 138.5 31.5 c 128,-1,25
 138 32 138 32 137 33 c 2,26,-1
 39 118 l 2,27,28
 0 152 0 152 0 204 c 2,29,-1
 0 261 l 2,30,31
 0 296 0 296 28 318 c 128,-1,32
 56 340 56 340 91 332 c 1,33,34
 93 373 93 373 129.5 393 c 128,-1,35
 166 413 166 413 202 393 c 1,36,37
 224 416 224 416 256 416 c 128,-1,38
 288 416 288 416 310 393 c 1,39,40
 334 407 334 407 363 400.5 c 128,-1,41
 392 394 392 394 409 369 c 1,0,1
464 187 m 2,42,-1
 464 301 l 2,43,44
 464 317 464 317 451 323.5 c 128,-1,45
 438 330 438 330 425 323.5 c 128,-1,46
 412 317 412 317 412 302 c 0,47,48
 412 295 412 295 407.5 290.5 c 128,-1,49
 403 286 403 286 396 286 c 2,50,-1
 389 286 l 2,51,52
 382 286 382 286 377.5 290.5 c 128,-1,53
 373 295 373 295 373 302 c 2,54,-1
 373 328 l 2,55,56
 373 345 373 345 360 351.5 c 128,-1,57
 347 358 347 358 334 351.5 c 128,-1,58
 321 345 321 345 321 329 c 2,59,-1
 321 302 l 2,60,61
 321 295 321 295 316.5 290.5 c 128,-1,62
 312 286 312 286 305 286 c 2,63,-1
 298 286 l 2,64,65
 291 286 291 286 286.5 290.5 c 128,-1,66
 282 295 282 295 282 302 c 2,67,-1
 282 342 l 2,68,69
 282 358 282 358 269 365 c 128,-1,70
 256 372 256 372 243 365.5 c 128,-1,71
 230 359 230 359 230 343 c 2,72,-1
 230 302 l 2,73,74
 230 295 230 295 225.5 290.5 c 128,-1,75
 221 286 221 286 214 286 c 2,76,-1
 207 286 l 2,77,78
 200 286 200 286 195.5 290.5 c 128,-1,79
 191 295 191 295 191 302 c 2,80,-1
 191 328 l 2,81,82
 191 345 191 345 178 351.5 c 128,-1,83
 165 358 165 358 152 351.5 c 128,-1,84
 139 345 139 345 139 329 c 2,85,-1
 139 213 l 2,86,87
 139 206 139 206 134.5 201.5 c 128,-1,88
 130 197 130 197 123 197 c 0,89,90
 117 197 117 197 112 201 c 2,91,-1
 105 207 l 2,92,93
 100 211 100 211 100 219 c 2,94,-1
 100 260 l 2,95,96
 100 276 100 276 87 282.5 c 128,-1,97
 74 289 74 289 61 282.5 c 128,-1,98
 48 276 48 276 48 261 c 2,99,-1
 48 204 l 2,100,101
 48 174 48 174 71 154 c 2,102,-1
 168 69 l 2,103,104
 188 52 188 52 188 26 c 2,105,-1
 188 16 l 1,106,-1
 408 16 l 1,107,-1
 408 23 l 2,108,109
 408 43 408 43 416 61 c 2,110,-1
 459 161 l 2,111,112
 464 173 464 173 464 187 c 2,42,-1
EndSplineSet
EndChar

StartChar: hand-paper
Encoding: 62038 62038 84
Width: 448
GlyphClass: 3
Flags: W
LayerCount: 2
Fore
SplineSet
373 335 m 1,0,1
 402 340 402 340 425 319.5 c 128,-1,2
 448 299 448 299 448 269 c 2,3,-1
 448 137 l 2,4,5
 448 114 448 114 443 92 c 2,6,-1
 413 -39 l 2,7,8
 410 -50 410 -50 401.5 -57 c 128,-1,9
 393 -64 393 -64 381 -64 c 2,10,-1
 159 -64 l 2,11,12
 142 -64 142 -64 132 -51 c 2,13,-1
 13 118 l 2,14,15
 -3 140 -3 140 1 167.5 c 128,-1,16
 5 195 5 195 27 211 c 0,17,18
 56 232 56 232 89 220 c 1,19,-1
 89 346 l 2,20,21
 89 379 89 379 114.5 399 c 128,-1,22
 140 419 140 419 172 411 c 1,23,24
 190 447 190 447 230 448 c 128,-1,25
 270 449 270 449 290 412 c 1,26,27
 321 420 321 420 347 399.5 c 128,-1,28
 373 379 373 379 373 346 c 2,29,-1
 373 335 l 1,0,1
400 137 m 2,30,-1
 400 269 l 2,31,32
 400 281 400 281 391 286 c 128,-1,33
 382 291 382 291 372.5 286 c 128,-1,34
 363 281 363 281 363 268 c 2,35,-1
 363 192 l 2,36,37
 363 185 363 185 358.5 180.5 c 128,-1,38
 354 176 354 176 347 176 c 2,39,-1
 341 176 l 2,40,41
 334 176 334 176 329.5 180.5 c 128,-1,42
 325 185 325 185 325 192 c 2,43,-1
 325 346 l 2,44,45
 325 358 325 358 315.5 363.5 c 128,-1,46
 306 369 306 369 297 364 c 128,-1,47
 288 359 288 359 288 347 c 2,48,-1
 288 192 l 2,49,50
 288 185 288 185 283.5 180.5 c 128,-1,51
 279 176 279 176 272 176 c 2,52,-1
 265 176 l 2,53,54
 259 176 259 176 254 180.5 c 128,-1,55
 249 185 249 185 249 192 c 2,56,-1
 249 380 l 2,57,58
 249 392 249 392 240 397.5 c 128,-1,59
 231 403 231 403 222 398 c 128,-1,60
 213 393 213 393 213 381 c 2,61,-1
 213 192 l 2,62,63
 213 185 213 185 208 180.5 c 128,-1,64
 203 176 203 176 197 176 c 2,65,-1
 190 176 l 2,66,67
 183 176 183 176 178.5 180.5 c 128,-1,68
 174 185 174 185 174 192 c 2,69,-1
 174 345 l 2,70,71
 174 357 174 357 164.5 362.5 c 128,-1,72
 155 368 155 368 146 363 c 128,-1,73
 137 358 137 358 137 346 c 2,74,-1
 137 140 l 2,75,76
 137 128 137 128 126 124.5 c 128,-1,77
 115 121 115 121 108 130 c 2,78,-1
 81 168 l 2,79,80
 77 174 77 174 71 175.5 c 128,-1,81
 65 177 65 177 60 175 c 128,-1,82
 55 173 55 173 51.5 168.5 c 128,-1,83
 48 164 48 164 48 158 c 128,-1,84
 48 152 48 152 52 146 c 2,85,-1
 167 -16 l 1,86,-1
 369 -16 l 1,87,-1
 396 103 l 2,88,89
 400 120 400 120 400 137 c 2,30,-1
EndSplineSet
EndChar

StartChar: hand-scissors
Encoding: 62039 62039 85
Width: 512
GlyphClass: 3
Flags: W
LayerCount: 2
Fore
SplineSet
256 -32 m 2,0,1
 222 -32 222 -32 202 -5 c 128,-1,2
 182 22 182 22 192 54 c 1,3,4
 176 64 176 64 167.5 81.5 c 128,-1,5
 159 99 159 99 162 119 c 1,6,-1
 74 119 l 2,7,8
 43 119 43 119 21.5 140.5 c 128,-1,9
 0 162 0 162 0 192 c 128,-1,10
 0 222 0 222 21.5 243.5 c 128,-1,11
 43 265 43 265 74 265 c 2,12,-1
 168 256 l 1,13,-1
 89 275 l 2,14,15
 60 286 60 286 48 314 c 128,-1,16
 36 342 36 342 47 370 c 128,-1,17
 58 398 58 398 86 410 c 128,-1,18
 114 422 114 422 143 411 c 2,19,-1
 288 355 l 1,20,21
 331 408 331 408 380 380 c 2,22,-1
 478 325 l 2,23,24
 512 306 512 306 512 267 c 2,25,-1
 512 62 l 2,26,27
 512 39 512 39 497.5 20.5 c 128,-1,28
 483 2 483 2 460 -3 c 2,29,-1
 341 -30 l 2,30,31
 334 -32 334 -32 326 -32 c 2,32,-1
 256 -32 l 2,0,1
256 16 m 2,33,-1
 326 16 l 2,34,35
 328 16 328 16 330 17 c 2,36,-1
 449 44 l 2,37,38
 464 47 464 47 464 62 c 2,39,-1
 464 267 l 2,40,41
 464 278 464 278 455 283 c 2,42,-1
 357 338 l 2,43,44
 342 346 342 346 332 334 c 2,45,-1
 310 307 l 2,46,47
 305 301 305 301 298 301 c 0,48,49
 295 301 295 301 292 302 c 2,50,-1
 126 366 l 2,51,52
 103 375 103 375 93 355 c 0,53,54
 82 334 82 334 101 322 c 0,55,56
 104 321 104 321 106 319 c 2,57,-1
 262 260 l 2,58,59
 272 256 272 256 272 245 c 2,60,-1
 272 233 l 2,61,62
 272 227 272 227 267.5 222 c 128,-1,63
 263 217 263 217 256 217 c 2,64,-1
 74 217 l 2,65,66
 58 217 58 217 51 204.5 c 128,-1,67
 44 192 44 192 51 179.5 c 128,-1,68
 58 167 58 167 74 167 c 2,69,-1
 256 167 l 2,70,71
 263 167 263 167 267.5 162 c 128,-1,72
 272 157 272 157 272 151 c 2,73,-1
 272 144 l 2,74,75
 272 137 272 137 267.5 132.5 c 128,-1,76
 263 128 263 128 256 128 c 2,77,-1
 228 128 l 2,78,79
 216 128 216 128 211 119 c 128,-1,80
 206 110 206 110 211 100.5 c 128,-1,81
 216 91 216 91 228 91 c 2,82,-1
 256 91 l 2,83,84
 263 91 263 91 267.5 86.5 c 128,-1,85
 272 82 272 82 272 75 c 2,86,-1
 272 69 l 2,87,88
 272 62 272 62 267.5 57.5 c 128,-1,89
 263 53 263 53 256 53 c 0,90,91
 244 53 244 53 239 43.5 c 128,-1,92
 234 34 234 34 239 25 c 128,-1,93
 244 16 244 16 256 16 c 2,33,-1
EndSplineSet
EndChar

StartChar: hand-lizard
Encoding: 62040 62040 86
Width: 576
GlyphClass: 3
Flags: W
LayerCount: 2
Fore
SplineSet
557 157 m 2,0,1
 576 128 576 128 576 92 c 2,2,-1
 576 -32 l 1,3,-1
 352 -32 l 1,4,-1
 352 40 l 1,5,-1
 252 78 l 2,6,7
 248 80 248 80 244 80 c 2,8,-1
 112 80 l 2,9,10
 89 80 89 80 72.5 96.5 c 128,-1,11
 56 113 56 113 56 136 c 0,12,13
 56 172 56 172 82 198 c 128,-1,14
 108 224 108 224 144 224 c 2,15,-1
 258 224 l 1,16,-1
 276 272 l 1,17,-1
 80 272 l 2,18,19
 47 272 47 272 23.5 295.5 c 128,-1,20
 0 319 0 319 0 352 c 2,21,-1
 0 360 l 2,22,23
 0 383 0 383 16.5 399.5 c 128,-1,24
 33 416 33 416 56 416 c 2,25,-1
 350 416 l 2,26,27
 389 416 389 416 410 383 c 2,28,-1
 557 157 l 2,0,1
528 16 m 1,29,-1
 528 92 l 2,30,31
 528 113 528 113 516 131 c 2,32,-1
 370 357 l 2,33,34
 363 368 363 368 350 368 c 2,35,-1
 56 368 l 2,36,37
 48 368 48 368 48 360 c 2,38,-1
 48 352 l 2,39,40
 48 339 48 339 57.5 329.5 c 128,-1,41
 67 320 67 320 80 320 c 2,42,-1
 293 320 l 2,43,44
 312 320 312 320 323 304.5 c 128,-1,45
 334 289 334 289 327 271 c 2,46,-1
 303 207 l 2,47,48
 299 198 299 198 292 191 c 128,-1,49
 285 184 285 184 276 180 c 128,-1,50
 267 176 267 176 258 176 c 2,51,-1
 144 176 l 2,52,53
 127 176 127 176 115.5 164.5 c 128,-1,54
 104 153 104 153 104 136 c 0,55,56
 104 128 104 128 112 128 c 2,57,-1
 244 128 l 2,58,59
 257 128 257 128 270 123 c 2,60,-1
 369 84 l 2,61,62
 383 79 383 79 391.5 67 c 128,-1,63
 400 55 400 55 400 40 c 2,64,-1
 400 16 l 1,65,-1
 528 16 l 1,29,-1
EndSplineSet
EndChar

StartChar: hand-spock
Encoding: 62041 62041 87
Width: 512
GlyphClass: 3
Flags: W
LayerCount: 2
Fore
SplineSet
501 332 m 0,0,1
 512 314 512 314 512 293 c 0,2,3
 512 285 512 285 510 276 c 2,4,-1
 452 34 l 2,5,6
 443 -6 443 -6 406.5 -35 c 128,-1,7
 370 -64 370 -64 328 -64 c 2,8,-1
 221 -64 l 1,9,-1
 220 -64 l 2,10,11
 208 -64 208 -64 193 -60.5 c 128,-1,12
 178 -57 178 -57 164 -51.5 c 128,-1,13
 150 -46 150 -46 137 -38.5 c 128,-1,14
 124 -31 124 -31 115 -22 c 2,15,-1
 23 64 l 2,16,17
 17 70 17 70 11.5 79.5 c 128,-1,18
 6 89 6 89 3 99 c 128,-1,19
 0 109 0 109 0 118 c 0,20,21
 0 147 0 147 20 168 c 0,22,23
 48 198 48 198 88 190 c 1,24,-1
 64 272 l 2,25,26
 61 283 61 283 61 293 c 0,27,28
 61 321 61 321 81 342.5 c 128,-1,29
 101 364 101 364 129 367 c 1,30,31
 128 370 128 370 128 374 c 0,32,33
 128 398 128 398 144.5 419 c 128,-1,34
 161 440 161 440 184 446 c 0,35,36
 205 451 205 451 224 444.5 c 128,-1,37
 243 438 243 438 256 424 c 128,-1,38
 269 410 269 410 273 393 c 2,39,-1
 287 339 l 1,40,-1
 292 362 l 2,41,42
 295 378 295 378 306 391.5 c 128,-1,43
 317 405 317 405 332.5 413 c 128,-1,44
 348 421 348 421 364 421 c 0,45,46
 370 421 370 421 377.5 419.5 c 128,-1,47
 385 418 385 418 397 413.5 c 128,-1,48
 409 409 409 409 419.5 396.5 c 128,-1,49
 430 384 430 384 435 367 c 1,50,51
 478 369 478 369 501 332 c 0,0,1
463 287 m 2,52,53
 467 303 467 303 456 312.5 c 128,-1,54
 445 322 445 322 431 318.5 c 128,-1,55
 417 315 417 315 413 299 c 2,56,-1
 388 195 l 2,57,58
 385 181 385 181 371.5 184.5 c 128,-1,59
 358 188 358 188 360 201 c 2,60,-1
 389 340 l 2,61,62
 392 357 392 357 381 366.5 c 128,-1,63
 370 376 370 376 356 372 c 128,-1,64
 342 368 342 368 339 352 c 2,65,-1
 307 197 l 2,66,67
 304 184 304 184 291 184 c 128,-1,68
 278 184 278 184 274 197 c 2,69,-1
 227 381 l 2,70,71
 223 396 223 396 209 399.5 c 128,-1,72
 195 403 195 403 184 393 c 128,-1,73
 173 383 173 383 177 368 c 2,74,-1
 220 203 l 2,75,76
 223 189 223 189 209 185 c 128,-1,77
 195 181 195 181 191 195 c 2,78,-1
 159 300 l 2,79,80
 155 316 155 316 140.5 318.5 c 128,-1,81
 126 321 126 321 115.5 311 c 128,-1,82
 105 301 105 301 110 286 c 2,83,-1
 146 164 l 2,84,85
 156 130 156 130 156 94 c 0,86,87
 156 89 156 89 151.5 87 c 128,-1,88
 147 85 147 85 143 88 c 2,89,-1
 91 136 l 2,90,91
 80 148 80 148 66 142.5 c 128,-1,92
 52 137 52 137 49 124 c 128,-1,93
 46 111 46 111 56 99 c 2,94,-1
 147 13 l 2,95,96
 160 1 160 1 181.5 -7.5 c 128,-1,97
 203 -16 203 -16 220 -16 c 2,98,-1
 221 -16 l 1,99,-1
 328 -16 l 2,100,101
 354 -16 354 -16 377 2 c 128,-1,102
 400 20 400 20 406 45 c 2,103,-1
 463 287 l 2,52,53
EndSplineSet
EndChar

StartChar: hand-pointer
Encoding: 62042 62042 88
Width: 448
GlyphClass: 3
Flags: W
LayerCount: 2
Fore
SplineSet
358 269 m 1,0,1
 391 281 391 281 419.5 261 c 128,-1,2
 448 241 448 241 448 206 c 2,3,-1
 448 122 l 2,4,5
 448 114 448 114 446 107 c 2,6,-1
 419 -12 l 2,7,8
 414 -35 414 -35 395.5 -49.5 c 128,-1,9
 377 -64 377 -64 354 -64 c 2,10,-1
 176 -64 l 2,11,12
 142 -64 142 -64 122 -36 c 2,13,-1
 13 118 l 2,14,15
 -3 140 -3 140 1 167.5 c 128,-1,16
 5 195 5 195 27 211 c 0,17,18
 56 232 56 232 89 220 c 1,19,-1
 89 381 l 2,20,21
 89 409 89 409 108.5 428.5 c 128,-1,22
 128 448 128 448 155.5 448 c 128,-1,23
 183 448 183 448 202.5 428.5 c 128,-1,24
 222 409 222 409 222 381 c 2,25,-1
 222 307 l 1,26,27
 255 312 255 312 278 288 c 1,28,29
 299 298 299 298 321.5 292.5 c 128,-1,30
 344 287 344 287 358 269 c 1,0,1
81 168 m 2,31,32
 74 178 74 178 63.5 176 c 128,-1,33
 53 174 53 174 49.5 165 c 128,-1,34
 46 156 46 156 52 146 c 2,35,-1
 161 -8 l 2,36,37
 167 -16 167 -16 176 -16 c 2,38,-1
 354 -16 l 2,39,40
 369 -16 369 -16 372 -1 c 2,41,-1
 399 118 l 2,42,43
 400 120 400 120 400 122 c 2,44,-1
 400 206 l 2,45,46
 400 218 400 218 391 223 c 128,-1,47
 382 228 382 228 372.5 223 c 128,-1,48
 363 218 363 218 363 206 c 0,49,50
 363 202 363 202 361 198 c 128,-1,51
 359 194 359 194 355.5 192 c 128,-1,52
 352 190 352 190 347 190 c 2,53,-1
 341 190 l 2,54,55
 334 190 334 190 329.5 194.5 c 128,-1,56
 325 199 325 199 325 206 c 2,57,-1
 325 227 l 2,58,59
 325 239 325 239 315.5 244 c 128,-1,60
 306 249 306 249 297 244 c 128,-1,61
 288 239 288 239 288 227 c 2,62,-1
 288 206 l 2,63,64
 288 199 288 199 283.5 194.5 c 128,-1,65
 279 190 279 190 272 190 c 2,66,-1
 265 190 l 2,67,68
 261 190 261 190 257 192 c 128,-1,69
 253 194 253 194 251 198 c 128,-1,70
 249 202 249 202 249 206 c 2,71,-1
 249 241 l 2,72,73
 249 253 249 253 240 258 c 128,-1,74
 231 263 231 263 222 258 c 128,-1,75
 213 253 213 253 213 241 c 2,76,-1
 213 206 l 2,77,78
 213 202 213 202 210.5 198 c 128,-1,79
 208 194 208 194 204.5 192 c 128,-1,80
 201 190 201 190 197 190 c 2,81,-1
 190 190 l 2,82,83
 183 190 183 190 178.5 194.5 c 128,-1,84
 174 199 174 199 174 206 c 2,85,-1
 174 381 l 2,86,87
 174 393 174 393 164.5 398 c 128,-1,88
 155 403 155 403 146 398 c 128,-1,89
 137 393 137 393 137 381 c 2,90,-1
 137 140 l 2,91,92
 137 128 137 128 126 124.5 c 128,-1,93
 115 121 115 121 108 130 c 2,94,-1
 81 168 l 2,31,32
176 48 m 2,95,-1
 176 144 l 2,96,97
 176 151 176 151 180 155.5 c 128,-1,98
 184 160 184 160 190 160 c 2,99,-1
 196 160 l 2,100,101
 202 160 202 160 206 155.5 c 128,-1,102
 210 151 210 151 210 144 c 2,103,-1
 210 48 l 2,104,105
 210 45 210 45 209 42 c 128,-1,106
 208 39 208 39 206 37 c 128,-1,107
 204 35 204 35 201.5 33.5 c 128,-1,108
 199 32 199 32 196 32 c 2,109,-1
 190 32 l 2,110,111
 184 32 184 32 180 36.5 c 128,-1,112
 176 41 176 41 176 48 c 2,95,-1
252 48 m 2,113,-1
 252 144 l 2,114,115
 252 151 252 151 256 155.5 c 128,-1,116
 260 160 260 160 266 160 c 2,117,-1
 272 160 l 2,118,119
 277 160 277 160 281.5 155.5 c 128,-1,120
 286 151 286 151 286 144 c 2,121,-1
 286 48 l 2,122,123
 286 41 286 41 281.5 36.5 c 128,-1,124
 277 32 277 32 272 32 c 2,125,-1
 266 32 l 2,126,127
 260 32 260 32 256 36.5 c 128,-1,128
 252 41 252 41 252 48 c 2,113,-1
327 48 m 2,129,-1
 327 144 l 2,130,131
 327 160 327 160 341 160 c 2,132,-1
 347 160 l 2,133,134
 361 160 361 160 361 144 c 2,135,-1
 361 48 l 2,136,137
 361 32 361 32 347 32 c 2,138,-1
 341 32 l 2,139,140
 327 32 327 32 327 48 c 2,129,-1
EndSplineSet
EndChar

StartChar: hand-peace
Encoding: 62043 62043 89
Width: 448
GlyphClass: 3
Flags: W
LayerCount: 2
Fore
SplineSet
362 256 m 1,0,1
 383 263 383 263 403 256 c 128,-1,2
 423 249 423 249 435.5 231.5 c 128,-1,3
 448 214 448 214 448 192 c 2,4,-1
 448 122 l 2,5,6
 448 114 448 114 446 107 c 2,7,-1
 419 -12 l 2,8,9
 414 -35 414 -35 395.5 -49.5 c 128,-1,10
 377 -64 377 -64 354 -64 c 2,11,-1
 149 -64 l 2,12,13
 110 -64 110 -64 91 -30 c 2,14,-1
 36 68 l 2,15,16
 8 117 8 117 61 160 c 1,17,-1
 5 305 l 2,18,19
 -6 334 -6 334 6 362 c 128,-1,20
 18 390 18 390 46 401 c 0,21,22
 66 408 66 408 84.5 405.5 c 128,-1,23
 103 403 103 403 118.5 390.5 c 128,-1,24
 134 378 134 378 141 359 c 2,25,-1
 160 280 l 1,26,-1
 151 374 l 2,27,28
 151 405 151 405 172.5 426.5 c 128,-1,29
 194 448 194 448 224 448 c 128,-1,30
 254 448 254 448 275.5 426.5 c 128,-1,31
 297 405 297 405 297 374 c 2,32,-1
 297 286 l 1,33,34
 317 289 317 289 334.5 280.5 c 128,-1,35
 352 272 352 272 362 256 c 1,0,1
400 122 m 2,36,-1
 400 192 l 2,37,38
 400 204 400 204 391 209 c 128,-1,39
 382 214 382 214 372.5 209 c 128,-1,40
 363 204 363 204 363 192 c 0,41,42
 363 185 363 185 358.5 180.5 c 128,-1,43
 354 176 354 176 347 176 c 2,44,-1
 341 176 l 2,45,46
 334 176 334 176 329.5 180.5 c 128,-1,47
 325 185 325 185 325 192 c 2,48,-1
 325 220 l 2,49,50
 325 232 325 232 315.5 237 c 128,-1,51
 306 242 306 242 297 237 c 128,-1,52
 288 232 288 232 288 220 c 2,53,-1
 288 192 l 2,54,55
 288 185 288 185 283.5 180.5 c 128,-1,56
 279 176 279 176 272 176 c 2,57,-1
 265 176 l 2,58,59
 259 176 259 176 254 180.5 c 128,-1,60
 249 185 249 185 249 192 c 2,61,-1
 249 374 l 2,62,63
 249 390 249 390 236.5 397 c 128,-1,64
 224 404 224 404 211.5 397 c 128,-1,65
 199 390 199 390 199 374 c 2,66,-1
 199 192 l 2,67,68
 199 185 199 185 194 180.5 c 128,-1,69
 189 176 189 176 183 176 c 2,70,-1
 171 176 l 2,71,72
 160 176 160 176 156 186 c 2,73,-1
 97 342 l 2,74,75
 91 357 91 357 77 358.5 c 128,-1,76
 63 360 63 360 53.5 349 c 128,-1,77
 44 338 44 338 50 322 c 2,78,-1
 114 156 l 2,79,80
 115 153 115 153 115 150 c 0,81,82
 115 143 115 143 109 138 c 2,83,-1
 82 116 l 2,84,85
 70 106 70 106 78 91 c 2,86,-1
 133 -7 l 2,87,88
 138 -16 138 -16 149 -16 c 2,89,-1
 354 -16 l 2,90,91
 369 -16 369 -16 372 -1 c 2,92,-1
 399 118 l 2,93,94
 400 120 400 120 400 122 c 2,36,-1
EndSplineSet
EndChar

StartChar: registered
Encoding: 62045 62045 90
Width: 512
GlyphClass: 3
Flags: W
LayerCount: 2
Fore
SplineSet
256 440 m 128,-1,1
 359 440 359 440 431.5 367.5 c 128,-1,2
 504 295 504 295 504 192 c 128,-1,3
 504 89 504 89 431.5 16.5 c 128,-1,4
 359 -56 359 -56 256 -56 c 128,-1,5
 153 -56 153 -56 80.5 16.5 c 128,-1,6
 8 89 8 89 8 192 c 128,-1,7
 8 295 8 295 80.5 367.5 c 128,-1,0
 153 440 153 440 256 440 c 128,-1,1
256 -8 m 128,-1,9
 339 -8 339 -8 397.5 50.5 c 128,-1,10
 456 109 456 109 456 192 c 128,-1,11
 456 275 456 275 397.5 333.5 c 128,-1,12
 339 392 339 392 256 392 c 128,-1,13
 173 392 173 392 114.5 333.5 c 128,-1,14
 56 275 56 275 56 192 c 128,-1,15
 56 109 56 109 114.5 50.5 c 128,-1,8
 173 -8 173 -8 256 -8 c 128,-1,9
366 74 m 0,16,17
 368 71 368 71 368 67.5 c 128,-1,18
 368 64 368 64 366.5 61.5 c 128,-1,19
 365 59 365 59 362 57.5 c 128,-1,20
 359 56 359 56 356 56 c 2,21,-1
 313 56 l 2,22,23
 306 56 306 56 303 62 c 2,24,-1
 255 152 l 1,25,-1
 223 152 l 1,26,-1
 223 68 l 2,27,28
 223 63 223 63 219.5 59.5 c 128,-1,29
 216 56 216 56 211 56 c 2,30,-1
 172 56 l 2,31,32
 168 56 168 56 164 59.5 c 128,-1,33
 160 63 160 63 160 68 c 2,34,-1
 160 316 l 2,35,36
 160 321 160 321 164 324.5 c 128,-1,37
 168 328 168 328 172 328 c 2,38,-1
 251 328 l 2,39,40
 353 328 353 328 353 243 c 0,41,42
 353 192 353 192 313 170 c 1,43,44
 315 167 315 167 366 74 c 0,16,17
257 208 m 2,45,46
 289 208 289 208 289 241 c 0,47,48
 289 251 289 251 286.5 257.5 c 128,-1,49
 284 264 284 264 275 268 c 128,-1,50
 266 272 266 272 250 272 c 2,51,-1
 223 272 l 1,52,-1
 223 208 l 1,53,-1
 257 208 l 2,45,46
EndSplineSet
EndChar

StartChar: calendar-plus
Encoding: 62065 62065 91
Width: 448
GlyphClass: 3
Flags: W
LayerCount: 2
Fore
SplineSet
336 156 m 2,0,-1
 336 132 l 2,1,2
 336 120 336 120 324 120 c 2,3,-1
 248 120 l 1,4,-1
 248 44 l 2,5,6
 248 32 248 32 236 32 c 2,7,-1
 212 32 l 2,8,9
 200 32 200 32 200 44 c 2,10,-1
 200 120 l 1,11,-1
 124 120 l 2,12,13
 112 120 112 120 112 132 c 2,14,-1
 112 156 l 2,15,16
 112 168 112 168 124 168 c 2,17,-1
 200 168 l 1,18,-1
 200 244 l 2,19,20
 200 256 200 256 212 256 c 2,21,-1
 236 256 l 2,22,23
 248 256 248 256 248 244 c 2,24,-1
 248 168 l 1,25,-1
 324 168 l 2,26,27
 336 168 336 168 336 156 c 2,0,-1
448 336 m 2,28,-1
 448 -16 l 2,29,30
 448 -36 448 -36 434 -50 c 128,-1,31
 420 -64 420 -64 400 -64 c 2,32,-1
 48 -64 l 2,33,34
 28 -64 28 -64 14 -50 c 128,-1,35
 0 -36 0 -36 0 -16 c 2,36,-1
 0 336 l 2,37,38
 0 356 0 356 14 370 c 128,-1,39
 28 384 28 384 48 384 c 2,40,-1
 96 384 l 1,41,-1
 96 436 l 2,42,43
 96 448 96 448 108 448 c 2,44,-1
 148 448 l 2,45,46
 160 448 160 448 160 436 c 2,47,-1
 160 384 l 1,48,-1
 288 384 l 1,49,-1
 288 436 l 2,50,51
 288 448 288 448 300 448 c 2,52,-1
 340 448 l 2,53,54
 352 448 352 448 352 436 c 2,55,-1
 352 384 l 1,56,-1
 400 384 l 2,57,58
 420 384 420 384 434 370 c 128,-1,59
 448 356 448 356 448 336 c 2,28,-1
400 -10 m 2,60,-1
 400 288 l 1,61,-1
 48 288 l 1,62,-1
 48 -10 l 2,63,64
 48 -16 48 -16 54 -16 c 2,65,-1
 394 -16 l 2,66,67
 400 -16 400 -16 400 -10 c 2,60,-1
EndSplineSet
EndChar

StartChar: calendar-minus
Encoding: 62066 62066 92
Width: 448
GlyphClass: 3
Flags: W
LayerCount: 2
Fore
SplineSet
124 120 m 2,0,1
 112 120 112 120 112 132 c 2,2,-1
 112 156 l 2,3,4
 112 168 112 168 124 168 c 2,5,-1
 324 168 l 2,6,7
 336 168 336 168 336 156 c 2,8,-1
 336 132 l 2,9,10
 336 120 336 120 324 120 c 2,11,-1
 124 120 l 2,0,1
448 336 m 2,12,-1
 448 -16 l 2,13,14
 448 -36 448 -36 434 -50 c 128,-1,15
 420 -64 420 -64 400 -64 c 2,16,-1
 48 -64 l 2,17,18
 28 -64 28 -64 14 -50 c 128,-1,19
 0 -36 0 -36 0 -16 c 2,20,-1
 0 336 l 2,21,22
 0 356 0 356 14 370 c 128,-1,23
 28 384 28 384 48 384 c 2,24,-1
 96 384 l 1,25,-1
 96 436 l 2,26,27
 96 448 96 448 108 448 c 2,28,-1
 148 448 l 2,29,30
 160 448 160 448 160 436 c 2,31,-1
 160 384 l 1,32,-1
 288 384 l 1,33,-1
 288 436 l 2,34,35
 288 448 288 448 300 448 c 2,36,-1
 340 448 l 2,37,38
 352 448 352 448 352 436 c 2,39,-1
 352 384 l 1,40,-1
 400 384 l 2,41,42
 420 384 420 384 434 370 c 128,-1,43
 448 356 448 356 448 336 c 2,12,-1
400 -10 m 2,44,-1
 400 288 l 1,45,-1
 48 288 l 1,46,-1
 48 -10 l 2,47,48
 48 -16 48 -16 54 -16 c 2,49,-1
 394 -16 l 2,50,51
 400 -16 400 -16 400 -10 c 2,44,-1
EndSplineSet
EndChar

StartChar: calendar-times
Encoding: 62067 62067 93
Width: 448
GlyphClass: 3
Flags: W
LayerCount: 2
Fore
SplineSet
312 73 m 2,0,-1
 295 56 l 2,1,2
 286 48 286 48 278 56 c 2,3,-1
 224 110 l 1,4,-1
 170 56 l 2,5,6
 162 48 162 48 153 56 c 2,7,-1
 136 73 l 2,8,9
 128 82 128 82 136 90 c 2,10,-1
 190 144 l 1,11,-1
 136 198 l 2,12,13
 128 206 128 206 136 215 c 2,14,-1
 153 232 l 2,15,16
 162 240 162 240 170 232 c 2,17,-1
 224 178 l 1,18,-1
 278 232 l 2,19,20
 286 240 286 240 295 232 c 2,21,-1
 312 215 l 2,22,23
 320 206 320 206 312 198 c 2,24,-1
 258 144 l 1,25,-1
 312 90 l 2,26,27
 320 82 320 82 312 73 c 2,0,-1
448 336 m 2,28,-1
 448 -16 l 2,29,30
 448 -36 448 -36 434 -50 c 128,-1,31
 420 -64 420 -64 400 -64 c 2,32,-1
 48 -64 l 2,33,34
 28 -64 28 -64 14 -50 c 128,-1,35
 0 -36 0 -36 0 -16 c 2,36,-1
 0 336 l 2,37,38
 0 356 0 356 14 370 c 128,-1,39
 28 384 28 384 48 384 c 2,40,-1
 96 384 l 1,41,-1
 96 436 l 2,42,43
 96 448 96 448 108 448 c 2,44,-1
 148 448 l 2,45,46
 160 448 160 448 160 436 c 2,47,-1
 160 384 l 1,48,-1
 288 384 l 1,49,-1
 288 436 l 2,50,51
 288 448 288 448 300 448 c 2,52,-1
 340 448 l 2,53,54
 352 448 352 448 352 436 c 2,55,-1
 352 384 l 1,56,-1
 400 384 l 2,57,58
 420 384 420 384 434 370 c 128,-1,59
 448 356 448 356 448 336 c 2,28,-1
400 -10 m 2,60,-1
 400 288 l 1,61,-1
 48 288 l 1,62,-1
 48 -10 l 2,63,64
 48 -16 48 -16 54 -16 c 2,65,-1
 394 -16 l 2,66,67
 400 -16 400 -16 400 -10 c 2,60,-1
EndSplineSet
EndChar

StartChar: calendar-check
Encoding: 62068 62068 94
Width: 448
GlyphClass: 3
Flags: W
LayerCount: 2
Fore
SplineSet
400 384 m 2,0,1
 420 384 420 384 434 370 c 128,-1,2
 448 356 448 356 448 336 c 2,3,-1
 448 -16 l 2,4,5
 448 -36 448 -36 434 -50 c 128,-1,6
 420 -64 420 -64 400 -64 c 2,7,-1
 48 -64 l 2,8,9
 28 -64 28 -64 14 -50 c 128,-1,10
 0 -36 0 -36 0 -16 c 2,11,-1
 0 336 l 2,12,13
 0 356 0 356 14 370 c 128,-1,14
 28 384 28 384 48 384 c 2,15,-1
 96 384 l 1,16,-1
 96 436 l 2,17,18
 96 448 96 448 108 448 c 2,19,-1
 148 448 l 2,20,21
 160 448 160 448 160 436 c 2,22,-1
 160 384 l 1,23,-1
 288 384 l 1,24,-1
 288 436 l 2,25,26
 288 448 288 448 300 448 c 2,27,-1
 340 448 l 2,28,29
 352 448 352 448 352 436 c 2,30,-1
 352 384 l 1,31,-1
 400 384 l 2,0,1
394 -16 m 2,32,33
 400 -16 400 -16 400 -10 c 2,34,-1
 400 288 l 1,35,-1
 48 288 l 1,36,-1
 48 -10 l 2,37,38
 48 -16 48 -16 54 -16 c 2,39,-1
 394 -16 l 2,32,33
341 185 m 2,40,-1
 199 43 l 2,41,42
 190 35 190 35 182 44 c 2,43,-1
 107 119 l 2,44,45
 98 128 98 128 107 136 c 2,46,-1
 130 159 l 2,47,48
 138 167 138 167 147 159 c 2,49,-1
 191 114 l 1,50,-1
 302 224 l 2,51,52
 310 233 310 233 319 224 c 2,53,-1
 341 202 l 2,54,55
 350 193 350 193 341 185 c 2,40,-1
EndSplineSet
EndChar

StartChar: map
Encoding: 62073 62073 95
Width: 576
GlyphClass: 3
Flags: W
LayerCount: 2
Fore
SplineSet
560 416 m 0,0,1
 566 416 566 416 571 411.5 c 128,-1,2
 576 407 576 407 576 400 c 2,3,-1
 576 54 l 2,4,5
 576 48 576 48 573.5 42 c 128,-1,6
 571 36 571 36 566 31 c 128,-1,7
 561 26 561 26 556 24 c 2,8,-1
 404 -29 l 2,9,10
 394 -32 394 -32 384 -32 c 256,11,12
 374 -32 374 -32 364 -29 c 2,13,-1
 192 32 l 1,14,-1
 22 -31 l 2,15,16
 19 -32 19 -32 16 -32 c 0,17,18
 10 -32 10 -32 5 -27.5 c 128,-1,19
 0 -23 0 -23 0 -16 c 2,20,-1
 0 330 l 2,21,22
 0 336 0 336 2.5 342 c 128,-1,23
 5 348 5 348 10 353 c 128,-1,24
 15 358 15 358 20 360 c 2,25,-1
 172 413 l 2,26,27
 182 416 182 416 192 416 c 256,28,29
 202 416 202 416 212 413 c 2,30,-1
 384 352 l 1,31,-1
 554 415 l 2,32,33
 557 416 557 416 560 416 c 0,0,1
224 358 m 1,34,-1
 224 72 l 1,35,-1
 352 26 l 1,36,-1
 352 312 l 1,37,-1
 224 358 l 1,34,-1
48 30 m 1,38,-1
 175 77 l 1,39,-1
 176 77 l 1,40,-1
 176 363 l 1,41,-1
 48 319 l 1,42,-1
 48 30 l 1,38,-1
528 65 m 1,43,-1
 528 354 l 1,44,-1
 401 307 l 1,45,-1
 400 307 l 1,46,-1
 400 21 l 1,47,-1
 528 65 l 1,43,-1
EndSplineSet
EndChar

StartChar: comment-alt
Encoding: 62074 62074 96
Width: 512
GlyphClass: 3
Flags: W
LayerCount: 2
Fore
SplineSet
448 448 m 2,0,1
 474 448 474 448 493 429 c 128,-1,2
 512 410 512 410 512 384 c 2,3,-1
 512 96 l 2,4,5
 512 70 512 70 493 51 c 128,-1,6
 474 32 474 32 448 32 c 2,7,-1
 304 32 l 1,8,-1
 179 -62 l 2,9,10
 176 -64 176 -64 172 -64 c 0,11,12
 160 -64 160 -64 160 -52 c 2,13,-1
 160 32 l 1,14,-1
 64 32 l 2,15,16
 38 32 38 32 19 51 c 128,-1,17
 0 70 0 70 0 96 c 2,18,-1
 0 384 l 2,19,20
 0 410 0 410 19 429 c 128,-1,21
 38 448 38 448 64 448 c 2,22,-1
 448 448 l 2,0,1
464 96 m 2,23,-1
 464 384 l 2,24,25
 464 391 464 391 459.5 395.5 c 128,-1,26
 455 400 455 400 448 400 c 2,27,-1
 64 400 l 2,28,29
 57 400 57 400 52.5 395.5 c 128,-1,30
 48 391 48 391 48 384 c 2,31,-1
 48 96 l 2,32,33
 48 89 48 89 52.5 84.5 c 128,-1,34
 57 80 57 80 64 80 c 2,35,-1
 208 80 l 1,36,-1
 208 20 l 1,37,-1
 275 70 l 1,38,-1
 288 80 l 1,39,-1
 448 80 l 2,40,41
 455 80 455 80 459.5 84.5 c 128,-1,42
 464 89 464 89 464 96 c 2,23,-1
EndSplineSet
EndChar

StartChar: pause-circle
Encoding: 62091 62091 97
Width: 512
GlyphClass: 3
Flags: W
LayerCount: 2
Fore
SplineSet
256 440 m 128,-1,1
 359 440 359 440 431.5 367.5 c 128,-1,2
 504 295 504 295 504 192 c 128,-1,3
 504 89 504 89 431.5 16.5 c 128,-1,4
 359 -56 359 -56 256 -56 c 128,-1,5
 153 -56 153 -56 80.5 16.5 c 128,-1,6
 8 89 8 89 8 192 c 128,-1,7
 8 295 8 295 80.5 367.5 c 128,-1,0
 153 440 153 440 256 440 c 128,-1,1
256 -8 m 128,-1,9
 339 -8 339 -8 397.5 50.5 c 128,-1,10
 456 109 456 109 456 192 c 128,-1,11
 456 275 456 275 397.5 333.5 c 128,-1,12
 339 392 339 392 256 392 c 128,-1,13
 173 392 173 392 114.5 333.5 c 128,-1,14
 56 275 56 275 56 192 c 128,-1,15
 56 109 56 109 114.5 50.5 c 128,-1,8
 173 -8 173 -8 256 -8 c 128,-1,9
352 272 m 2,16,-1
 352 112 l 2,17,18
 352 105 352 105 347.5 100.5 c 128,-1,19
 343 96 343 96 336 96 c 2,20,-1
 288 96 l 2,21,22
 281 96 281 96 276.5 100.5 c 128,-1,23
 272 105 272 105 272 112 c 2,24,-1
 272 272 l 2,25,26
 272 279 272 279 276.5 283.5 c 128,-1,27
 281 288 281 288 288 288 c 2,28,-1
 336 288 l 2,29,30
 343 288 343 288 347.5 283.5 c 128,-1,31
 352 279 352 279 352 272 c 2,16,-1
240 272 m 2,32,-1
 240 112 l 2,33,34
 240 105 240 105 235.5 100.5 c 128,-1,35
 231 96 231 96 224 96 c 2,36,-1
 176 96 l 2,37,38
 169 96 169 96 164.5 100.5 c 128,-1,39
 160 105 160 105 160 112 c 2,40,-1
 160 272 l 2,41,42
 160 279 160 279 164.5 283.5 c 128,-1,43
 169 288 169 288 176 288 c 2,44,-1
 224 288 l 2,45,46
 231 288 231 288 235.5 283.5 c 128,-1,47
 240 279 240 279 240 272 c 2,32,-1
EndSplineSet
EndChar

StartChar: stop-circle
Encoding: 62093 62093 98
Width: 512
GlyphClass: 3
Flags: W
LayerCount: 2
Fore
SplineSet
504 192 m 128,-1,1
 504 89 504 89 431.5 16.5 c 128,-1,2
 359 -56 359 -56 256 -56 c 128,-1,3
 153 -56 153 -56 80.5 16.5 c 128,-1,4
 8 89 8 89 8 192 c 128,-1,5
 8 295 8 295 80.5 367.5 c 128,-1,6
 153 440 153 440 256 440 c 128,-1,7
 359 440 359 440 431.5 367.5 c 128,-1,0
 504 295 504 295 504 192 c 128,-1,1
56 192 m 128,-1,9
 56 109 56 109 114.5 50.5 c 128,-1,10
 173 -8 173 -8 256 -8 c 128,-1,11
 339 -8 339 -8 397.5 50.5 c 128,-1,12
 456 109 456 109 456 192 c 128,-1,13
 456 275 456 275 397.5 333.5 c 128,-1,14
 339 392 339 392 256 392 c 128,-1,15
 173 392 173 392 114.5 333.5 c 128,-1,8
 56 275 56 275 56 192 c 128,-1,9
352 272 m 2,16,-1
 352 112 l 2,17,18
 352 105 352 105 347.5 100.5 c 128,-1,19
 343 96 343 96 336 96 c 2,20,-1
 176 96 l 2,21,22
 169 96 169 96 164.5 100.5 c 128,-1,23
 160 105 160 105 160 112 c 2,24,-1
 160 272 l 2,25,26
 160 279 160 279 164.5 283.5 c 128,-1,27
 169 288 169 288 176 288 c 2,28,-1
 336 288 l 2,29,30
 343 288 343 288 347.5 283.5 c 128,-1,31
 352 279 352 279 352 272 c 2,16,-1
EndSplineSet
EndChar

StartChar: handshake
Encoding: 62133 62133 99
Width: 640
GlyphClass: 3
Flags: W
LayerCount: 2
Fore
SplineSet
519 320 m 1,0,-1
 640 320 l 1,1,-1
 640 64 l 1,2,-1
 576 64 l 2,3,4
 563 64 563 64 553.5 73.5 c 128,-1,5
 544 83 544 83 544 96 c 1,6,-1
 486 96 l 1,7,8
 483 83 483 83 475 73 c 2,9,-1
 449 41 l 2,10,11
 437 26 437 26 419.5 21.5 c 128,-1,12
 402 17 402 17 385 24 c 1,13,14
 366 0 366 0 336 0 c 0,15,16
 314 0 314 0 295 16 c 1,17,18
 272 -1 272 -1 242.5 0 c 128,-1,19
 213 1 213 1 190 20 c 2,20,-1
 105 96 l 1,21,-1
 96 96 l 1,22,23
 96 87 96 87 91.5 80 c 128,-1,24
 87 73 87 73 80 68.5 c 128,-1,25
 73 64 73 64 64 64 c 2,26,-1
 0 64 l 1,27,-1
 0 320 l 1,28,-1
 118 320 l 1,29,-1
 166 368 l 2,30,31
 182 384 182 384 205 384 c 2,32,-1
 432 384 l 2,33,34
 455 384 455 384 472 368 c 2,35,-1
 519 320 l 1,0,-1
48 96 m 128,-1,37
 55 96 55 96 59.5 101 c 128,-1,38
 64 106 64 106 64 112.5 c 128,-1,39
 64 119 64 119 59.5 123.5 c 128,-1,40
 55 128 55 128 48 128 c 128,-1,41
 41 128 41 128 36.5 123.5 c 128,-1,42
 32 119 32 119 32 112.5 c 128,-1,43
 32 106 32 106 36.5 101 c 128,-1,36
 41 96 41 96 48 96 c 128,-1,37
438 103 m 2,44,45
 443 110 443 110 437 115 c 2,46,-1
 329 202 l 1,47,-1
 320 195 l 2,48,49
 302 178 302 178 279.5 176.5 c 128,-1,50
 257 175 257 175 242.5 182.5 c 128,-1,51
 228 190 228 190 219 199 c 0,52,53
 199 221 199 221 200 250.5 c 128,-1,54
 201 280 201 280 223 301 c 2,55,-1
 262 336 l 1,56,-1
 205 336 l 2,57,58
 204 336 204 336 202.5 335 c 128,-1,59
 201 334 201 334 200 334 c 2,60,-1
 138 272 l 1,61,-1
 96 272 l 1,62,-1
 96 144 l 1,63,-1
 124 144 l 1,64,-1
 221 56 l 2,65,66
 233 46 233 46 249.5 48 c 128,-1,67
 266 50 266 50 276 63 c 2,68,-1
 292 82 l 1,69,-1
 329 50 l 2,70,71
 338 43 338 43 347 53 c 2,72,-1
 377 89 l 1,73,-1
 401 70 l 2,74,75
 407 65 407 65 412 71 c 2,76,-1
 438 103 l 2,44,45
544 144 m 1,77,-1
 544 272 l 1,78,-1
 499 272 l 1,79,-1
 438 334 l 2,80,81
 435 336 435 336 432 336 c 2,82,-1
 348 336 l 2,83,84
 333 336 333 336 321 325 c 2,85,-1
 256 265 l 2,86,87
 248 259 248 259 248 249 c 128,-1,88
 248 239 248 239 255 231 c 0,89,90
 261 224 261 224 271.5 224.5 c 128,-1,91
 282 225 282 225 289 231 c 2,92,-1
 344 282 l 2,93,94
 356 293 356 293 367 281 c 2,95,-1
 378 269 l 2,96,97
 389 257 389 257 377 247 c 2,98,-1
 364 235 l 1,99,-1
 467 152 l 2,100,101
 471 148 471 148 475 144 c 1,102,-1
 544 144 l 1,77,-1
592 96 m 128,-1,104
 599 96 599 96 603.5 101 c 128,-1,105
 608 106 608 106 608 112.5 c 128,-1,106
 608 119 608 119 603.5 123.5 c 128,-1,107
 599 128 599 128 592 128 c 128,-1,108
 585 128 585 128 580.5 123.5 c 128,-1,109
 576 119 576 119 576 112.5 c 128,-1,110
 576 106 576 106 580.5 101 c 128,-1,103
 585 96 585 96 592 96 c 128,-1,104
EndSplineSet
EndChar

StartChar: envelope-open
Encoding: 62134 62134 100
Width: 512
GlyphClass: 3
Flags: W
LayerCount: 2
Fore
SplineSet
495 283 m 0,0,1
 512 269 512 269 512 246 c 2,2,-1
 512 -16 l 2,3,4
 512 -36 512 -36 498 -50 c 128,-1,5
 484 -64 484 -64 464 -64 c 2,6,-1
 48 -64 l 2,7,8
 28 -64 28 -64 14 -50 c 128,-1,9
 0 -36 0 -36 0 -16 c 2,10,-1
 0 247 l 2,11,12
 0 269 0 269 18 284 c 0,13,14
 58 317 58 317 153 392 c 0,15,16
 156 395 156 395 165 402.5 c 128,-1,17
 174 410 174 410 180 415 c 128,-1,18
 186 420 186 420 196.5 427 c 128,-1,19
 207 434 207 434 215.5 438 c 128,-1,20
 224 442 224 442 235 445 c 128,-1,21
 246 448 246 448 256 448 c 128,-1,22
 266 448 266 448 277 445 c 128,-1,23
 288 442 288 442 297 438 c 128,-1,24
 306 434 306 434 316 426.5 c 128,-1,25
 326 419 326 419 332 414.5 c 128,-1,26
 338 410 338 410 347 402.5 c 128,-1,27
 356 395 356 395 359 392 c 0,28,29
 459 313 459 313 495 283 c 0,0,1
464 -10 m 2,30,-1
 464 244 l 2,31,32
 464 246 464 246 462 248 c 0,33,34
 381 314 381 314 329 355 c 0,35,36
 328 355 328 355 314.5 366.5 c 128,-1,37
 301 378 301 378 294 383 c 128,-1,38
 287 388 287 388 275.5 394 c 128,-1,39
 264 400 264 400 256 400 c 128,-1,40
 248 400 248 400 236.5 394 c 128,-1,41
 225 388 225 388 218 383.5 c 128,-1,42
 211 379 211 379 197.5 367 c 128,-1,43
 184 355 184 355 183 355 c 0,44,45
 136 318 136 318 50 248 c 0,46,47
 48 247 48 247 48 244 c 2,48,-1
 48 -10 l 2,49,50
 48 -16 48 -16 54 -16 c 2,51,-1
 458 -16 l 2,52,53
 464 -16 464 -16 464 -10 c 2,30,-1
432 178 m 2,54,55
 440 168 440 168 430 161 c 0,56,57
 375 116 375 116 359 104 c 0,58,59
 356 101 356 101 347 93.5 c 128,-1,60
 338 86 338 86 332 81 c 128,-1,61
 326 76 326 76 315.5 69 c 128,-1,62
 305 62 305 62 296.5 58 c 128,-1,63
 288 54 288 54 277 51 c 128,-1,64
 266 48 266 48 256 48 c 0,65,66
 244 48 244 48 231.5 51.5 c 128,-1,67
 219 55 219 55 206.5 63 c 128,-1,68
 194 71 194 71 187 76 c 128,-1,69
 180 81 180 81 167 91.5 c 128,-1,70
 154 102 154 102 153 104 c 0,71,72
 137 116 137 116 82 161 c 0,73,74
 72 168 72 168 80 178 c 2,75,-1
 95 196 l 2,76,77
 103 205 103 205 112 198 c 0,78,79
 167 154 167 154 183 141 c 0,80,81
 184 141 184 141 197.5 129.5 c 128,-1,82
 211 118 211 118 218 113 c 128,-1,83
 225 108 225 108 236.5 102 c 128,-1,84
 248 96 248 96 256 96 c 0,85,86
 262 96 262 96 268.5 98.5 c 128,-1,87
 275 101 275 101 281 104.5 c 128,-1,88
 287 108 287 108 294.5 113.5 c 128,-1,89
 302 119 302 119 307.5 123 c 128,-1,90
 313 127 313 127 319.5 133 c 128,-1,91
 326 139 326 139 329 141 c 0,92,93
 345 154 345 154 400 198 c 0,94,95
 409 205 409 205 417 196 c 2,96,-1
 432 178 l 2,54,55
EndSplineSet
EndChar

StartChar: address-book
Encoding: 62137 62137 101
Width: 448
GlyphClass: 3
Flags: W
LayerCount: 2
Fore
SplineSet
436 288 m 2,0,-1
 416 288 l 1,1,-1
 416 224 l 1,2,-1
 436 224 l 2,3,4
 448 224 448 224 448 212 c 2,5,-1
 448 172 l 2,6,7
 448 160 448 160 436 160 c 2,8,-1
 416 160 l 1,9,-1
 416 96 l 1,10,-1
 436 96 l 2,11,12
 448 96 448 96 448 84 c 2,13,-1
 448 44 l 2,14,15
 448 32 448 32 436 32 c 2,16,-1
 416 32 l 1,17,-1
 416 -16 l 2,18,19
 416 -36 416 -36 402 -50 c 128,-1,20
 388 -64 388 -64 368 -64 c 2,21,-1
 48 -64 l 2,22,23
 28 -64 28 -64 14 -50 c 128,-1,24
 0 -36 0 -36 0 -16 c 2,25,-1
 0 400 l 2,26,27
 0 420 0 420 14 434 c 128,-1,28
 28 448 28 448 48 448 c 2,29,-1
 368 448 l 2,30,31
 388 448 388 448 402 434 c 128,-1,32
 416 420 416 420 416 400 c 2,33,-1
 416 352 l 1,34,-1
 436 352 l 2,35,36
 448 352 448 352 448 340 c 2,37,-1
 448 300 l 2,38,39
 448 288 448 288 436 288 c 2,0,-1
368 -16 m 1,40,-1
 368 400 l 1,41,-1
 48 400 l 1,42,-1
 48 -16 l 1,43,-1
 368 -16 l 1,40,-1
208 192 m 128,-1,45
 182 192 182 192 163 211 c 128,-1,46
 144 230 144 230 144 256 c 128,-1,47
 144 282 144 282 163 301 c 128,-1,48
 182 320 182 320 208 320 c 128,-1,49
 234 320 234 320 253 301 c 128,-1,50
 272 282 272 282 272 256 c 128,-1,51
 272 230 272 230 253 211 c 128,-1,44
 234 192 234 192 208 192 c 128,-1,45
118 64 m 2,52,53
 109 64 109 64 102.5 69.5 c 128,-1,54
 96 75 96 75 96 83 c 2,55,-1
 96 102 l 2,56,57
 96 126 96 126 115.5 143 c 128,-1,58
 135 160 135 160 163 160 c 0,59,60
 167 160 167 160 180 156 c 128,-1,61
 193 152 193 152 208 152 c 256,62,63
 223 152 223 152 236 156 c 128,-1,64
 249 160 249 160 253 160 c 0,65,66
 281 160 281 160 300.5 143 c 128,-1,67
 320 126 320 126 320 102 c 2,68,-1
 320 83 l 2,69,70
 320 75 320 75 313.5 69.5 c 128,-1,71
 307 64 307 64 298 64 c 2,72,-1
 118 64 l 2,52,53
EndSplineSet
EndChar

StartChar: address-card
Encoding: 62139 62139 102
Width: 576
GlyphClass: 3
Flags: W
LayerCount: 2
Fore
SplineSet
528 416 m 2,0,1
 548 416 548 416 562 402 c 128,-1,2
 576 388 576 388 576 368 c 2,3,-1
 576 16 l 2,4,5
 576 -4 576 -4 562 -18 c 128,-1,6
 548 -32 548 -32 528 -32 c 2,7,-1
 48 -32 l 2,8,9
 28 -32 28 -32 14 -18 c 128,-1,10
 0 -4 0 -4 0 16 c 2,11,-1
 0 368 l 2,12,13
 0 388 0 388 14 402 c 128,-1,14
 28 416 28 416 48 416 c 2,15,-1
 528 416 l 2,0,1
528 16 m 1,16,-1
 528 368 l 1,17,-1
 48 368 l 1,18,-1
 48 16 l 1,19,-1
 528 16 l 1,16,-1
208 192 m 128,-1,21
 182 192 182 192 163 211 c 128,-1,22
 144 230 144 230 144 256 c 128,-1,23
 144 282 144 282 163 301 c 128,-1,24
 182 320 182 320 208 320 c 128,-1,25
 234 320 234 320 253 301 c 128,-1,26
 272 282 272 282 272 256 c 128,-1,27
 272 230 272 230 253 211 c 128,-1,20
 234 192 234 192 208 192 c 128,-1,21
118 64 m 2,28,29
 109 64 109 64 102.5 69.5 c 128,-1,30
 96 75 96 75 96 83 c 2,31,-1
 96 102 l 2,32,33
 96 126 96 126 115.5 143 c 128,-1,34
 135 160 135 160 163 160 c 0,35,36
 167 160 167 160 180 156 c 128,-1,37
 193 152 193 152 208 152 c 256,38,39
 223 152 223 152 236 156 c 128,-1,40
 249 160 249 160 253 160 c 0,41,42
 281 160 281 160 300.5 143 c 128,-1,43
 320 126 320 126 320 102 c 2,44,-1
 320 83 l 2,45,46
 320 75 320 75 313.5 69.5 c 128,-1,47
 307 64 307 64 298 64 c 2,48,-1
 118 64 l 2,28,29
360 128 m 2,49,50
 352 128 352 128 352 136 c 2,51,-1
 352 152 l 2,52,53
 352 160 352 160 360 160 c 2,54,-1
 472 160 l 2,55,56
 480 160 480 160 480 152 c 2,57,-1
 480 136 l 2,58,59
 480 128 480 128 472 128 c 2,60,-1
 360 128 l 2,49,50
360 192 m 2,61,62
 352 192 352 192 352 200 c 2,63,-1
 352 216 l 2,64,65
 352 224 352 224 360 224 c 2,66,-1
 472 224 l 2,67,68
 480 224 480 224 480 216 c 2,69,-1
 480 200 l 2,70,71
 480 192 480 192 472 192 c 2,72,-1
 360 192 l 2,61,62
360 256 m 2,73,74
 352 256 352 256 352 264 c 2,75,-1
 352 280 l 2,76,77
 352 288 352 288 360 288 c 2,78,-1
 472 288 l 2,79,80
 480 288 480 288 480 280 c 2,81,-1
 480 264 l 2,82,83
 480 256 480 256 472 256 c 2,84,-1
 360 256 l 2,73,74
EndSplineSet
EndChar

StartChar: user-circle
Encoding: 62141 62141 103
Width: 496
GlyphClass: 3
Flags: W
LayerCount: 2
Fore
SplineSet
248 344 m 128,-1,1
 288 344 288 344 316 316 c 128,-1,2
 344 288 344 288 344 248 c 128,-1,3
 344 208 344 208 316 180 c 128,-1,4
 288 152 288 152 248 152 c 128,-1,5
 208 152 208 152 180 180 c 128,-1,6
 152 208 152 208 152 248 c 128,-1,7
 152 288 152 288 180 316 c 128,-1,0
 208 344 208 344 248 344 c 128,-1,1
248 200 m 128,-1,9
 268 200 268 200 282 214 c 128,-1,10
 296 228 296 228 296 248 c 128,-1,11
 296 268 296 268 282 282 c 128,-1,12
 268 296 268 296 248 296 c 128,-1,13
 228 296 228 296 214 282 c 128,-1,14
 200 268 200 268 200 248 c 128,-1,15
 200 228 200 228 214 214 c 128,-1,8
 228 200 228 200 248 200 c 128,-1,9
248 440 m 128,-1,17
 351 440 351 440 423.5 367.5 c 128,-1,18
 496 295 496 295 496 192 c 128,-1,19
 496 89 496 89 423.5 16.5 c 128,-1,20
 351 -56 351 -56 248 -56 c 128,-1,21
 145 -56 145 -56 72.5 16.5 c 128,-1,22
 0 89 0 89 0 192 c 128,-1,23
 0 295 0 295 72.5 367.5 c 128,-1,16
 145 440 145 440 248 440 c 128,-1,17
248 -8 m 128,-1,25
 322 -8 322 -8 378 40 c 1,26,27
 354 78 354 78 308 80 c 1,28,29
 278 70 278 70 248 70 c 0,30,31
 219 70 219 70 188 80 c 1,32,33
 143 79 143 79 118 40 c 1,34,24
 174 -8 174 -8 248 -8 c 128,-1,25
411 76 m 1,35,36
 448 128 448 128 448 192 c 0,37,38
 448 275 448 275 389.5 333.5 c 128,-1,39
 331 392 331 392 248 392 c 128,-1,40
 165 392 165 392 106.5 333.5 c 128,-1,41
 48 275 48 275 48 192 c 0,42,43
 48 128 48 128 85 76 c 1,44,45
 126 128 126 128 190 128 c 0,46,47
 193 128 193 128 211.5 123 c 128,-1,48
 230 118 230 118 248 118 c 128,-1,49
 266 118 266 118 284.5 123 c 128,-1,50
 303 128 303 128 306 128 c 0,51,52
 370 128 370 128 411 76 c 1,35,36
EndSplineSet
EndChar

StartChar: id-badge
Encoding: 62145 62145 104
Width: 384
GlyphClass: 3
Flags: W
LayerCount: 2
Fore
SplineSet
336 448 m 2,0,1
 356 448 356 448 370 434 c 128,-1,2
 384 420 384 420 384 400 c 2,3,-1
 384 -16 l 2,4,5
 384 -36 384 -36 370 -50 c 128,-1,6
 356 -64 356 -64 336 -64 c 2,7,-1
 48 -64 l 2,8,9
 28 -64 28 -64 14 -50 c 128,-1,10
 0 -36 0 -36 0 -16 c 2,11,-1
 0 400 l 2,12,13
 0 420 0 420 14 434 c 128,-1,14
 28 448 28 448 48 448 c 2,15,-1
 336 448 l 2,0,1
336 -16 m 1,16,-1
 336 400 l 1,17,-1
 48 400 l 1,18,-1
 48 -16 l 1,19,-1
 336 -16 l 1,16,-1
144 336 m 2,20,21
 137 336 137 336 132.5 340.5 c 128,-1,22
 128 345 128 345 128 352 c 128,-1,23
 128 359 128 359 132.5 363.5 c 128,-1,24
 137 368 137 368 144 368 c 2,25,-1
 240 368 l 2,26,27
 247 368 247 368 251.5 363.5 c 128,-1,28
 256 359 256 359 256 352 c 128,-1,29
 256 345 256 345 251.5 340.5 c 128,-1,30
 247 336 247 336 240 336 c 2,31,-1
 144 336 l 2,20,21
192 160 m 128,-1,33
 166 160 166 160 147 179 c 128,-1,34
 128 198 128 198 128 224 c 128,-1,35
 128 250 128 250 147 269 c 128,-1,36
 166 288 166 288 192 288 c 128,-1,37
 218 288 218 288 237 269 c 128,-1,38
 256 250 256 250 256 224 c 128,-1,39
 256 198 256 198 237 179 c 128,-1,32
 218 160 218 160 192 160 c 128,-1,33
102 32 m 2,40,41
 93 32 93 32 86.5 37.5 c 128,-1,42
 80 43 80 43 80 51 c 2,43,-1
 80 70 l 2,44,45
 80 94 80 94 99.5 111 c 128,-1,46
 119 128 119 128 147 128 c 0,47,48
 151 128 151 128 164 124 c 128,-1,49
 177 120 177 120 192 120 c 256,50,51
 207 120 207 120 220 124 c 128,-1,52
 233 128 233 128 237 128 c 0,53,54
 265 128 265 128 284.5 111 c 128,-1,55
 304 94 304 94 304 70 c 2,56,-1
 304 51 l 2,57,58
 304 43 304 43 297.5 37.5 c 128,-1,59
 291 32 291 32 282 32 c 2,60,-1
 102 32 l 2,40,41
EndSplineSet
EndChar

StartChar: id-card
Encoding: 62146 62146 105
Width: 576
GlyphClass: 3
Flags: W
LayerCount: 2
Fore
SplineSet
528 416 m 2,0,1
 548 416 548 416 562 402 c 128,-1,2
 576 388 576 388 576 368 c 2,3,-1
 576 16 l 2,4,5
 576 -4 576 -4 562 -18 c 128,-1,6
 548 -32 548 -32 528 -32 c 2,7,-1
 48 -32 l 2,8,9
 28 -32 28 -32 14 -18 c 128,-1,10
 0 -4 0 -4 0 16 c 2,11,-1
 0 368 l 2,12,13
 0 388 0 388 14 402 c 128,-1,14
 28 416 28 416 48 416 c 2,15,-1
 528 416 l 2,0,1
528 16 m 1,16,-1
 528 304 l 1,17,-1
 48 304 l 1,18,-1
 48 16 l 1,19,-1
 81 16 l 1,20,21
 80 20 80 20 80 38 c 0,22,23
 80 62 80 62 99.5 79 c 128,-1,24
 119 96 119 96 147 96 c 0,25,26
 151 96 151 96 164 92 c 128,-1,27
 177 88 177 88 192 88 c 256,28,29
 207 88 207 88 220 92 c 128,-1,30
 233 96 233 96 237 96 c 0,31,32
 265 96 265 96 284.5 79 c 128,-1,33
 304 62 304 62 304 38 c 0,34,35
 304 20 304 20 303 16 c 1,36,-1
 528 16 l 1,16,-1
360 96 m 2,37,38
 352 96 352 96 352 104 c 2,39,-1
 352 120 l 2,40,41
 352 128 352 128 360 128 c 2,42,-1
 472 128 l 2,43,44
 480 128 480 128 480 120 c 2,45,-1
 480 104 l 2,46,47
 480 96 480 96 472 96 c 2,48,-1
 360 96 l 2,37,38
360 160 m 2,49,50
 352 160 352 160 352 168 c 2,51,-1
 352 184 l 2,52,53
 352 192 352 192 360 192 c 2,54,-1
 472 192 l 2,55,56
 480 192 480 192 480 184 c 2,57,-1
 480 168 l 2,58,59
 480 160 480 160 472 160 c 2,60,-1
 360 160 l 2,49,50
360 224 m 2,61,62
 352 224 352 224 352 232 c 2,63,-1
 352 248 l 2,64,65
 352 256 352 256 360 256 c 2,66,-1
 472 256 l 2,67,68
 480 256 480 256 480 248 c 2,69,-1
 480 232 l 2,70,71
 480 224 480 224 472 224 c 2,72,-1
 360 224 l 2,61,62
192 128 m 128,-1,74
 166 128 166 128 147 147 c 128,-1,75
 128 166 128 166 128 192 c 128,-1,76
 128 218 128 218 147 237 c 128,-1,77
 166 256 166 256 192 256 c 128,-1,78
 218 256 218 256 237 237 c 128,-1,79
 256 218 256 218 256 192 c 128,-1,80
 256 166 256 166 237 147 c 128,-1,73
 218 128 218 128 192 128 c 128,-1,74
EndSplineSet
EndChar

StartChar: window-maximize
Encoding: 62160 62160 106
Width: 512
GlyphClass: 3
Flags: W
LayerCount: 2
Fore
SplineSet
464 416 m 2,0,1
 484 416 484 416 498 402 c 128,-1,2
 512 388 512 388 512 368 c 2,3,-1
 512 16 l 2,4,5
 512 -4 512 -4 498 -18 c 128,-1,6
 484 -32 484 -32 464 -32 c 2,7,-1
 48 -32 l 2,8,9
 28 -32 28 -32 14 -18 c 128,-1,10
 0 -4 0 -4 0 16 c 2,11,-1
 0 368 l 2,12,13
 0 388 0 388 14 402 c 128,-1,14
 28 416 28 416 48 416 c 2,15,-1
 464 416 l 2,0,1
464 22 m 2,16,-1
 464 256 l 1,17,-1
 48 256 l 1,18,-1
 48 22 l 2,19,20
 48 16 48 16 54 16 c 2,21,-1
 458 16 l 2,22,23
 464 16 464 16 464 22 c 2,16,-1
EndSplineSet
EndChar

StartChar: window-minimize
Encoding: 62161 62161 107
Width: 512
GlyphClass: 3
Flags: W
LayerCount: 2
Fore
SplineSet
480 -32 m 2,0,-1
 32 -32 l 2,1,2
 19 -32 19 -32 9.5 -22.5 c 128,-1,3
 0 -13 0 -13 0 0 c 128,-1,4
 0 13 0 13 9.5 22.5 c 128,-1,5
 19 32 19 32 32 32 c 2,6,-1
 480 32 l 2,7,8
 493 32 493 32 502.5 22.5 c 128,-1,9
 512 13 512 13 512 0 c 128,-1,10
 512 -13 512 -13 502.5 -22.5 c 128,-1,11
 493 -32 493 -32 480 -32 c 2,0,-1
EndSplineSet
EndChar

StartChar: window-restore
Encoding: 62162 62162 108
Width: 512
GlyphClass: 3
Flags: W
LayerCount: 2
Fore
SplineSet
464 448 m 2,0,1
 484 448 484 448 498 434 c 128,-1,2
 512 420 512 420 512 400 c 2,3,-1
 512 80 l 2,4,5
 512 60 512 60 498 46 c 128,-1,6
 484 32 484 32 464 32 c 2,7,-1
 416 32 l 1,8,-1
 416 -16 l 2,9,10
 416 -36 416 -36 402 -50 c 128,-1,11
 388 -64 388 -64 368 -64 c 2,12,-1
 48 -64 l 2,13,14
 28 -64 28 -64 14 -50 c 128,-1,15
 0 -36 0 -36 0 -16 c 2,16,-1
 0 304 l 2,17,18
 0 324 0 324 14 338 c 128,-1,19
 28 352 28 352 48 352 c 2,20,-1
 96 352 l 1,21,-1
 96 400 l 2,22,23
 96 420 96 420 110 434 c 128,-1,24
 124 448 124 448 144 448 c 2,25,-1
 464 448 l 2,0,1
368 -16 m 1,26,-1
 368 192 l 1,27,-1
 48 192 l 1,28,-1
 48 -16 l 1,29,-1
 368 -16 l 1,26,-1
464 80 m 1,30,-1
 464 400 l 1,31,-1
 144 400 l 1,32,-1
 144 352 l 1,33,-1
 368 352 l 2,34,35
 388 352 388 352 402 338 c 128,-1,36
 416 324 416 324 416 304 c 2,37,-1
 416 80 l 1,38,-1
 464 80 l 1,30,-1
EndSplineSet
EndChar

StartChar: snowflake
Encoding: 62172 62172 109
Width: 448
GlyphClass: 3
Flags: W
LayerCount: 2
Fore
SplineSet
440 93 m 2,0,1
 446 89 446 89 447.5 83 c 128,-1,2
 449 77 449 77 446 71 c 2,3,-1
 438 57 l 2,4,5
 430 43 430 43 416 51 c 2,6,-1
 377 74 l 1,7,-1
 386 40 l 2,8,9
 387 35 387 35 386 31 c 128,-1,10
 385 27 385 27 382 24 c 128,-1,11
 379 21 379 21 375 20 c 2,12,-1
 360 16 l 2,13,14
 354 14 354 14 348 17.5 c 128,-1,15
 342 21 342 21 340 27 c 2,16,-1
 319 108 l 1,17,-1
 247 150 l 1,18,-1
 247 66 l 1,19,-1
 306 7 l 2,20,21
 317 -5 317 -5 306 -16 c 2,22,-1
 294 -27 l 2,23,24
 283 -39 283 -39 272 -27 c 2,25,-1
 247 -2 l 1,26,-1
 247 -48 l 2,27,28
 247 -55 247 -55 242.5 -59.5 c 128,-1,29
 238 -64 238 -64 232 -64 c 2,30,-1
 216 -64 l 2,31,32
 209 -64 209 -64 204.5 -59.5 c 128,-1,33
 200 -55 200 -55 200 -48 c 2,34,-1
 200 -2 l 1,35,-1
 175 -28 l 2,36,37
 164 -39 164 -39 153 -28 c 2,38,-1
 142 -16 l 2,39,40
 138 -12 138 -12 138 -5 c 128,-1,41
 138 2 138 2 142 6 c 2,42,-1
 200 66 l 1,43,-1
 200 150 l 1,44,-1
 128 108 l 1,45,-1
 107 27 l 2,46,47
 105 21 105 21 99.5 17.5 c 128,-1,48
 94 14 94 14 88 16 c 2,49,-1
 73 20 l 2,50,51
 66 22 66 22 63 27.5 c 128,-1,52
 60 33 60 33 62 39 c 2,53,-1
 71 74 l 1,54,-1
 32 51 l 2,55,56
 26 48 26 48 19.5 49.5 c 128,-1,57
 13 51 13 51 10 57 c 2,58,-1
 2 71 l 2,59,60
 -6 85 -6 85 8 93 c 2,61,-1
 47 116 l 1,62,-1
 13 125 l 2,63,64
 7 127 7 127 3.5 132.5 c 128,-1,65
 0 138 0 138 2 145 c 2,66,-1
 6 160 l 2,67,68
 8 167 8 167 13.5 170 c 128,-1,69
 19 173 19 173 25 172 c 2,70,-1
 105 150 l 1,71,-1
 177 192 l 1,72,-1
 105 234 l 1,73,-1
 25 212 l 2,74,75
 19 211 19 211 13.5 214 c 128,-1,76
 8 217 8 217 6 224 c 2,77,-1
 2 239 l 2,78,79
 0 246 0 246 3.5 251.5 c 128,-1,80
 7 257 7 257 13 259 c 2,81,-1
 47 268 l 1,82,-1
 8 291 l 2,83,84
 -6 299 -6 299 2 313 c 2,85,-1
 10 327 l 2,86,87
 18 341 18 341 32 333 c 2,88,-1
 71 310 l 1,89,-1
 62 344 l 2,90,91
 60 351 60 351 63 356.5 c 128,-1,92
 66 362 66 362 73 364 c 2,93,-1
 88 368 l 2,94,95
 94 370 94 370 100 366.5 c 128,-1,96
 106 363 106 363 107 357 c 2,97,-1
 128 276 l 1,98,-1
 200 234 l 1,99,-1
 200 318 l 1,100,-1
 142 377 l 2,101,102
 131 389 131 389 142 400 c 2,103,-1
 154 411 l 2,104,105
 165 423 165 423 176 411 c 2,106,-1
 201 386 l 1,107,-1
 201 432 l 2,108,109
 201 439 201 439 205.5 443.5 c 128,-1,110
 210 448 210 448 216 448 c 2,111,-1
 232 448 l 2,112,113
 239 448 239 448 243.5 443.5 c 128,-1,114
 248 439 248 439 248 432 c 2,115,-1
 248 386 l 1,116,-1
 273 412 l 2,117,118
 284 423 284 423 295 412 c 2,119,-1
 306 400 l 2,120,121
 317 389 317 389 306 378 c 2,122,-1
 248 318 l 1,123,-1
 248 234 l 1,124,-1
 320 276 l 1,125,-1
 341 357 l 2,126,127
 343 363 343 363 348.5 366.5 c 128,-1,128
 354 370 354 370 360 368 c 2,129,-1
 375 364 l 2,130,131
 382 362 382 362 385 356.5 c 128,-1,132
 388 351 388 351 386 345 c 2,133,-1
 377 310 l 1,134,-1
 417 333 l 2,135,136
 422 336 422 336 428.5 334.5 c 128,-1,137
 435 333 435 333 438 327 c 2,138,-1
 446 313 l 2,139,140
 454 299 454 299 440 291 c 2,141,-1
 401 268 l 1,142,-1
 435 259 l 2,143,144
 441 257 441 257 444.5 251.5 c 128,-1,145
 448 246 448 246 446 239 c 2,146,-1
 442 224 l 2,147,148
 440 217 440 217 434.5 214 c 128,-1,149
 429 211 429 211 423 212 c 2,150,-1
 343 234 l 1,151,-1
 271 192 l 1,152,-1
 343 150 l 1,153,-1
 423 172 l 2,154,155
 429 173 429 173 434.5 170 c 128,-1,156
 440 167 440 167 442 160 c 2,157,-1
 446 145 l 2,158,159
 448 138 448 138 444.5 132.5 c 128,-1,160
 441 127 441 127 435 125 c 2,161,-1
 401 116 l 1,162,-1
 440 93 l 2,0,1
EndSplineSet
EndChar

StartChar: trash-alt
Encoding: 62189 62189 110
Width: 448
GlyphClass: 3
Flags: W
LayerCount: 2
Fore
SplineSet
268 32 m 2,0,1
 256 32 256 32 256 44 c 2,2,-1
 256 260 l 2,3,4
 256 272 256 272 268 272 c 2,5,-1
 292 272 l 2,6,7
 304 272 304 272 304 260 c 2,8,-1
 304 44 l 2,9,10
 304 32 304 32 292 32 c 2,11,-1
 268 32 l 2,0,1
432 368 m 2,12,13
 439 368 439 368 443.5 363.5 c 128,-1,14
 448 359 448 359 448 352 c 2,15,-1
 448 336 l 2,16,17
 448 329 448 329 443.5 324.5 c 128,-1,18
 439 320 439 320 432 320 c 2,19,-1
 416 320 l 1,20,-1
 416 -16 l 2,21,22
 416 -36 416 -36 402 -50 c 128,-1,23
 388 -64 388 -64 368 -64 c 2,24,-1
 80 -64 l 2,25,26
 60 -64 60 -64 46 -50 c 128,-1,27
 32 -36 32 -36 32 -16 c 2,28,-1
 32 320 l 1,29,-1
 16 320 l 2,30,31
 9 320 9 320 4.5 324.5 c 128,-1,32
 0 329 0 329 0 336 c 2,33,-1
 0 352 l 2,34,35
 0 359 0 359 4.5 363.5 c 128,-1,36
 9 368 9 368 16 368 c 2,37,-1
 98 368 l 1,38,-1
 132 425 l 2,39,40
 138 434 138 434 150 441 c 128,-1,41
 162 448 162 448 174 448 c 2,42,-1
 274 448 l 2,43,44
 282 448 282 448 290 445 c 128,-1,45
 298 442 298 442 305 436.5 c 128,-1,46
 312 431 312 431 316 425 c 2,47,-1
 350 368 l 1,48,-1
 432 368 l 2,12,13
172 397 m 2,49,-1
 154 368 l 1,50,-1
 294 368 l 1,51,-1
 276 397 l 2,52,53
 274 400 274 400 271 400 c 2,54,-1
 177 400 l 2,55,56
 174 400 174 400 172 397 c 2,49,-1
368 -16 m 1,57,-1
 368 320 l 1,58,-1
 80 320 l 1,59,-1
 80 -16 l 1,60,-1
 368 -16 l 1,57,-1
156 32 m 2,61,62
 144 32 144 32 144 44 c 2,63,-1
 144 260 l 2,64,65
 144 272 144 272 156 272 c 2,66,-1
 180 272 l 2,67,68
 192 272 192 272 192 260 c 2,69,-1
 192 44 l 2,70,71
 192 32 192 32 180 32 c 2,72,-1
 156 32 l 2,61,62
EndSplineSet
EndChar

StartChar: images
Encoding: 62210 62210 111
Width: 576
GlyphClass: 3
Flags: W
LayerCount: 2
Fore
SplineSet
480 32 m 1,0,-1
 480 16 l 2,1,2
 480 -4 480 -4 466 -18 c 128,-1,3
 452 -32 452 -32 432 -32 c 2,4,-1
 48 -32 l 2,5,6
 28 -32 28 -32 14 -18 c 128,-1,7
 0 -4 0 -4 0 16 c 2,8,-1
 0 272 l 2,9,10
 0 292 0 292 14 306 c 128,-1,11
 28 320 28 320 48 320 c 2,12,-1
 64 320 l 1,13,-1
 64 272 l 1,14,-1
 54 272 l 2,15,16
 48 272 48 272 48 266 c 2,17,-1
 48 22 l 2,18,19
 48 16 48 16 54 16 c 2,20,-1
 426 16 l 2,21,22
 432 16 432 16 432 22 c 2,23,-1
 432 32 l 1,24,-1
 480 32 l 1,0,-1
522 368 m 2,25,-1
 150 368 l 2,26,27
 144 368 144 368 144 362 c 2,28,-1
 144 118 l 2,29,30
 144 112 144 112 150 112 c 2,31,-1
 522 112 l 2,32,33
 528 112 528 112 528 118 c 2,34,-1
 528 362 l 2,35,36
 528 368 528 368 522 368 c 2,25,-1
528 416 m 2,37,38
 548 416 548 416 562 402 c 128,-1,39
 576 388 576 388 576 368 c 2,40,-1
 576 112 l 2,41,42
 576 92 576 92 562 78 c 128,-1,43
 548 64 548 64 528 64 c 2,44,-1
 144 64 l 2,45,46
 124 64 124 64 110 78 c 128,-1,47
 96 92 96 92 96 112 c 2,48,-1
 96 368 l 2,49,50
 96 388 96 388 110 402 c 128,-1,51
 124 416 124 416 144 416 c 2,52,-1
 528 416 l 2,37,38
264 304 m 128,-1,54
 264 287 264 287 252.5 275.5 c 128,-1,55
 241 264 241 264 224 264 c 128,-1,56
 207 264 207 264 195.5 275.5 c 128,-1,57
 184 287 184 287 184 304 c 128,-1,58
 184 321 184 321 195.5 332.5 c 128,-1,59
 207 344 207 344 224 344 c 128,-1,60
 241 344 241 344 252.5 332.5 c 128,-1,53
 264 321 264 321 264 304 c 128,-1,54
192 208 m 1,61,-1
 232 248 l 2,62,63
 240 256 240 256 248 248 c 2,64,-1
 288 208 l 1,65,-1
 392 312 l 2,66,67
 400 320 400 320 408 312 c 2,68,-1
 480 240 l 1,69,-1
 480 160 l 1,70,-1
 192 160 l 1,71,-1
 192 208 l 1,61,-1
EndSplineSet
EndChar

StartChar: clipboard
Encoding: 62248 62248 112
Width: 384
GlyphClass: 3
Flags: W
LayerCount: 2
Fore
SplineSet
336 384 m 2,0,1
 356 384 356 384 370 370 c 128,-1,2
 384 356 384 356 384 336 c 2,3,-1
 384 -16 l 2,4,5
 384 -36 384 -36 370 -50 c 128,-1,6
 356 -64 356 -64 336 -64 c 2,7,-1
 48 -64 l 2,8,9
 28 -64 28 -64 14 -50 c 128,-1,10
 0 -36 0 -36 0 -16 c 2,11,-1
 0 336 l 2,12,13
 0 356 0 356 14 370 c 128,-1,14
 28 384 28 384 48 384 c 2,15,-1
 128 384 l 1,16,17
 128 410 128 410 147 429 c 128,-1,18
 166 448 166 448 192 448 c 128,-1,19
 218 448 218 448 237 429 c 128,-1,20
 256 410 256 410 256 384 c 1,21,-1
 336 384 l 2,0,1
192 408 m 128,-1,23
 182 408 182 408 175 401 c 128,-1,24
 168 394 168 394 168 384 c 128,-1,25
 168 374 168 374 175 367 c 128,-1,26
 182 360 182 360 192 360 c 128,-1,27
 202 360 202 360 209 367 c 128,-1,28
 216 374 216 374 216 384 c 128,-1,29
 216 394 216 394 209 401 c 128,-1,22
 202 408 202 408 192 408 c 128,-1,23
336 -10 m 2,30,-1
 336 330 l 2,31,32
 336 336 336 336 330 336 c 2,33,-1
 288 336 l 1,34,-1
 288 300 l 2,35,36
 288 288 288 288 276 288 c 2,37,-1
 108 288 l 2,38,39
 96 288 96 288 96 300 c 2,40,-1
 96 336 l 1,41,-1
 54 336 l 2,42,43
 48 336 48 336 48 330 c 2,44,-1
 48 -10 l 2,45,46
 48 -16 48 -16 54 -16 c 2,47,-1
 330 -16 l 2,48,49
 336 -16 336 -16 336 -10 c 2,30,-1
EndSplineSet
EndChar

StartChar: arrow-alt-circle-down
Encoding: 62296 62296 113
Width: 512
GlyphClass: 3
Flags: W
LayerCount: 2
Fore
SplineSet
256 440 m 128,-1,1
 359 440 359 440 431.5 367.5 c 128,-1,2
 504 295 504 295 504 192 c 128,-1,3
 504 89 504 89 431.5 16.5 c 128,-1,4
 359 -56 359 -56 256 -56 c 128,-1,5
 153 -56 153 -56 80.5 16.5 c 128,-1,6
 8 89 8 89 8 192 c 128,-1,7
 8 295 8 295 80.5 367.5 c 128,-1,0
 153 440 153 440 256 440 c 128,-1,1
256 -8 m 128,-1,9
 339 -8 339 -8 397.5 50.5 c 128,-1,10
 456 109 456 109 456 192 c 128,-1,11
 456 275 456 275 397.5 333.5 c 128,-1,12
 339 392 339 392 256 392 c 128,-1,13
 173 392 173 392 114.5 333.5 c 128,-1,14
 56 275 56 275 56 192 c 128,-1,15
 56 109 56 109 114.5 50.5 c 128,-1,8
 173 -8 173 -8 256 -8 c 128,-1,9
224 308 m 2,16,17
 224 320 224 320 236 320 c 2,18,-1
 276 320 l 2,19,20
 288 320 288 320 288 308 c 2,21,-1
 288 192 l 1,22,-1
 355 192 l 2,23,24
 363 192 363 192 366 184.5 c 128,-1,25
 369 177 369 177 364 172 c 2,26,-1
 264 72 l 2,27,28
 256 64 256 64 248 72 c 2,29,-1
 148 172 l 2,30,31
 143 177 143 177 146 184.5 c 128,-1,32
 149 192 149 192 157 192 c 2,33,-1
 224 192 l 1,34,-1
 224 308 l 2,16,17
EndSplineSet
EndChar

StartChar: arrow-alt-circle-left
Encoding: 62297 62297 114
Width: 512
GlyphClass: 3
Flags: W
LayerCount: 2
Fore
SplineSet
8 192 m 128,-1,1
 8 295 8 295 80.5 367.5 c 128,-1,2
 153 440 153 440 256 440 c 128,-1,3
 359 440 359 440 431.5 367.5 c 128,-1,4
 504 295 504 295 504 192 c 128,-1,5
 504 89 504 89 431.5 16.5 c 128,-1,6
 359 -56 359 -56 256 -56 c 128,-1,7
 153 -56 153 -56 80.5 16.5 c 128,-1,0
 8 89 8 89 8 192 c 128,-1,1
456 192 m 128,-1,9
 456 275 456 275 397.5 333.5 c 128,-1,10
 339 392 339 392 256 392 c 128,-1,11
 173 392 173 392 114.5 333.5 c 128,-1,12
 56 275 56 275 56 192 c 128,-1,13
 56 109 56 109 114.5 50.5 c 128,-1,14
 173 -8 173 -8 256 -8 c 128,-1,15
 339 -8 339 -8 397.5 50.5 c 128,-1,8
 456 109 456 109 456 192 c 128,-1,9
384 212 m 2,16,-1
 384 172 l 2,17,18
 384 160 384 160 372 160 c 2,19,-1
 256 160 l 1,20,-1
 256 93 l 2,21,22
 256 85 256 85 248.5 82 c 128,-1,23
 241 79 241 79 236 84 c 2,24,-1
 136 184 l 2,25,26
 128 192 128 192 136 200 c 2,27,-1
 236 300 l 2,28,29
 241 305 241 305 248.5 302 c 128,-1,30
 256 299 256 299 256 291 c 2,31,-1
 256 224 l 1,32,-1
 372 224 l 2,33,34
 384 224 384 224 384 212 c 2,16,-1
EndSplineSet
EndChar

StartChar: arrow-alt-circle-right
Encoding: 62298 62298 115
Width: 512
GlyphClass: 3
Flags: W
LayerCount: 2
Fore
SplineSet
504 192 m 128,-1,1
 504 89 504 89 431.5 16.5 c 128,-1,2
 359 -56 359 -56 256 -56 c 128,-1,3
 153 -56 153 -56 80.5 16.5 c 128,-1,4
 8 89 8 89 8 192 c 128,-1,5
 8 295 8 295 80.5 367.5 c 128,-1,6
 153 440 153 440 256 440 c 128,-1,7
 359 440 359 440 431.5 367.5 c 128,-1,0
 504 295 504 295 504 192 c 128,-1,1
56 192 m 128,-1,9
 56 109 56 109 114.5 50.5 c 128,-1,10
 173 -8 173 -8 256 -8 c 128,-1,11
 339 -8 339 -8 397.5 50.5 c 128,-1,12
 456 109 456 109 456 192 c 128,-1,13
 456 275 456 275 397.5 333.5 c 128,-1,14
 339 392 339 392 256 392 c 128,-1,15
 173 392 173 392 114.5 333.5 c 128,-1,8
 56 275 56 275 56 192 c 128,-1,9
128 172 m 2,16,-1
 128 212 l 2,17,18
 128 224 128 224 140 224 c 2,19,-1
 256 224 l 1,20,-1
 256 291 l 2,21,22
 256 299 256 299 263.5 302 c 128,-1,23
 271 305 271 305 276 300 c 2,24,-1
 376 200 l 2,25,26
 384 192 384 192 376 184 c 2,27,-1
 276 84 l 2,28,29
 271 79 271 79 263.5 82 c 128,-1,30
 256 85 256 85 256 93 c 2,31,-1
 256 160 l 1,32,-1
 140 160 l 2,33,34
 128 160 128 160 128 172 c 2,16,-1
EndSplineSet
EndChar

StartChar: arrow-alt-circle-up
Encoding: 62299 62299 116
Width: 512
GlyphClass: 3
Flags: W
LayerCount: 2
Fore
SplineSet
256 -56 m 128,-1,1
 153 -56 153 -56 80.5 16.5 c 128,-1,2
 8 89 8 89 8 192 c 128,-1,3
 8 295 8 295 80.5 367.5 c 128,-1,4
 153 440 153 440 256 440 c 128,-1,5
 359 440 359 440 431.5 367.5 c 128,-1,6
 504 295 504 295 504 192 c 128,-1,7
 504 89 504 89 431.5 16.5 c 128,-1,0
 359 -56 359 -56 256 -56 c 128,-1,1
256 392 m 128,-1,9
 173 392 173 392 114.5 333.5 c 128,-1,10
 56 275 56 275 56 192 c 128,-1,11
 56 109 56 109 114.5 50.5 c 128,-1,12
 173 -8 173 -8 256 -8 c 128,-1,13
 339 -8 339 -8 397.5 50.5 c 128,-1,14
 456 109 456 109 456 192 c 128,-1,15
 456 275 456 275 397.5 333.5 c 128,-1,8
 339 392 339 392 256 392 c 128,-1,9
276 64 m 2,16,-1
 236 64 l 2,17,18
 224 64 224 64 224 76 c 2,19,-1
 224 192 l 1,20,-1
 157 192 l 2,21,22
 149 192 149 192 146 199.5 c 128,-1,23
 143 207 143 207 148 212 c 2,24,-1
 248 312 l 2,25,26
 256 320 256 320 264 312 c 2,27,-1
 364 212 l 2,28,29
 369 207 369 207 366 199.5 c 128,-1,30
 363 192 363 192 355 192 c 2,31,-1
 288 192 l 1,32,-1
 288 76 l 2,33,34
 288 64 288 64 276 64 c 2,16,-1
EndSplineSet
EndChar

StartChar: gem
Encoding: 62373 62373 117
Width: 576
GlyphClass: 3
Flags: W
LayerCount: 2
Fore
SplineSet
464 448 m 2,0,1
 470 448 470 448 474 443 c 2,2,-1
 574 295 l 2,3,4
 579 288 579 288 573 281 c 2,5,-1
 297 -60 l 2,6,7
 294 -64 294 -64 288 -64 c 128,-1,8
 282 -64 282 -64 279 -60 c 2,9,-1
 3 281 l 2,10,11
 -3 288 -3 288 2 295 c 2,12,-1
 102 443 l 2,13,14
 105 448 105 448 112 448 c 2,15,-1
 464 448 l 2,0,1
445 400 m 1,16,-1
 388 400 l 1,17,-1
 440 304 l 1,18,-1
 508 304 l 1,19,-1
 445 400 l 1,16,-1
243 400 m 1,20,-1
 191 304 l 1,21,-1
 385 304 l 1,22,-1
 333 400 l 1,23,-1
 243 400 l 1,20,-1
131 400 m 1,24,-1
 68 304 l 1,25,-1
 136 304 l 1,26,-1
 188 400 l 1,27,-1
 131 400 l 1,24,-1
88 256 m 1,28,-1
 208 96 l 1,29,-1
 140 256 l 1,30,-1
 88 256 l 1,28,-1
191 256 m 1,31,-1
 288 13 l 1,32,-1
 385 256 l 1,33,-1
 191 256 l 1,31,-1
368 96 m 1,34,-1
 488 256 l 1,35,-1
 436 256 l 1,36,-1
 368 96 l 1,34,-1
EndSplineSet
EndChar

StartChar: money-bill-alt
Encoding: 62417 62417 118
Width: 640
GlyphClass: 3
Flags: W
LayerCount: 2
Fore
SplineSet
320 304 m 128,-1,1
 360 304 360 304 388 271 c 128,-1,2
 416 238 416 238 416 192 c 128,-1,3
 416 146 416 146 388 113 c 128,-1,4
 360 80 360 80 320 80 c 128,-1,5
 280 80 280 80 252 113 c 128,-1,6
 224 146 224 146 224 192 c 128,-1,7
 224 238 224 238 252 271 c 128,-1,0
 280 304 280 304 320 304 c 128,-1,1
360 136 m 2,8,-1
 360 152 l 2,9,10
 360 160 360 160 352 160 c 2,11,-1
 336 160 l 1,12,-1
 336 248 l 2,13,14
 336 256 336 256 328 256 c 2,15,-1
 314 256 l 2,16,17
 307 256 307 256 301 252 c 2,18,-1
 286 242 l 2,19,20
 282 239 282 239 282 235 c 0,21,22
 282 233 282 233 284 231 c 2,23,-1
 292 217 l 2,24,25
 295 214 295 214 299 214 c 0,26,27
 302 214 302 214 304 215 c 1,28,-1
 304 160 l 1,29,-1
 288 160 l 2,30,31
 280 160 280 160 280 152 c 2,32,-1
 280 136 l 2,33,34
 280 128 280 128 288 128 c 2,35,-1
 352 128 l 2,36,37
 360 128 360 128 360 136 c 2,8,-1
608 384 m 2,38,39
 621 384 621 384 630.5 374.5 c 128,-1,40
 640 365 640 365 640 352 c 2,41,-1
 640 32 l 2,42,43
 640 19 640 19 630.5 9.5 c 128,-1,44
 621 0 621 0 608 0 c 2,45,-1
 32 0 l 2,46,47
 19 0 19 0 9.5 9.5 c 128,-1,48
 0 19 0 19 0 32 c 2,49,-1
 0 352 l 2,50,51
 0 365 0 365 9.5 374.5 c 128,-1,52
 19 384 19 384 32 384 c 2,53,-1
 608 384 l 2,38,39
592 112 m 1,54,-1
 592 272 l 1,55,56
 565 272 565 272 546.5 290.5 c 128,-1,57
 528 309 528 309 528 336 c 1,58,-1
 112 336 l 1,59,60
 112 309 112 309 93.5 290.5 c 128,-1,61
 75 272 75 272 48 272 c 1,62,-1
 48 112 l 1,63,64
 75 112 75 112 93.5 93.5 c 128,-1,65
 112 75 112 75 112 48 c 1,66,-1
 528 48 l 1,67,68
 528 75 528 75 546.5 93.5 c 128,-1,69
 565 112 565 112 592 112 c 1,54,-1
EndSplineSet
EndChar

StartChar: window-close
Encoding: 62480 62480 119
Width: 512
GlyphClass: 3
Flags: W
LayerCount: 2
Fore
SplineSet
464 416 m 2,0,1
 484 416 484 416 498 402 c 128,-1,2
 512 388 512 388 512 368 c 2,3,-1
 512 16 l 2,4,5
 512 -4 512 -4 498 -18 c 128,-1,6
 484 -32 484 -32 464 -32 c 2,7,-1
 48 -32 l 2,8,9
 28 -32 28 -32 14 -18 c 128,-1,10
 0 -4 0 -4 0 16 c 2,11,-1
 0 368 l 2,12,13
 0 388 0 388 14 402 c 128,-1,14
 28 416 28 416 48 416 c 2,15,-1
 464 416 l 2,0,1
464 22 m 2,16,-1
 464 362 l 2,17,18
 464 368 464 368 458 368 c 2,19,-1
 54 368 l 2,20,21
 48 368 48 368 48 362 c 2,22,-1
 48 22 l 2,23,24
 48 16 48 16 54 16 c 2,25,-1
 458 16 l 2,26,27
 464 16 464 16 464 22 c 2,16,-1
356 253 m 2,28,-1
 295 192 l 1,29,-1
 356 131 l 2,30,31
 365 122 365 122 356 114 c 2,32,-1
 334 92 l 2,33,34
 326 83 326 83 317 92 c 2,35,-1
 256 153 l 1,36,-1
 195 92 l 2,37,38
 186 83 186 83 178 92 c 2,39,-1
 156 114 l 2,40,41
 147 122 147 122 156 131 c 2,42,-1
 217 192 l 1,43,-1
 156 253 l 2,44,45
 147 262 147 262 156 270 c 2,46,-1
 178 292 l 2,47,48
 186 301 186 301 195 292 c 2,49,-1
 256 231 l 1,50,-1
 317 292 l 2,51,52
 326 301 326 301 334 292 c 2,53,-1
 356 270 l 2,54,55
 365 262 365 262 356 253 c 2,28,-1
EndSplineSet
EndChar

StartChar: comment-dots
Encoding: 62637 62637 120
Width: 512
GlyphClass: 3
Flags: W
LayerCount: 2
Fore
SplineSet
144 240 m 128,-1,1
 157 240 157 240 166.5 230.5 c 128,-1,2
 176 221 176 221 176 208 c 128,-1,3
 176 195 176 195 166.5 185.5 c 128,-1,4
 157 176 157 176 144 176 c 128,-1,5
 131 176 131 176 121.5 185.5 c 128,-1,6
 112 195 112 195 112 208 c 128,-1,7
 112 221 112 221 121.5 230.5 c 128,-1,0
 131 240 131 240 144 240 c 128,-1,1
256 240 m 128,-1,9
 269 240 269 240 278.5 230.5 c 128,-1,10
 288 221 288 221 288 208 c 128,-1,11
 288 195 288 195 278.5 185.5 c 128,-1,12
 269 176 269 176 256 176 c 128,-1,13
 243 176 243 176 233.5 185.5 c 128,-1,14
 224 195 224 195 224 208 c 128,-1,15
 224 221 224 221 233.5 230.5 c 128,-1,8
 243 240 243 240 256 240 c 128,-1,9
368 240 m 128,-1,17
 381 240 381 240 390.5 230.5 c 128,-1,18
 400 221 400 221 400 208 c 128,-1,19
 400 195 400 195 390.5 185.5 c 128,-1,20
 381 176 381 176 368 176 c 128,-1,21
 355 176 355 176 345.5 185.5 c 128,-1,22
 336 195 336 195 336 208 c 128,-1,23
 336 221 336 221 345.5 230.5 c 128,-1,16
 355 240 355 240 368 240 c 128,-1,17
256 416 m 128,-1,25
 362 416 362 416 437 355 c 128,-1,26
 512 294 512 294 512 208 c 128,-1,27
 512 122 512 122 437 61 c 128,-1,28
 362 0 362 0 256 0 c 0,29,30
 209 0 209 0 163 14 c 1,31,32
 98 -32 98 -32 24 -32 c 0,33,34
 8 -32 8 -32 2 -17.5 c 128,-1,35
 -4 -3 -4 -3 6 8 c 0,36,37
 8 10 8 10 15.5 18.5 c 128,-1,38
 23 27 23 27 34.5 45.5 c 128,-1,39
 46 64 46 64 53 82 c 1,40,41
 0 138 0 138 0 208 c 0,42,43
 0 294 0 294 75 355 c 128,-1,24
 150 416 150 416 256 416 c 128,-1,25
256 48 m 0,44,45
 342 48 342 48 403 95 c 128,-1,46
 464 142 464 142 464 208 c 128,-1,47
 464 274 464 274 403 321 c 128,-1,48
 342 368 342 368 256 368 c 128,-1,49
 170 368 170 368 109 321 c 128,-1,50
 48 274 48 274 48 208 c 0,51,52
 48 157 48 157 88 115 c 2,53,-1
 108 93 l 1,54,-1
 98 65 l 2,55,56
 90 45 90 45 78 24 c 1,57,58
 108 34 108 34 135 54 c 2,59,-1
 155 67 l 1,60,-1
 178 60 l 2,61,62
 216 48 216 48 256 48 c 0,44,45
EndSplineSet
EndChar

StartChar: smile-wink
Encoding: 62682 62682 121
Width: 496
GlyphClass: 3
Flags: W
LayerCount: 2
Fore
SplineSet
248 440 m 128,-1,1
 351 440 351 440 423.5 367.5 c 128,-1,2
 496 295 496 295 496 192 c 128,-1,3
 496 89 496 89 423.5 16.5 c 128,-1,4
 351 -56 351 -56 248 -56 c 128,-1,5
 145 -56 145 -56 72.5 16.5 c 128,-1,6
 0 89 0 89 0 192 c 128,-1,7
 0 295 0 295 72.5 367.5 c 128,-1,0
 145 440 145 440 248 440 c 128,-1,1
248 -8 m 128,-1,9
 331 -8 331 -8 389.5 50.5 c 128,-1,10
 448 109 448 109 448 192 c 128,-1,11
 448 275 448 275 389.5 333.5 c 128,-1,12
 331 392 331 392 248 392 c 128,-1,13
 165 392 165 392 106.5 333.5 c 128,-1,14
 48 275 48 275 48 192 c 128,-1,15
 48 109 48 109 106.5 50.5 c 128,-1,8
 165 -8 165 -8 248 -8 c 128,-1,9
365.5 138.5 m 128,-1,17
 373 132 373 132 374 122 c 128,-1,18
 375 112 375 112 369 105 c 0,19,20
 322 48 322 48 248 48 c 128,-1,21
 174 48 174 48 127 105 c 0,22,23
 121 112 121 112 122 122 c 128,-1,24
 123 132 123 132 130.5 138.5 c 128,-1,25
 138 145 138 145 148 144 c 128,-1,26
 158 143 158 143 164 135 c 0,27,28
 197 96 197 96 248 96 c 128,-1,29
 299 96 299 96 332 135 c 0,30,31
 338 143 338 143 348 144 c 128,-1,16
 358 145 358 145 365.5 138.5 c 128,-1,17
168 208 m 128,-1,33
 155 208 155 208 145.5 217.5 c 128,-1,34
 136 227 136 227 136 240 c 128,-1,35
 136 253 136 253 145.5 262.5 c 128,-1,36
 155 272 155 272 168 272 c 128,-1,37
 181 272 181 272 190.5 262.5 c 128,-1,38
 200 253 200 253 200 240 c 128,-1,39
 200 227 200 227 190.5 217.5 c 128,-1,32
 181 208 181 208 168 208 c 128,-1,33
328 268 m 0,40,41
 348 268 348 268 366.5 256 c 128,-1,42
 385 244 385 244 388 226 c 0,43,44
 389 218 389 218 381.5 214 c 128,-1,45
 374 210 374 210 368 215 c 2,46,-1
 358 224 l 2,47,48
 347 233 347 233 328 233 c 128,-1,49
 309 233 309 233 297 224 c 2,50,-1
 288 215 l 2,51,52
 282 210 282 210 274.5 214 c 128,-1,53
 267 218 267 218 268 226 c 0,54,55
 270 238 270 238 279.5 248 c 128,-1,56
 289 258 289 258 302 263 c 128,-1,57
 315 268 315 268 328 268 c 0,40,41
EndSplineSet
EndChar

StartChar: angry
Encoding: 62806 62806 122
Width: 496
GlyphClass: 3
Flags: W
LayerCount: 2
Fore
SplineSet
248 440 m 128,-1,1
 351 440 351 440 423.5 367.5 c 128,-1,2
 496 295 496 295 496 192 c 128,-1,3
 496 89 496 89 423.5 16.5 c 128,-1,4
 351 -56 351 -56 248 -56 c 128,-1,5
 145 -56 145 -56 72.5 16.5 c 128,-1,6
 0 89 0 89 0 192 c 128,-1,7
 0 295 0 295 72.5 367.5 c 128,-1,0
 145 440 145 440 248 440 c 128,-1,1
248 -8 m 128,-1,9
 331 -8 331 -8 389.5 50.5 c 128,-1,10
 448 109 448 109 448 192 c 128,-1,11
 448 275 448 275 389.5 333.5 c 128,-1,12
 331 392 331 392 248 392 c 128,-1,13
 165 392 165 392 106.5 333.5 c 128,-1,14
 48 275 48 275 48 192 c 128,-1,15
 48 109 48 109 106.5 50.5 c 128,-1,8
 165 -8 165 -8 248 -8 c 128,-1,9
248 136 m 128,-1,17
 301 136 301 136 335 95 c 0,18,19
 341 88 341 88 340 78 c 128,-1,20
 339 68 339 68 332 62 c 0,21,22
 324 55 324 55 314 56 c 128,-1,23
 304 57 304 57 298 65 c 0,24,25
 279 87 279 87 248 87 c 128,-1,26
 217 87 217 87 198 65 c 0,27,28
 192 57 192 57 182 56 c 128,-1,29
 172 55 172 55 164.5 61.5 c 128,-1,30
 157 68 157 68 156 78 c 128,-1,31
 155 88 155 88 161 95 c 0,32,16
 195 136 195 136 248 136 c 128,-1,17
200 208 m 1,33,34
 200 195 200 195 190.5 185.5 c 128,-1,35
 181 176 181 176 168 176 c 128,-1,36
 155 176 155 176 145.5 185.5 c 128,-1,37
 136 195 136 195 136 208 c 0,38,39
 136 216 136 216 141 224 c 1,40,-1
 113 233 l 2,41,42
 104 236 104 236 99 244.5 c 128,-1,43
 94 253 94 253 97 262.5 c 128,-1,44
 100 272 100 272 108.5 277 c 128,-1,45
 117 282 117 282 127 279 c 2,46,-1
 207 255 l 2,47,48
 216 252 216 252 221 243.5 c 128,-1,49
 226 235 226 235 223 225 c 0,50,51
 218 208 218 208 200 208 c 1,33,34
399 262.5 m 128,-1,53
 402 253 402 253 397 244.5 c 128,-1,54
 392 236 392 236 383 233 c 2,55,-1
 355 225 l 1,56,57
 360 216 360 216 360 208 c 0,58,59
 360 195 360 195 350.5 185.5 c 128,-1,60
 341 176 341 176 328 176 c 128,-1,61
 315 176 315 176 305.5 185.5 c 128,-1,62
 296 195 296 195 296 208 c 1,63,64
 278 208 278 208 273 225 c 0,65,66
 271 230 271 230 272 234.5 c 128,-1,67
 273 239 273 239 275 243 c 128,-1,68
 277 247 277 247 280.5 250.5 c 128,-1,69
 284 254 284 254 289 255 c 2,70,-1
 369 279 l 2,71,72
 379 282 379 282 387.5 277 c 128,-1,52
 396 272 396 272 399 262.5 c 128,-1,53
EndSplineSet
EndChar

StartChar: dizzy
Encoding: 62823 62823 123
Width: 496
GlyphClass: 3
Flags: W
LayerCount: 2
Fore
SplineSet
248 440 m 128,-1,1
 351 440 351 440 423.5 367.5 c 128,-1,2
 496 295 496 295 496 192 c 128,-1,3
 496 89 496 89 423.5 16.5 c 128,-1,4
 351 -56 351 -56 248 -56 c 128,-1,5
 145 -56 145 -56 72.5 16.5 c 128,-1,6
 0 89 0 89 0 192 c 128,-1,7
 0 295 0 295 72.5 367.5 c 128,-1,0
 145 440 145 440 248 440 c 128,-1,1
248 -8 m 128,-1,9
 331 -8 331 -8 389.5 50.5 c 128,-1,10
 448 109 448 109 448 192 c 128,-1,11
 448 275 448 275 389.5 333.5 c 128,-1,12
 331 392 331 392 248 392 c 128,-1,13
 165 392 165 392 106.5 333.5 c 128,-1,14
 48 275 48 275 48 192 c 128,-1,15
 48 109 48 109 106.5 50.5 c 128,-1,8
 165 -8 165 -8 248 -8 c 128,-1,9
214 210 m 128,-1,17
 208 204 208 204 200 204 c 128,-1,18
 192 204 192 204 186 210 c 2,19,-1
 168 228 l 1,20,-1
 150 210 l 2,21,22
 144 204 144 204 136 204 c 128,-1,23
 128 204 128 204 122 210 c 128,-1,24
 116 216 116 216 116 224 c 128,-1,25
 116 232 116 232 122 238 c 2,26,-1
 140 256 l 1,27,-1
 122 274 l 2,28,29
 116 280 116 280 116 288 c 128,-1,30
 116 296 116 296 122 302 c 128,-1,31
 128 308 128 308 136 308 c 128,-1,32
 144 308 144 308 150 302 c 2,33,-1
 168 284 l 1,34,-1
 186 302 l 2,35,36
 192 308 192 308 200 308 c 128,-1,37
 208 308 208 308 214 302 c 128,-1,38
 220 296 220 296 220 288 c 128,-1,39
 220 280 220 280 214 274 c 2,40,-1
 196 256 l 1,41,-1
 214 238 l 2,42,43
 220 232 220 232 220 224 c 128,-1,16
 220 216 220 216 214 210 c 128,-1,17
374 302 m 128,-1,45
 380 296 380 296 380 288 c 128,-1,46
 380 280 380 280 374 274 c 2,47,-1
 356 256 l 1,48,-1
 374 238 l 2,49,50
 380 232 380 232 380 224 c 128,-1,51
 380 216 380 216 374 210 c 128,-1,52
 368 204 368 204 360 204 c 128,-1,53
 352 204 352 204 346 210 c 2,54,-1
 328 228 l 1,55,-1
 310 210 l 2,56,57
 304 204 304 204 296 204 c 128,-1,58
 288 204 288 204 282 210 c 128,-1,59
 276 216 276 216 276 224 c 128,-1,60
 276 232 276 232 282 238 c 2,61,-1
 300 256 l 1,62,-1
 282 274 l 2,63,64
 276 280 276 280 276 288 c 128,-1,65
 276 296 276 296 282 302 c 128,-1,66
 288 308 288 308 296 308 c 128,-1,67
 304 308 304 308 310 302 c 2,68,-1
 328 284 l 1,69,-1
 346 302 l 2,70,71
 352 308 352 308 360 308 c 128,-1,44
 368 308 368 308 374 302 c 128,-1,45
248 176 m 128,-1,73
 274 176 274 176 293 157 c 128,-1,74
 312 138 312 138 312 112 c 128,-1,75
 312 86 312 86 293 67 c 128,-1,76
 274 48 274 48 248 48 c 128,-1,77
 222 48 222 48 203 67 c 128,-1,78
 184 86 184 86 184 112 c 128,-1,79
 184 138 184 138 203 157 c 128,-1,72
 222 176 222 176 248 176 c 128,-1,73
EndSplineSet
EndChar

StartChar: flushed
Encoding: 62841 62841 124
Width: 496
GlyphClass: 3
Flags: W
LayerCount: 2
Fore
SplineSet
248 440 m 128,-1,1
 351 440 351 440 423.5 367.5 c 128,-1,2
 496 295 496 295 496 192 c 128,-1,3
 496 89 496 89 423.5 16.5 c 128,-1,4
 351 -56 351 -56 248 -56 c 128,-1,5
 145 -56 145 -56 72.5 16.5 c 128,-1,6
 0 89 0 89 0 192 c 128,-1,7
 0 295 0 295 72.5 367.5 c 128,-1,0
 145 440 145 440 248 440 c 128,-1,1
248 -8 m 128,-1,9
 331 -8 331 -8 389.5 50.5 c 128,-1,10
 448 109 448 109 448 192 c 128,-1,11
 448 275 448 275 389.5 333.5 c 128,-1,12
 331 392 331 392 248 392 c 128,-1,13
 165 392 165 392 106.5 333.5 c 128,-1,14
 48 275 48 275 48 192 c 128,-1,15
 48 109 48 109 106.5 50.5 c 128,-1,8
 165 -8 165 -8 248 -8 c 128,-1,9
344 304 m 128,-1,17
 377 304 377 304 400.5 280.5 c 128,-1,18
 424 257 424 257 424 224 c 128,-1,19
 424 191 424 191 400.5 167.5 c 128,-1,20
 377 144 377 144 344 144 c 128,-1,21
 311 144 311 144 287.5 167.5 c 128,-1,22
 264 191 264 191 264 224 c 128,-1,23
 264 257 264 257 287.5 280.5 c 128,-1,16
 311 304 311 304 344 304 c 128,-1,17
344 176 m 128,-1,25
 364 176 364 176 378 190 c 128,-1,26
 392 204 392 204 392 224 c 128,-1,27
 392 244 392 244 378 258 c 128,-1,28
 364 272 364 272 344 272 c 128,-1,29
 324 272 324 272 310 258 c 128,-1,30
 296 244 296 244 296 224 c 128,-1,31
 296 204 296 204 310 190 c 128,-1,24
 324 176 324 176 344 176 c 128,-1,25
344 248 m 128,-1,33
 354 248 354 248 361 241 c 128,-1,34
 368 234 368 234 368 224 c 128,-1,35
 368 214 368 214 361 207 c 128,-1,36
 354 200 354 200 344 200 c 128,-1,37
 334 200 334 200 327 207 c 128,-1,38
 320 214 320 214 320 224 c 128,-1,39
 320 234 320 234 327 241 c 128,-1,32
 334 248 334 248 344 248 c 128,-1,33
232 224 m 128,-1,41
 232 191 232 191 208.5 167.5 c 128,-1,42
 185 144 185 144 152 144 c 128,-1,43
 119 144 119 144 95.5 167.5 c 128,-1,44
 72 191 72 191 72 224 c 128,-1,45
 72 257 72 257 95.5 280.5 c 128,-1,46
 119 304 119 304 152 304 c 128,-1,47
 185 304 185 304 208.5 280.5 c 128,-1,40
 232 257 232 257 232 224 c 128,-1,41
152 176 m 128,-1,49
 172 176 172 176 186 190 c 128,-1,50
 200 204 200 204 200 224 c 128,-1,51
 200 244 200 244 186 258 c 128,-1,52
 172 272 172 272 152 272 c 128,-1,53
 132 272 132 272 118 258 c 128,-1,54
 104 244 104 244 104 224 c 128,-1,55
 104 204 104 204 118 190 c 128,-1,48
 132 176 132 176 152 176 c 128,-1,49
152 248 m 128,-1,57
 162 248 162 248 169 241 c 128,-1,58
 176 234 176 234 176 224 c 128,-1,59
 176 214 176 214 169 207 c 128,-1,60
 162 200 162 200 152 200 c 128,-1,61
 142 200 142 200 135 207 c 128,-1,62
 128 214 128 214 128 224 c 128,-1,63
 128 234 128 234 135 241 c 128,-1,56
 142 248 142 248 152 248 c 128,-1,57
312 104 m 2,64,65
 322 104 322 104 329 97 c 128,-1,66
 336 90 336 90 336 80 c 128,-1,67
 336 70 336 70 329 63 c 128,-1,68
 322 56 322 56 312 56 c 2,69,-1
 184 56 l 2,70,71
 174 56 174 56 167 63 c 128,-1,72
 160 70 160 70 160 80 c 128,-1,73
 160 90 160 90 167 97 c 128,-1,74
 174 104 174 104 184 104 c 2,75,-1
 312 104 l 2,64,65
EndSplineSet
EndChar

